ISO-10303-21;
HEADER;
FILE_DESCRIPTION(('Open CASCADE Model'),'2;1');
FILE_NAME('Open CASCADE Shape Model','2026-01-01T00:00:00',('Author'),(
    'Open CASCADE'),'Open CASCADE STEP processor 7.9','Open CASCADE 7.9'
  ,'Unknown');
FILE_SCHEMA((
'AP242_MANAGED_MODEL_BASED_3D_ENGINEERING_MIM_LF {1 0 10303 442 1 1 4 }'
    ));
ENDSEC;
DATA;
#1 = APPLICATION_PROTOCOL_DEFINITION('international standard',
  'ap242_managed_model_based_3d_engineering',2013,#2);
#2 = APPLICATION_CONTEXT('Managed model based 3d engineering');
#3 = SHAPE_DEFINITION_REPRESENTATION(#4,#10);
#4 = PRODUCT_DEFINITION_SHAPE('','',#5);
#5 = PRODUCT_DEFINITION('design','',#6,#9);
#6 = PRODUCT_DEFINITION_FORMATION('','',#7);
#7 = PRODUCT('de-right-linen-inner','de-right-linen-inner','',(#8));
#8 = PRODUCT_CONTEXT('',#2,'mechanical');
#9 = PRODUCT_DEFINITION_CONTEXT('part definition',#2,'design');
#10 = SHAPE_REPRESENTATION('',(#11,#15),#19);
#11 = AXIS2_PLACEMENT_3D('',#12,#13,#14);
#12 = CARTESIAN_POINT('',(0.,0.,0.));
#13 = DIRECTION('',(0.,0.,1.));
#14 = DIRECTION('',(1.,0.,-0.));
#15 = AXIS2_PLACEMENT_3D('',#16,#17,#18);
#16 = CARTESIAN_POINT('',(0.,0.,0.));
#17 = DIRECTION('',(0.,0.,1.));
#18 = DIRECTION('',(1.,0.,-0.));
#19 = ( GEOMETRIC_REPRESENTATION_CONTEXT(3) 
GLOBAL_UNCERTAINTY_ASSIGNED_CONTEXT((#23)) GLOBAL_UNIT_ASSIGNED_CONTEXT(
(#20,#21,#22)) REPRESENTATION_CONTEXT('Context #1',
  '3D Context with UNIT and UNCERTAINTY') );
#20 = ( LENGTH_UNIT() NAMED_UNIT(*) SI_UNIT(.MILLI.,.METRE.) );
#21 = ( NAMED_UNIT(*) PLANE_ANGLE_UNIT() SI_UNIT($,.RADIAN.) );
#22 = ( NAMED_UNIT(*) SI_UNIT($,.STERADIAN.) SOLID_ANGLE_UNIT() );
#23 = UNCERTAINTY_MEASURE_WITH_UNIT(LENGTH_MEASURE(1.E-07),#20,
  'distance_accuracy_value','confusion accuracy');
#24 = PRODUCT_RELATED_PRODUCT_CATEGORY('part',$,(#7));
#25 = SHAPE_DEFINITION_REPRESENTATION(#26,#32);
#26 = PRODUCT_DEFINITION_SHAPE('','',#27);
#27 = PRODUCT_DEFINITION('design','',#28,#31);
#28 = PRODUCT_DEFINITION_FORMATION('','',#29);
#29 = PRODUCT('de-right-linen-inner.body','de-right-linen-inner.body',''
  ,(#30));
#30 = PRODUCT_CONTEXT('',#2,'mechanical');
#31 = PRODUCT_DEFINITION_CONTEXT('part definition',#2,'design');
#32 = ADVANCED_BREP_SHAPE_REPRESENTATION('',(#11,#33),#433);
#33 = MANIFOLD_SOLID_BREP('',#34);
#34 = CLOSED_SHELL('',(#35,#190,#279,#372,#419,#426));
#35 = ADVANCED_FACE('',(#36),#56,.T.);
#36 = FACE_BOUND('',#37,.T.);
#37 = EDGE_LOOP('',(#38,#99,#126,#165));
#38 = ORIENTED_EDGE('',*,*,#39,.T.);
#39 = EDGE_CURVE('',#40,#42,#44,.T.);
#40 = VERTEX_POINT('',#41);
#41 = CARTESIAN_POINT('',(1.95E+03,750.,229.02704173512));
#42 = VERTEX_POINT('',#43);
#43 = CARTESIAN_POINT('',(4.334782608696E+03,750.,-200.23382783));
#44 = SURFACE_CURVE('',#45,(#55,#81),.PCURVE_S1.);
#45 = B_SPLINE_CURVE_WITH_KNOTS('',3,(#46,#47,#48,#49,#50,#51,#52,#53,
    #54),.UNSPECIFIED.,.F.,.F.,(4,1,1,1,1,1,4),(0.,446.17266700539,
    892.34533401078,1.338518001016E+03,1.784690668022E+03,
    2.230863335027E+03,2.677036002032E+03),.UNSPECIFIED.);
#46 = CARTESIAN_POINT('',(1.95E+03,750.,229.02704173512));
#47 = CARTESIAN_POINT('',(2.073087588507E+03,750.,313.58945196025));
#48 = CARTESIAN_POINT('',(2.341715169451E+03,750.,448.51626750049));
#49 = CARTESIAN_POINT('',(2.782888487201E+03,750.,542.88792872914));
#50 = CARTESIAN_POINT('',(3.233539573944E+03,750.,520.77588248923));
#51 = CARTESIAN_POINT('',(3.663615443936E+03,750.,384.35707651698));
#52 = CARTESIAN_POINT('',(4.044190322097E+03,750.,142.07074002424));
#53 = CARTESIAN_POINT('',(4.248907867357E+03,750.,-78.05819823281));
#54 = CARTESIAN_POINT('',(4.334782608696E+03,750.,-200.23382783));
#55 = PCURVE('',#56,#75);
#56 = B_SPLINE_SURFACE_WITH_KNOTS('',3,1,(
    (#57,#58)
    ,(#59,#60)
    ,(#61,#62)
    ,(#63,#64)
    ,(#65,#66)
    ,(#67,#68)
    ,(#69,#70)
    ,(#71,#72)
    ,(#73,#74
    )),.UNSPECIFIED.,.F.,.F.,.F.,(4,1,1,1,1,1,4),(2,2),(0.,
    446.17266700539,892.34533401078,1.338518001016E+03,
    1.784690668022E+03,2.230863335027E+03,2.677036002032E+03),(0.,1.),
  .UNSPECIFIED.);
#57 = CARTESIAN_POINT('',(1.95E+03,750.,229.02704173512));
#58 = CARTESIAN_POINT('',(1.95E+03,2.95E+03,538.21687808038));
#59 = CARTESIAN_POINT('',(2.073087588507E+03,750.,313.58945196025));
#60 = CARTESIAN_POINT('',(2.038528812518E+03,2.95E+03,599.03706191595));
#61 = CARTESIAN_POINT('',(2.341715169451E+03,750.,448.51626750049));
#62 = CARTESIAN_POINT('',(2.231734976022E+03,2.95E+03,696.08105230908));
#63 = CARTESIAN_POINT('',(2.782888487201E+03,750.,542.88792872914));
#64 = CARTESIAN_POINT('',(2.549041947495E+03,2.95E+03,763.95638568137));
#65 = CARTESIAN_POINT('',(3.233539573944E+03,750.,520.77588248923));
#66 = CARTESIAN_POINT('',(2.87316565528E+03,2.95E+03,748.05264412868));
#67 = CARTESIAN_POINT('',(3.663615443936E+03,750.,384.35707651698));
#68 = CARTESIAN_POINT('',(3.182490961956E+03,2.95E+03,649.93556307845));
#69 = CARTESIAN_POINT('',(4.044190322097E+03,750.,142.07074002424));
#70 = CARTESIAN_POINT('',(3.456213458646E+03,2.95E+03,475.67492543691));
#71 = CARTESIAN_POINT('',(4.248907867357E+03,750.,-78.05819823281));
#72 = CARTESIAN_POINT('',(3.603453333951E+03,2.95E+03,317.35064805786));
#73 = CARTESIAN_POINT('',(4.334782608696E+03,750.,-200.23382783));
#74 = CARTESIAN_POINT('',(3.665217391304E+03,2.95E+03,229.47774764559));
#75 = DEFINITIONAL_REPRESENTATION('',(#76),#80);
#76 = LINE('',#77,#78);
#77 = CARTESIAN_POINT('',(0.,0.));
#78 = VECTOR('',#79,1.);
#79 = DIRECTION('',(1.,0.));
#80 = ( GEOMETRIC_REPRESENTATION_CONTEXT(2) 
PARAMETRIC_REPRESENTATION_CONTEXT() REPRESENTATION_CONTEXT('2D SPACE',''
  ) );
#81 = PCURVE('',#82,#87);
#82 = PLANE('',#83);
#83 = AXIS2_PLACEMENT_3D('',#84,#85,#86);
#84 = CARTESIAN_POINT('',(1.95E+03,750.,229.02704173512));
#85 = DIRECTION('',(0.,-1.,0.));
#86 = DIRECTION('',(0.983456214802,0.,-0.181146000695));
#87 = DEFINITIONAL_REPRESENTATION('',(#88),#98);
#88 = B_SPLINE_CURVE_WITH_KNOTS('',3,(#89,#90,#91,#92,#93,#94,#95,#96,
    #97),.UNSPECIFIED.,.F.,.F.,(4,1,1,1,1,1,4),(0.,446.17266700539,
    892.34533401078,1.338518001016E+03,1.784690668022E+03,
    2.230863335027E+03,2.677036002032E+03),.UNSPECIFIED.);
#89 = CARTESIAN_POINT('',(0.,0.));
#90 = CARTESIAN_POINT('',(105.73311146039,105.46025226773));
#91 = CARTESIAN_POINT('',(345.47512238522,286.81567951867));
#92 = CARTESIAN_POINT('',(762.25471452132,459.5428583792));
#93 = CARTESIAN_POINT('',(1.209455835229E+03,519.4302711551));
#94 = CARTESIAN_POINT('',(1.65712834353E+03,463.17487245036));
#95 = CARTESIAN_POINT('',(2.075296273534E+03,293.83648620901));
#96 = CARTESIAN_POINT('',(2.316502492502E+03,114.43307841853));
#97 = CARTESIAN_POINT('',(2.423088167249E+03,9.834562148017));
#98 = ( GEOMETRIC_REPRESENTATION_CONTEXT(2) 
PARAMETRIC_REPRESENTATION_CONTEXT() REPRESENTATION_CONTEXT('2D SPACE',''
  ) );
#99 = ORIENTED_EDGE('',*,*,#100,.T.);
#100 = EDGE_CURVE('',#42,#101,#103,.T.);
#101 = VERTEX_POINT('',#102);
#102 = CARTESIAN_POINT('',(3.665217391304E+03,2.95E+03,229.47774764559)
  );
#103 = SURFACE_CURVE('',#104,(#107,#114),.PCURVE_S1.);
#104 = B_SPLINE_CURVE_WITH_KNOTS('',1,(#105,#106),.UNSPECIFIED.,.F.,.F.,
  (2,2),(0.,1.),.PIECEWISE_BEZIER_KNOTS.);
#105 = CARTESIAN_POINT('',(4.334782608696E+03,750.,-200.23382783));
#106 = CARTESIAN_POINT('',(3.665217391304E+03,2.95E+03,229.47774764559)
  );
#107 = PCURVE('',#56,#108);
#108 = DEFINITIONAL_REPRESENTATION('',(#109),#113);
#109 = LINE('',#110,#111);
#110 = CARTESIAN_POINT('',(2.677036002032E+03,0.));
#111 = VECTOR('',#112,1.);
#112 = DIRECTION('',(0.,1.));
#113 = ( GEOMETRIC_REPRESENTATION_CONTEXT(2) 
PARAMETRIC_REPRESENTATION_CONTEXT() REPRESENTATION_CONTEXT('2D SPACE',''
  ) );
#114 = PCURVE('',#115,#120);
#115 = B_SPLINE_SURFACE_WITH_KNOTS('',1,1,(
    (#116,#117)
    ,(#118,#119
  )),.UNSPECIFIED.,.F.,.F.,.F.,(2,2),(2,2),(0.,10.),(0.,1.),
  .PIECEWISE_BEZIER_KNOTS.);
#116 = CARTESIAN_POINT('',(4.334782608696E+03,750.,-200.23382783));
#117 = CARTESIAN_POINT('',(3.665217391304E+03,2.95E+03,229.47774764559)
  );
#118 = CARTESIAN_POINT('',(4.334782608696E+03,750.,-210.23382783));
#119 = CARTESIAN_POINT('',(3.665217391304E+03,2.95E+03,219.47774764559)
  );
#120 = DEFINITIONAL_REPRESENTATION('',(#121),#125);
#121 = LINE('',#122,#123);
#122 = CARTESIAN_POINT('',(0.,0.));
#123 = VECTOR('',#124,1.);
#124 = DIRECTION('',(0.,1.));
#125 = ( GEOMETRIC_REPRESENTATION_CONTEXT(2) 
PARAMETRIC_REPRESENTATION_CONTEXT() REPRESENTATION_CONTEXT('2D SPACE',''
  ) );
#126 = ORIENTED_EDGE('',*,*,#127,.F.);
#127 = EDGE_CURVE('',#128,#101,#130,.T.);
#128 = VERTEX_POINT('',#129);
#129 = CARTESIAN_POINT('',(1.95E+03,2.95E+03,538.21687808038));
#130 = SURFACE_CURVE('',#131,(#141,#147),.PCURVE_S1.);
#131 = B_SPLINE_CURVE_WITH_KNOTS('',3,(#132,#133,#134,#135,#136,#137,
    #138,#139,#140),.UNSPECIFIED.,.F.,.F.,(4,1,1,1,1,1,4),(0.,
    320.90267481062,641.80534962124,962.70802443186,1.283610699242E+03,
    1.604513374053E+03,1.925416048864E+03),.QUASI_UNIFORM_KNOTS.);
#132 = CARTESIAN_POINT('',(1.95E+03,2.95E+03,538.21687808038));
#133 = CARTESIAN_POINT('',(2.038528812518E+03,2.95E+03,599.03706191595)
  );
#134 = CARTESIAN_POINT('',(2.231734976022E+03,2.95E+03,696.08105230908)
  );
#135 = CARTESIAN_POINT('',(2.549041947495E+03,2.95E+03,763.95638568137)
  );
#136 = CARTESIAN_POINT('',(2.87316565528E+03,2.95E+03,748.05264412868));
#137 = CARTESIAN_POINT('',(3.182490961956E+03,2.95E+03,649.93556307845)
  );
#138 = CARTESIAN_POINT('',(3.456213458646E+03,2.95E+03,475.67492543691)
  );
#139 = CARTESIAN_POINT('',(3.603453333951E+03,2.95E+03,317.35064805786)
  );
#140 = CARTESIAN_POINT('',(3.665217391304E+03,2.95E+03,229.47774764559)
  );
#141 = PCURVE('',#56,#142);
#142 = DEFINITIONAL_REPRESENTATION('',(#143),#146);
#143 = B_SPLINE_CURVE_WITH_KNOTS('',1,(#144,#145),.UNSPECIFIED.,.F.,.F.,
  (2,2),(0.,1.925416048864E+03),.PIECEWISE_BEZIER_KNOTS.);
#144 = CARTESIAN_POINT('',(0.,1.));
#145 = CARTESIAN_POINT('',(2.677036002032E+03,1.));
#146 = ( GEOMETRIC_REPRESENTATION_CONTEXT(2) 
PARAMETRIC_REPRESENTATION_CONTEXT() REPRESENTATION_CONTEXT('2D SPACE',''
  ) );
#147 = PCURVE('',#148,#153);
#148 = PLANE('',#149);
#149 = AXIS2_PLACEMENT_3D('',#150,#151,#152);
#150 = CARTESIAN_POINT('',(1.95E+03,2.95E+03,538.21687808038));
#151 = DIRECTION('',(0.,-1.,0.));
#152 = DIRECTION('',(0.98316827715,0.,-0.182702322935));
#153 = DEFINITIONAL_REPRESENTATION('',(#154),#164);
#154 = B_SPLINE_CURVE_WITH_KNOTS('',3,(#155,#156,#157,#158,#159,#160,
    #161,#162,#163),.UNSPECIFIED.,.F.,.F.,(4,1,1,1,1,1,4),(0.,
    320.90267481062,641.80534962124,962.70802443186,1.283610699242E+03,
    1.604513374053E+03,1.925416048864E+03),.QUASI_UNIFORM_KNOTS.);
#155 = CARTESIAN_POINT('',(0.,0.));
#156 = CARTESIAN_POINT('',(75.92673121293,75.970895051211));
#157 = CARTESIAN_POINT('',(248.15073964904,206.68068277147));
#158 = CARTESIAN_POINT('',(547.71590704224,331.3862781156));
#159 = CARTESIAN_POINT('',(869.28970493383,374.96837826366));
#160 = CARTESIAN_POINT('',(1.191334752404E+03,335.01722880072));
#161 = CARTESIAN_POINT('',(1.492287851186E+03,213.69943390046));
#162 = CARTESIAN_POINT('',(1.665975638972E+03,84.941094125731));
#163 = CARTESIAN_POINT('',(1.742754683858E+03,9.8316827715));
#164 = ( GEOMETRIC_REPRESENTATION_CONTEXT(2) 
PARAMETRIC_REPRESENTATION_CONTEXT() REPRESENTATION_CONTEXT('2D SPACE',''
  ) );
#165 = ORIENTED_EDGE('',*,*,#166,.F.);
#166 = EDGE_CURVE('',#40,#128,#167,.T.);
#167 = SURFACE_CURVE('',#168,(#171,#178),.PCURVE_S1.);
#168 = B_SPLINE_CURVE_WITH_KNOTS('',1,(#169,#170),.UNSPECIFIED.,.F.,.F.,
  (2,2),(0.,1.),.PIECEWISE_BEZIER_KNOTS.);
#169 = CARTESIAN_POINT('',(1.95E+03,750.,229.02704173512));
#170 = CARTESIAN_POINT('',(1.95E+03,2.95E+03,538.21687808038));
#171 = PCURVE('',#56,#172);
#172 = DEFINITIONAL_REPRESENTATION('',(#173),#177);
#173 = LINE('',#174,#175);
#174 = CARTESIAN_POINT('',(0.,0.));
#175 = VECTOR('',#176,1.);
#176 = DIRECTION('',(0.,1.));
#177 = ( GEOMETRIC_REPRESENTATION_CONTEXT(2) 
PARAMETRIC_REPRESENTATION_CONTEXT() REPRESENTATION_CONTEXT('2D SPACE',''
  ) );
#178 = PCURVE('',#179,#184);
#179 = B_SPLINE_SURFACE_WITH_KNOTS('',1,1,(
    (#180,#181)
    ,(#182,#183
  )),.UNSPECIFIED.,.F.,.F.,.F.,(2,2),(2,2),(0.,10.),(0.,1.),
  .PIECEWISE_BEZIER_KNOTS.);
#180 = CARTESIAN_POINT('',(1.95E+03,750.,219.02704173512));
#181 = CARTESIAN_POINT('',(1.95E+03,2.95E+03,528.21687808038));
#182 = CARTESIAN_POINT('',(1.95E+03,750.,229.02704173512));
#183 = CARTESIAN_POINT('',(1.95E+03,2.95E+03,538.21687808038));
#184 = DEFINITIONAL_REPRESENTATION('',(#185),#189);
#185 = LINE('',#186,#187);
#186 = CARTESIAN_POINT('',(10.,0.));
#187 = VECTOR('',#188,1.);
#188 = DIRECTION('',(0.,1.));
#189 = ( GEOMETRIC_REPRESENTATION_CONTEXT(2) 
PARAMETRIC_REPRESENTATION_CONTEXT() REPRESENTATION_CONTEXT('2D SPACE',''
  ) );
#190 = ADVANCED_FACE('',(#191),#115,.T.);
#191 = FACE_BOUND('',#192,.T.);
#192 = EDGE_LOOP('',(#193,#216,#257,#278));
#193 = ORIENTED_EDGE('',*,*,#194,.T.);
#194 = EDGE_CURVE('',#42,#195,#197,.T.);
#195 = VERTEX_POINT('',#196);
#196 = CARTESIAN_POINT('',(4.334782608696E+03,750.,-210.23382783));
#197 = SURFACE_CURVE('',#198,(#202,#209),.PCURVE_S1.);
#198 = LINE('',#199,#200);
#199 = CARTESIAN_POINT('',(4.334782608696E+03,750.,-200.23382783));
#200 = VECTOR('',#201,1.);
#201 = DIRECTION('',(0.,0.,-1.));
#202 = PCURVE('',#115,#203);
#203 = DEFINITIONAL_REPRESENTATION('',(#204),#208);
#204 = LINE('',#205,#206);
#205 = CARTESIAN_POINT('',(0.,0.));
#206 = VECTOR('',#207,1.);
#207 = DIRECTION('',(1.,0.));
#208 = ( GEOMETRIC_REPRESENTATION_CONTEXT(2) 
PARAMETRIC_REPRESENTATION_CONTEXT() REPRESENTATION_CONTEXT('2D SPACE',''
  ) );
#209 = PCURVE('',#82,#210);
#210 = DEFINITIONAL_REPRESENTATION('',(#211),#215);
#211 = LINE('',#212,#213);
#212 = CARTESIAN_POINT('',(2.423088167249E+03,9.834562148017));
#213 = VECTOR('',#214,1.);
#214 = DIRECTION('',(0.181146000695,-0.983456214802));
#215 = ( GEOMETRIC_REPRESENTATION_CONTEXT(2) 
PARAMETRIC_REPRESENTATION_CONTEXT() REPRESENTATION_CONTEXT('2D SPACE',''
  ) );
#216 = ORIENTED_EDGE('',*,*,#217,.T.);
#217 = EDGE_CURVE('',#195,#218,#220,.T.);
#218 = VERTEX_POINT('',#219);
#219 = CARTESIAN_POINT('',(3.665217391304E+03,2.95E+03,219.47774764559)
  );
#220 = SURFACE_CURVE('',#221,(#224,#231),.PCURVE_S1.);
#221 = B_SPLINE_CURVE_WITH_KNOTS('',1,(#222,#223),.UNSPECIFIED.,.F.,.F.,
  (2,2),(0.,1.),.PIECEWISE_BEZIER_KNOTS.);
#222 = CARTESIAN_POINT('',(4.334782608696E+03,750.,-210.23382783));
#223 = CARTESIAN_POINT('',(3.665217391304E+03,2.95E+03,219.47774764559)
  );
#224 = PCURVE('',#115,#225);
#225 = DEFINITIONAL_REPRESENTATION('',(#226),#230);
#226 = LINE('',#227,#228);
#227 = CARTESIAN_POINT('',(10.,0.));
#228 = VECTOR('',#229,1.);
#229 = DIRECTION('',(0.,1.));
#230 = ( GEOMETRIC_REPRESENTATION_CONTEXT(2) 
PARAMETRIC_REPRESENTATION_CONTEXT() REPRESENTATION_CONTEXT('2D SPACE',''
  ) );
#231 = PCURVE('',#232,#251);
#232 = B_SPLINE_SURFACE_WITH_KNOTS('',3,1,(
    (#233,#234)
    ,(#235,#236)
    ,(#237,#238)
    ,(#239,#240)
    ,(#241,#242)
    ,(#243,#244)
    ,(#245,#246)
    ,(#247,#248)
    ,(#249,#250
    )),.UNSPECIFIED.,.F.,.F.,.F.,(4,1,1,1,1,1,4),(2,2),(0.,
    446.17266700539,892.34533401078,1.338518001016E+03,
    1.784690668022E+03,2.230863335027E+03,2.677036002032E+03),(0.,1.),
  .UNSPECIFIED.);
#233 = CARTESIAN_POINT('',(4.334782608696E+03,750.,-210.23382783));
#234 = CARTESIAN_POINT('',(3.665217391304E+03,2.95E+03,219.47774764559)
  );
#235 = CARTESIAN_POINT('',(4.248907867357E+03,750.,-88.05819823281));
#236 = CARTESIAN_POINT('',(3.603453333951E+03,2.95E+03,307.35064805786)
  );
#237 = CARTESIAN_POINT('',(4.044190322097E+03,750.,132.07074002424));
#238 = CARTESIAN_POINT('',(3.456213458646E+03,2.95E+03,465.67492543691)
  );
#239 = CARTESIAN_POINT('',(3.663615443936E+03,750.,374.35707651698));
#240 = CARTESIAN_POINT('',(3.182490961956E+03,2.95E+03,639.93556307845)
  );
#241 = CARTESIAN_POINT('',(3.233539573944E+03,750.,510.77588248923));
#242 = CARTESIAN_POINT('',(2.87316565528E+03,2.95E+03,738.05264412868));
#243 = CARTESIAN_POINT('',(2.782888487201E+03,750.,532.88792872914));
#244 = CARTESIAN_POINT('',(2.549041947495E+03,2.95E+03,753.95638568137)
  );
#245 = CARTESIAN_POINT('',(2.341715169451E+03,750.,438.51626750049));
#246 = CARTESIAN_POINT('',(2.231734976022E+03,2.95E+03,686.08105230908)
  );
#247 = CARTESIAN_POINT('',(2.073087588507E+03,750.,303.58945196025));
#248 = CARTESIAN_POINT('',(2.038528812518E+03,2.95E+03,589.03706191595)
  );
#249 = CARTESIAN_POINT('',(1.95E+03,750.,219.02704173512));
#250 = CARTESIAN_POINT('',(1.95E+03,2.95E+03,528.21687808038));
#251 = DEFINITIONAL_REPRESENTATION('',(#252),#256);
#252 = LINE('',#253,#254);
#253 = CARTESIAN_POINT('',(0.,0.));
#254 = VECTOR('',#255,1.);
#255 = DIRECTION('',(0.,1.));
#256 = ( GEOMETRIC_REPRESENTATION_CONTEXT(2) 
PARAMETRIC_REPRESENTATION_CONTEXT() REPRESENTATION_CONTEXT('2D SPACE',''
  ) );
#257 = ORIENTED_EDGE('',*,*,#258,.F.);
#258 = EDGE_CURVE('',#101,#218,#259,.T.);
#259 = SURFACE_CURVE('',#260,(#264,#271),.PCURVE_S1.);
#260 = LINE('',#261,#262);
#261 = CARTESIAN_POINT('',(3.665217391304E+03,2.95E+03,229.47774764559)
  );
#262 = VECTOR('',#263,1.);
#263 = DIRECTION('',(0.,0.,-1.));
#264 = PCURVE('',#115,#265);
#265 = DEFINITIONAL_REPRESENTATION('',(#266),#270);
#266 = LINE('',#267,#268);
#267 = CARTESIAN_POINT('',(0.,1.));
#268 = VECTOR('',#269,1.);
#269 = DIRECTION('',(1.,0.));
#270 = ( GEOMETRIC_REPRESENTATION_CONTEXT(2) 
PARAMETRIC_REPRESENTATION_CONTEXT() REPRESENTATION_CONTEXT('2D SPACE',''
  ) );
#271 = PCURVE('',#148,#272);
#272 = DEFINITIONAL_REPRESENTATION('',(#273),#277);
#273 = LINE('',#274,#275);
#274 = CARTESIAN_POINT('',(1.742754683858E+03,9.8316827715));
#275 = VECTOR('',#276,1.);
#276 = DIRECTION('',(0.182702322935,-0.98316827715));
#277 = ( GEOMETRIC_REPRESENTATION_CONTEXT(2) 
PARAMETRIC_REPRESENTATION_CONTEXT() REPRESENTATION_CONTEXT('2D SPACE',''
  ) );
#278 = ORIENTED_EDGE('',*,*,#100,.F.);
#279 = ADVANCED_FACE('',(#280),#232,.T.);
#280 = FACE_BOUND('',#281,.T.);
#281 = EDGE_LOOP('',(#282,#317,#339,#371));
#282 = ORIENTED_EDGE('',*,*,#283,.T.);
#283 = EDGE_CURVE('',#195,#284,#286,.T.);
#284 = VERTEX_POINT('',#285);
#285 = CARTESIAN_POINT('',(1.95E+03,750.,219.02704173512));
#286 = SURFACE_CURVE('',#287,(#297,#304),.PCURVE_S1.);
#287 = B_SPLINE_CURVE_WITH_KNOTS('',3,(#288,#289,#290,#291,#292,#293,
    #294,#295,#296),.UNSPECIFIED.,.F.,.F.,(4,1,1,1,1,1,4),(0.,
    446.17266700539,892.34533401078,1.338518001016E+03,
    1.784690668022E+03,2.230863335027E+03,2.677036002032E+03),
  .UNSPECIFIED.);
#288 = CARTESIAN_POINT('',(4.334782608696E+03,750.,-210.23382783));
#289 = CARTESIAN_POINT('',(4.248907867357E+03,750.,-88.05819823281));
#290 = CARTESIAN_POINT('',(4.044190322097E+03,750.,132.07074002424));
#291 = CARTESIAN_POINT('',(3.663615443936E+03,750.,374.35707651698));
#292 = CARTESIAN_POINT('',(3.233539573944E+03,750.,510.77588248923));
#293 = CARTESIAN_POINT('',(2.782888487201E+03,750.,532.88792872914));
#294 = CARTESIAN_POINT('',(2.341715169451E+03,750.,438.51626750049));
#295 = CARTESIAN_POINT('',(2.073087588507E+03,750.,303.58945196025));
#296 = CARTESIAN_POINT('',(1.95E+03,750.,219.02704173512));
#297 = PCURVE('',#232,#298);
#298 = DEFINITIONAL_REPRESENTATION('',(#299),#303);
#299 = LINE('',#300,#301);
#300 = CARTESIAN_POINT('',(0.,0.));
#301 = VECTOR('',#302,1.);
#302 = DIRECTION('',(1.,0.));
#303 = ( GEOMETRIC_REPRESENTATION_CONTEXT(2) 
PARAMETRIC_REPRESENTATION_CONTEXT() REPRESENTATION_CONTEXT('2D SPACE',''
  ) );
#304 = PCURVE('',#82,#305);
#305 = DEFINITIONAL_REPRESENTATION('',(#306),#316);
#306 = B_SPLINE_CURVE_WITH_KNOTS('',3,(#307,#308,#309,#310,#311,#312,
    #313,#314,#315),.UNSPECIFIED.,.F.,.F.,(4,1,1,1,1,1,4),(0.,
    446.17266700539,892.34533401078,1.338518001016E+03,
    1.784690668022E+03,2.230863335027E+03,2.677036002032E+03),
  .UNSPECIFIED.);
#307 = CARTESIAN_POINT('',(2.424899627256E+03,1.136868377216E-13));
#308 = CARTESIAN_POINT('',(2.318313952508E+03,104.59851627051));
#309 = CARTESIAN_POINT('',(2.077107733541E+03,284.001924061));
#310 = CARTESIAN_POINT('',(1.658939803537E+03,453.34031030234));
#311 = CARTESIAN_POINT('',(1.211267295236E+03,509.59570900708));
#312 = CARTESIAN_POINT('',(764.06617452828,449.70829623118));
#313 = CARTESIAN_POINT('',(347.28658239218,276.98111737065));
#314 = CARTESIAN_POINT('',(107.54457146734,95.625690119721));
#315 = CARTESIAN_POINT('',(1.811460006954,-9.834562148017));
#316 = ( GEOMETRIC_REPRESENTATION_CONTEXT(2) 
PARAMETRIC_REPRESENTATION_CONTEXT() REPRESENTATION_CONTEXT('2D SPACE',''
  ) );
#317 = ORIENTED_EDGE('',*,*,#318,.T.);
#318 = EDGE_CURVE('',#284,#319,#321,.T.);
#319 = VERTEX_POINT('',#320);
#320 = CARTESIAN_POINT('',(1.95E+03,2.95E+03,528.21687808038));
#321 = SURFACE_CURVE('',#322,(#325,#332),.PCURVE_S1.);
#322 = B_SPLINE_CURVE_WITH_KNOTS('',1,(#323,#324),.UNSPECIFIED.,.F.,.F.,
  (2,2),(0.,1.),.PIECEWISE_BEZIER_KNOTS.);
#323 = CARTESIAN_POINT('',(1.95E+03,750.,219.02704173512));
#324 = CARTESIAN_POINT('',(1.95E+03,2.95E+03,528.21687808038));
#325 = PCURVE('',#232,#326);
#326 = DEFINITIONAL_REPRESENTATION('',(#327),#331);
#327 = LINE('',#328,#329);
#328 = CARTESIAN_POINT('',(2.677036002032E+03,0.));
#329 = VECTOR('',#330,1.);
#330 = DIRECTION('',(0.,1.));
#331 = ( GEOMETRIC_REPRESENTATION_CONTEXT(2) 
PARAMETRIC_REPRESENTATION_CONTEXT() REPRESENTATION_CONTEXT('2D SPACE',''
  ) );
#332 = PCURVE('',#179,#333);
#333 = DEFINITIONAL_REPRESENTATION('',(#334),#338);
#334 = LINE('',#335,#336);
#335 = CARTESIAN_POINT('',(0.,0.));
#336 = VECTOR('',#337,1.);
#337 = DIRECTION('',(0.,1.));
#338 = ( GEOMETRIC_REPRESENTATION_CONTEXT(2) 
PARAMETRIC_REPRESENTATION_CONTEXT() REPRESENTATION_CONTEXT('2D SPACE',''
  ) );
#339 = ORIENTED_EDGE('',*,*,#340,.F.);
#340 = EDGE_CURVE('',#218,#319,#341,.T.);
#341 = SURFACE_CURVE('',#342,(#352,#358),.PCURVE_S1.);
#342 = B_SPLINE_CURVE_WITH_KNOTS('',3,(#343,#344,#345,#346,#347,#348,
    #349,#350,#351),.UNSPECIFIED.,.F.,.F.,(4,1,1,1,1,1,4),(0.,
    320.90267481062,641.80534962124,962.70802443186,1.283610699242E+03,
    1.604513374053E+03,1.925416048864E+03),.UNSPECIFIED.);
#343 = CARTESIAN_POINT('',(3.665217391304E+03,2.95E+03,219.47774764559)
  );
#344 = CARTESIAN_POINT('',(3.603453333951E+03,2.95E+03,307.35064805786)
  );
#345 = CARTESIAN_POINT('',(3.456213458646E+03,2.95E+03,465.67492543691)
  );
#346 = CARTESIAN_POINT('',(3.182490961956E+03,2.95E+03,639.93556307845)
  );
#347 = CARTESIAN_POINT('',(2.87316565528E+03,2.95E+03,738.05264412868));
#348 = CARTESIAN_POINT('',(2.549041947495E+03,2.95E+03,753.95638568137)
  );
#349 = CARTESIAN_POINT('',(2.231734976022E+03,2.95E+03,686.08105230908)
  );
#350 = CARTESIAN_POINT('',(2.038528812518E+03,2.95E+03,589.03706191595)
  );
#351 = CARTESIAN_POINT('',(1.95E+03,2.95E+03,528.21687808038));
#352 = PCURVE('',#232,#353);
#353 = DEFINITIONAL_REPRESENTATION('',(#354),#357);
#354 = B_SPLINE_CURVE_WITH_KNOTS('',1,(#355,#356),.UNSPECIFIED.,.F.,.F.,
  (2,2),(0.,1.925416048864E+03),.PIECEWISE_BEZIER_KNOTS.);
#355 = CARTESIAN_POINT('',(0.,1.));
#356 = CARTESIAN_POINT('',(2.677036002032E+03,1.));
#357 = ( GEOMETRIC_REPRESENTATION_CONTEXT(2) 
PARAMETRIC_REPRESENTATION_CONTEXT() REPRESENTATION_CONTEXT('2D SPACE',''
  ) );
#358 = PCURVE('',#148,#359);
#359 = DEFINITIONAL_REPRESENTATION('',(#360),#370);
#360 = B_SPLINE_CURVE_WITH_KNOTS('',3,(#361,#362,#363,#364,#365,#366,
    #367,#368,#369),.UNSPECIFIED.,.F.,.F.,(4,1,1,1,1,1,4),(0.,
    320.90267481062,641.80534962124,962.70802443186,1.283610699242E+03,
    1.604513374053E+03,1.925416048864E+03),.UNSPECIFIED.);
#361 = CARTESIAN_POINT('',(1.744581707087E+03,0.));
#362 = CARTESIAN_POINT('',(1.667802662201E+03,75.10941135423));
#363 = CARTESIAN_POINT('',(1.494114874415E+03,203.86775112896));
#364 = CARTESIAN_POINT('',(1.193161775634E+03,325.18554602922));
#365 = CARTESIAN_POINT('',(871.11672816318,365.13669549216));
#366 = CARTESIAN_POINT('',(549.54293027159,321.5545953441));
#367 = CARTESIAN_POINT('',(249.97776287839,196.84899999997));
#368 = CARTESIAN_POINT('',(77.753754442281,66.13921227971));
#369 = CARTESIAN_POINT('',(1.82702322935,-9.8316827715));
#370 = ( GEOMETRIC_REPRESENTATION_CONTEXT(2) 
PARAMETRIC_REPRESENTATION_CONTEXT() REPRESENTATION_CONTEXT('2D SPACE',''
  ) );
#371 = ORIENTED_EDGE('',*,*,#217,.F.);
#372 = ADVANCED_FACE('',(#373),#179,.T.);
#373 = FACE_BOUND('',#374,.T.);
#374 = EDGE_LOOP('',(#375,#396,#397,#418));
#375 = ORIENTED_EDGE('',*,*,#376,.T.);
#376 = EDGE_CURVE('',#284,#40,#377,.T.);
#377 = SURFACE_CURVE('',#378,(#382,#389),.PCURVE_S1.);
#378 = LINE('',#379,#380);
#379 = CARTESIAN_POINT('',(1.95E+03,750.,219.02704173512));
#380 = VECTOR('',#381,1.);
#381 = DIRECTION('',(0.,0.,1.));
#382 = PCURVE('',#179,#383);
#383 = DEFINITIONAL_REPRESENTATION('',(#384),#388);
#384 = LINE('',#385,#386);
#385 = CARTESIAN_POINT('',(0.,0.));
#386 = VECTOR('',#387,1.);
#387 = DIRECTION('',(1.,0.));
#388 = ( GEOMETRIC_REPRESENTATION_CONTEXT(2) 
PARAMETRIC_REPRESENTATION_CONTEXT() REPRESENTATION_CONTEXT('2D SPACE',''
  ) );
#389 = PCURVE('',#82,#390);
#390 = DEFINITIONAL_REPRESENTATION('',(#391),#395);
#391 = LINE('',#392,#393);
#392 = CARTESIAN_POINT('',(1.811460006954,-9.834562148017));
#393 = VECTOR('',#394,1.);
#394 = DIRECTION('',(-0.181146000695,0.983456214802));
#395 = ( GEOMETRIC_REPRESENTATION_CONTEXT(2) 
PARAMETRIC_REPRESENTATION_CONTEXT() REPRESENTATION_CONTEXT('2D SPACE',''
  ) );
#396 = ORIENTED_EDGE('',*,*,#166,.T.);
#397 = ORIENTED_EDGE('',*,*,#398,.F.);
#398 = EDGE_CURVE('',#319,#128,#399,.T.);
#399 = SURFACE_CURVE('',#400,(#404,#411),.PCURVE_S1.);
#400 = LINE('',#401,#402);
#401 = CARTESIAN_POINT('',(1.95E+03,2.95E+03,528.21687808038));
#402 = VECTOR('',#403,1.);
#403 = DIRECTION('',(0.,0.,1.));
#404 = PCURVE('',#179,#405);
#405 = DEFINITIONAL_REPRESENTATION('',(#406),#410);
#406 = LINE('',#407,#408);
#407 = CARTESIAN_POINT('',(0.,1.));
#408 = VECTOR('',#409,1.);
#409 = DIRECTION('',(1.,0.));
#410 = ( GEOMETRIC_REPRESENTATION_CONTEXT(2) 
PARAMETRIC_REPRESENTATION_CONTEXT() REPRESENTATION_CONTEXT('2D SPACE',''
  ) );
#411 = PCURVE('',#148,#412);
#412 = DEFINITIONAL_REPRESENTATION('',(#413),#417);
#413 = LINE('',#414,#415);
#414 = CARTESIAN_POINT('',(1.82702322935,-9.8316827715));
#415 = VECTOR('',#416,1.);
#416 = DIRECTION('',(-0.182702322935,0.98316827715));
#417 = ( GEOMETRIC_REPRESENTATION_CONTEXT(2) 
PARAMETRIC_REPRESENTATION_CONTEXT() REPRESENTATION_CONTEXT('2D SPACE',''
  ) );
#418 = ORIENTED_EDGE('',*,*,#318,.F.);
#419 = ADVANCED_FACE('',(#420),#82,.T.);
#420 = FACE_BOUND('',#421,.F.);
#421 = EDGE_LOOP('',(#422,#423,#424,#425));
#422 = ORIENTED_EDGE('',*,*,#39,.T.);
#423 = ORIENTED_EDGE('',*,*,#194,.T.);
#424 = ORIENTED_EDGE('',*,*,#283,.T.);
#425 = ORIENTED_EDGE('',*,*,#376,.T.);
#426 = ADVANCED_FACE('',(#427),#148,.F.);
#427 = FACE_BOUND('',#428,.T.);
#428 = EDGE_LOOP('',(#429,#430,#431,#432));
#429 = ORIENTED_EDGE('',*,*,#127,.T.);
#430 = ORIENTED_EDGE('',*,*,#258,.T.);
#431 = ORIENTED_EDGE('',*,*,#340,.T.);
#432 = ORIENTED_EDGE('',*,*,#398,.T.);
#433 = ( GEOMETRIC_REPRESENTATION_CONTEXT(3) 
GLOBAL_UNCERTAINTY_ASSIGNED_CONTEXT((#437)) GLOBAL_UNIT_ASSIGNED_CONTEXT
((#434,#435,#436)) REPRESENTATION_CONTEXT('Context #1',
  '3D Context with UNIT and UNCERTAINTY') );
#434 = ( LENGTH_UNIT() NAMED_UNIT(*) SI_UNIT(.MILLI.,.METRE.) );
#435 = ( NAMED_UNIT(*) PLANE_ANGLE_UNIT() SI_UNIT($,.RADIAN.) );
#436 = ( NAMED_UNIT(*) SI_UNIT($,.STERADIAN.) SOLID_ANGLE_UNIT() );
#437 = UNCERTAINTY_MEASURE_WITH_UNIT(LENGTH_MEASURE(1.E-07),#434,
  'distance_accuracy_value','confusion accuracy');
#438 = CONTEXT_DEPENDENT_SHAPE_REPRESENTATION(#439,#441);
#439 = ( REPRESENTATION_RELATIONSHIP('','',#32,#10) 
REPRESENTATION_RELATIONSHIP_WITH_TRANSFORMATION(#440) 
SHAPE_REPRESENTATION_RELATIONSHIP() );
#440 = ITEM_DEFINED_TRANSFORMATION('','',#11,#15);
#441 = PRODUCT_DEFINITION_SHAPE('Placement','Placement of an item',#442
  );
#442 = NEXT_ASSEMBLY_USAGE_OCCURRENCE('1','de-right-linen-inner.body','',#5,#27,$);
#443 = PRODUCT_RELATED_PRODUCT_CATEGORY('part',$,(#29));
ENDSEC;
END-ISO-10303-21;
