ISO-10303-21;
HEADER;
FILE_DESCRIPTION(('Open CASCADE Model'),'2;1');
FILE_NAME('Open CASCADE Shape Model','2026-01-01T00:00:00',('Author'),(
    'Open CASCADE'),'Open CASCADE STEP processor 7.9','Open CASCADE 7.9'
  ,'Unknown');
FILE_SCHEMA((
'AP242_MANAGED_MODEL_BASED_3D_ENGINEERING_MIM_LF {1 0 10303 442 1 1 4 }'
    ));
ENDSEC;
DATA;
#1 = APPLICATION_PROTOCOL_DEFINITION('international standard',
  'ap242_managed_model_based_3d_engineering',2013,#2);
#2 = APPLICATION_CONTEXT('Managed model based 3d engineering');
#3 = SHAPE_DEFINITION_REPRESENTATION(#4,#10);
#4 = PRODUCT_DEFINITION_SHAPE('','',#5);
#5 = PRODUCT_DEFINITION('design','',#6,#9);
#6 = PRODUCT_DEFINITION_FORMATION('','',#7);
#7 = PRODUCT('uk-left-access-ws3600','uk-left-access-ws3600','',(#8));
#8 = PRODUCT_CONTEXT('',#2,'mechanical');
#9 = PRODUCT_DEFINITION_CONTEXT('part definition',#2,'design');
#10 = SHAPE_REPRESENTATION('',(#11,#15),#19);
#11 = AXIS2_PLACEMENT_3D('',#12,#13,#14);
#12 = CARTESIAN_POINT('',(0.,0.,0.));
#13 = DIRECTION('',(0.,0.,1.));
#14 = DIRECTION('',(1.,0.,-0.));
#15 = AXIS2_PLACEMENT_3D('',#16,#17,#18);
#16 = CARTESIAN_POINT('',(0.,0.,0.));
#17 = DIRECTION('',(0.,0.,1.));
#18 = DIRECTION('',(1.,0.,-0.));
#19 = ( GEOMETRIC_REPRESENTATION_CONTEXT(3) 
GLOBAL_UNCERTAINTY_ASSIGNED_CONTEXT((#23)) GLOBAL_UNIT_ASSIGNED_CONTEXT(
(#20,#21,#22)) REPRESENTATION_CONTEXT('Context #1',
  '3D Context with UNIT and UNCERTAINTY') );
#20 = ( LENGTH_UNIT() NAMED_UNIT(*) SI_UNIT(.MILLI.,.METRE.) );
#21 = ( NAMED_UNIT(*) PLANE_ANGLE_UNIT() SI_UNIT($,.RADIAN.) );
#22 = ( NAMED_UNIT(*) SI_UNIT($,.STERADIAN.) SOLID_ANGLE_UNIT() );
#23 = UNCERTAINTY_MEASURE_WITH_UNIT(LENGTH_MEASURE(1.E-07),#20,
  'distance_accuracy_value','confusion accuracy');
#24 = PRODUCT_RELATED_PRODUCT_CATEGORY('part',$,(#7));
#25 = SHAPE_DEFINITION_REPRESENTATION(#26,#32);
#26 = PRODUCT_DEFINITION_SHAPE('','',#27);
#27 = PRODUCT_DEFINITION('design','',#28,#31);
#28 = PRODUCT_DEFINITION_FORMATION('','',#29);
#29 = PRODUCT('uk-left-access-ws3600.body','uk-left-access-ws3600.body',
  '',(#30));
#30 = PRODUCT_CONTEXT('',#2,'mechanical');
#31 = PRODUCT_DEFINITION_CONTEXT('part definition',#2,'design');
#32 = SHAPE_REPRESENTATION('',(#11,#33,#453),#551);
#33 = MANIFOLD_SOLID_BREP('',#34);
#34 = CLOSED_SHELL('',(#35,#200,#299,#392,#439,#446));
#35 = ADVANCED_FACE('',(#36),#56,.F.);
#36 = FACE_BOUND('',#37,.F.);
#37 = EDGE_LOOP('',(#38,#108,#135,#175));
#38 = ORIENTED_EDGE('',*,*,#39,.T.);
#39 = EDGE_CURVE('',#40,#42,#44,.T.);
#40 = VERTEX_POINT('',#41);
#41 = CARTESIAN_POINT('',(2.227533937002E+03,-3.52E+03,719.30186192292)
  );
#42 = VERTEX_POINT('',#43);
#43 = CARTESIAN_POINT('',(2.427533937002E+03,-3.52E+03,784.48167678164)
  );
#44 = SURFACE_CURVE('',#45,(#55,#90),.PCURVE_S1.);
#45 = B_SPLINE_CURVE_WITH_KNOTS('',3,(#46,#47,#48,#49,#50,#51,#52,#53,
    #54),.UNSPECIFIED.,.F.,.F.,(4,1,1,1,1,1,4),(0.,36.15074830394,
    71.812405428009,107.04600689288,141.9051899118,176.43816322353,
    210.68919214879),.UNSPECIFIED.);
#46 = CARTESIAN_POINT('',(2.227533937002E+03,-3.52E+03,719.30186192292)
  );
#47 = CARTESIAN_POINT('',(2.238563684098E+03,-3.52E+03,724.15669810296)
  );
#48 = CARTESIAN_POINT('',(2.260640217373E+03,-3.52E+03,733.42225950984)
  );
#49 = CARTESIAN_POINT('',(2.293999387868E+03,-3.52E+03,746.10515368946)
  );
#50 = CARTESIAN_POINT('',(2.32735588315E+03,-3.52E+03,757.52729740026));
#51 = CARTESIAN_POINT('',(2.360710565116E+03,-3.52E+03,767.7343357911));
#52 = CARTESIAN_POINT('',(2.394063968426E+03,-3.52E+03,776.76293120957)
  );
#53 = CARTESIAN_POINT('',(2.416381456414E+03,-3.52E+03,782.03592190526)
  );
#54 = CARTESIAN_POINT('',(2.427533937002E+03,-3.52E+03,784.48167678164)
  );
#55 = PCURVE('',#56,#85);
#56 = B_SPLINE_SURFACE_WITH_KNOTS('',3,1,(
    (#57,#58)
    ,(#59,#60)
    ,(#61,#62)
    ,(#63,#64)
    ,(#65,#66)
    ,(#67,#68)
    ,(#69,#70)
    ,(#71,#72)
    ,(#73,#74)
    ,(#75,#76)
    ,(#77,#78)
    ,(#79,#80)
    ,(#81,#82)
    ,(#83,#84
    )),.UNSPECIFIED.,.F.,.F.,.F.,(4,1,1,1,1,1,1,1,1,1,1,4),(2,2),(0.,
    36.419230518525,36.573886595676,72.345737504066,72.577840454134,
    107.84100977225,108.08645695407,142.95908288597,143.16484379509,
    177.74852361777,177.8701208122,212.25392603539),(0.,1.),
  .UNSPECIFIED.);
#57 = CARTESIAN_POINT('',(2.227533937002E+03,-3.52E+03,719.30186192292)
  );
#58 = CARTESIAN_POINT('',(2.227533937002E+03,-3.68E+03,731.09680942757)
  );
#59 = CARTESIAN_POINT('',(2.238563684098E+03,-3.52E+03,724.15669810296)
  );
#60 = CARTESIAN_POINT('',(2.238504383813E+03,-3.68E+03,736.29702135781)
  );
#61 = CARTESIAN_POINT('',(2.249724322614E+03,-3.52E+03,728.84083850752)
  );
#62 = CARTESIAN_POINT('',(2.249617823465E+03,-3.68E+03,741.31546390075)
  );
#63 = CARTESIAN_POINT('',(2.271953858827E+03,-3.52E+03,737.72361698424)
  );
#64 = CARTESIAN_POINT('',(2.271776323544E+03,-3.68E+03,750.83430089517)
  );
#65 = CARTESIAN_POINT('',(2.283139333848E+03,-3.52E+03,741.97532079433)
  );
#66 = CARTESIAN_POINT('',(2.282937251662E+03,-3.68E+03,755.39152797254)
  );
#67 = CARTESIAN_POINT('',(2.305320264281E+03,-3.52E+03,749.981720344));
#68 = CARTESIAN_POINT('',(2.305089398851E+03,-3.68E+03,763.97504026942)
  );
#69 = CARTESIAN_POINT('',(2.316510698393E+03,-3.52E+03,753.81226649354)
  );
#70 = CARTESIAN_POINT('',(2.316275078779E+03,-3.68E+03,768.08262136691)
  );
#71 = CARTESIAN_POINT('',(2.338666023749E+03,-3.52E+03,760.98837190306)
  );
#72 = CARTESIAN_POINT('',(2.338437935759E+03,-3.68E+03,775.78036647538)
  );
#73 = CARTESIAN_POINT('',(2.349844611629E+03,-3.52E+03,764.40778997487)
  );
#74 = CARTESIAN_POINT('',(2.349628681252E+03,-3.68E+03,779.44973027112)
  );
#75 = CARTESIAN_POINT('',(2.371994323149E+03,-3.52E+03,770.78879128794)
  );
#76 = CARTESIAN_POINT('',(2.371817206354E+03,-3.68E+03,786.29981397061)
  );
#77 = CARTESIAN_POINT('',(2.383146491059E+03,-3.52E+03,773.80647674758)
  );
#78 = CARTESIAN_POINT('',(2.382996195395E+03,-3.68E+03,789.54073134809)
  );
#79 = CARTESIAN_POINT('',(2.405307614189E+03,-3.52E+03,779.41948644219)
  );
#80 = CARTESIAN_POINT('',(2.405223347787E+03,-3.68E+03,795.5716833181));
#81 = CARTESIAN_POINT('',(2.416420757806E+03,-3.52E+03,782.04454075653)
  );
#82 = CARTESIAN_POINT('',(2.41637589631E+03,-3.68E+03,798.39363601883));
#83 = CARTESIAN_POINT('',(2.427533937002E+03,-3.52E+03,784.48167678164)
  );
#84 = CARTESIAN_POINT('',(2.427533937002E+03,-3.68E+03,801.01500431751)
  );
#85 = DEFINITIONAL_REPRESENTATION('',(#86),#89);
#86 = B_SPLINE_CURVE_WITH_KNOTS('',1,(#87,#88),.UNSPECIFIED.,.F.,.F.,(2,
    2),(0.,210.68919214879),.PIECEWISE_BEZIER_KNOTS.);
#87 = CARTESIAN_POINT('',(0.,0.));
#88 = CARTESIAN_POINT('',(212.25392603539,0.));
#89 = ( GEOMETRIC_REPRESENTATION_CONTEXT(2) 
PARAMETRIC_REPRESENTATION_CONTEXT() REPRESENTATION_CONTEXT('2D SPACE',''
  ) );
#90 = PCURVE('',#91,#96);
#91 = PLANE('',#92);
#92 = AXIS2_PLACEMENT_3D('',#93,#94,#95);
#93 = CARTESIAN_POINT('',(2.227533937002E+03,-3.52E+03,719.30186192292)
  );
#94 = DIRECTION('',(2.698250611957E-14,-1.,-8.279405573046E-14));
#95 = DIRECTION('',(0.950782477731,-1.129098389838E-30,0.309859129347));
#96 = DEFINITIONAL_REPRESENTATION('',(#97),#107);
#97 = B_SPLINE_CURVE_WITH_KNOTS('',3,(#98,#99,#100,#101,#102,#103,#104,
    #105,#106),.UNSPECIFIED.,.F.,.F.,(4,1,1,1,1,1,4),(0.,36.15074830394,
    71.812405428009,107.04600689288,141.9051899118,176.43816322353,
    210.68919214879),.UNSPECIFIED.);
#98 = CARTESIAN_POINT('',(0.,0.));
#99 = CARTESIAN_POINT('',(11.991205584869,1.198225340051));
#100 = CARTESIAN_POINT('',(35.852205382316,3.167143392432));
#101 = CARTESIAN_POINT('',(71.499430708572,4.889173420051));
#102 = CARTESIAN_POINT('',(106.75345744619,5.413332932426));
#103 = CARTESIAN_POINT('',(141.6292486393,4.782753470146));
#104 = CARTESIAN_POINT('',(176.1386727949,3.032127282096));
#105 = CARTESIAN_POINT('',(198.99163362653,1.130317043741));
#106 = CARTESIAN_POINT('',(210.35305622932,-7.016609515631E-14));
#107 = ( GEOMETRIC_REPRESENTATION_CONTEXT(2) 
PARAMETRIC_REPRESENTATION_CONTEXT() REPRESENTATION_CONTEXT('2D SPACE',''
  ) );
#108 = ORIENTED_EDGE('',*,*,#109,.T.);
#109 = EDGE_CURVE('',#42,#110,#112,.T.);
#110 = VERTEX_POINT('',#111);
#111 = CARTESIAN_POINT('',(2.427533937002E+03,-3.68E+03,801.01500431751)
  );
#112 = SURFACE_CURVE('',#113,(#116,#123),.PCURVE_S1.);
#113 = B_SPLINE_CURVE_WITH_KNOTS('',1,(#114,#115),.UNSPECIFIED.,.F.,.F.,
  (2,2),(0.,1.),.PIECEWISE_BEZIER_KNOTS.);
#114 = CARTESIAN_POINT('',(2.427533937002E+03,-3.52E+03,784.48167678164)
  );
#115 = CARTESIAN_POINT('',(2.427533937002E+03,-3.68E+03,801.01500431751)
  );
#116 = PCURVE('',#56,#117);
#117 = DEFINITIONAL_REPRESENTATION('',(#118),#122);
#118 = LINE('',#119,#120);
#119 = CARTESIAN_POINT('',(212.25392603539,0.));
#120 = VECTOR('',#121,1.);
#121 = DIRECTION('',(0.,1.));
#122 = ( GEOMETRIC_REPRESENTATION_CONTEXT(2) 
PARAMETRIC_REPRESENTATION_CONTEXT() REPRESENTATION_CONTEXT('2D SPACE',''
  ) );
#123 = PCURVE('',#124,#129);
#124 = B_SPLINE_SURFACE_WITH_KNOTS('',1,1,(
    (#125,#126)
    ,(#127,#128)),.UNSPECIFIED.,.F.,.F.,.F.,(2,2),(2,2),(0.,4.),(0.,1.),
  .PIECEWISE_BEZIER_KNOTS.);
#125 = CARTESIAN_POINT('',(2.427533937002E+03,-3.52E+03,784.48167678164)
  );
#126 = CARTESIAN_POINT('',(2.427533937002E+03,-3.68E+03,801.01500431751)
  );
#127 = CARTESIAN_POINT('',(2.427533937002E+03,-3.52E+03,780.48167678164)
  );
#128 = CARTESIAN_POINT('',(2.427533937002E+03,-3.68E+03,797.01500431751)
  );
#129 = DEFINITIONAL_REPRESENTATION('',(#130),#134);
#130 = LINE('',#131,#132);
#131 = CARTESIAN_POINT('',(0.,0.));
#132 = VECTOR('',#133,1.);
#133 = DIRECTION('',(0.,1.));
#134 = ( GEOMETRIC_REPRESENTATION_CONTEXT(2) 
PARAMETRIC_REPRESENTATION_CONTEXT() REPRESENTATION_CONTEXT('2D SPACE',''
  ) );
#135 = ORIENTED_EDGE('',*,*,#136,.F.);
#136 = EDGE_CURVE('',#137,#110,#139,.T.);
#137 = VERTEX_POINT('',#138);
#138 = CARTESIAN_POINT('',(2.227533937002E+03,-3.68E+03,731.09680942757)
  );
#139 = SURFACE_CURVE('',#140,(#150,#157),.PCURVE_S1.);
#140 = B_SPLINE_CURVE_WITH_KNOTS('',3,(#141,#142,#143,#144,#145,#146,
    #147,#148,#149),.UNSPECIFIED.,.F.,.F.,(4,1,1,1,1,1,4),(0.,
    36.573886595676,72.577840454134,108.08645695407,143.16484379509,
    177.8701208122,212.25392603539),.UNSPECIFIED.);
#141 = CARTESIAN_POINT('',(2.227533937002E+03,-3.68E+03,731.09680942757)
  );
#142 = CARTESIAN_POINT('',(2.238550970362E+03,-3.68E+03,736.31910431689)
  );
#143 = CARTESIAN_POINT('',(2.260605480779E+03,-3.68E+03,746.27606890857)
  );
#144 = CARTESIAN_POINT('',(2.293969740727E+03,-3.68E+03,759.89480731288)
  );
#145 = CARTESIAN_POINT('',(2.327330808603E+03,-3.68E+03,772.14094407958)
  );
#146 = CARTESIAN_POINT('',(2.36068904124E+03,-3.68E+03,783.07508985716)
  );
#147 = CARTESIAN_POINT('',(2.394045499094E+03,-3.68E+03,792.74332886231)
  );
#148 = CARTESIAN_POINT('',(2.41637589631E+03,-3.68E+03,798.39363601883)
  );
#149 = CARTESIAN_POINT('',(2.427533937002E+03,-3.68E+03,801.01500431751)
  );
#150 = PCURVE('',#56,#151);
#151 = DEFINITIONAL_REPRESENTATION('',(#152),#156);
#152 = LINE('',#153,#154);
#153 = CARTESIAN_POINT('',(0.,1.));
#154 = VECTOR('',#155,1.);
#155 = DIRECTION('',(1.,0.));
#156 = ( GEOMETRIC_REPRESENTATION_CONTEXT(2) 
PARAMETRIC_REPRESENTATION_CONTEXT() REPRESENTATION_CONTEXT('2D SPACE',''
  ) );
#157 = PCURVE('',#158,#163);
#158 = PLANE('',#159);
#159 = AXIS2_PLACEMENT_3D('',#160,#161,#162);
#160 = CARTESIAN_POINT('',(2.227533937002E+03,-3.68E+03,731.09680942757)
  );
#161 = DIRECTION('',(0.,-1.,0.));
#162 = DIRECTION('',(0.943978684771,0.,0.330006428269));
#163 = DEFINITIONAL_REPRESENTATION('',(#164),#174);
#164 = B_SPLINE_CURVE_WITH_KNOTS('',3,(#165,#166,#167,#168,#169,#170,
    #171,#172,#173),.UNSPECIFIED.,.F.,.F.,(4,1,1,1,1,1,4),(0.,
    36.573886595676,72.577840454134,108.08645695407,143.16484379509,
    177.8701208122,212.25392603539),.UNSPECIFIED.);
#165 = CARTESIAN_POINT('',(0.,0.));
#166 = CARTESIAN_POINT('',(12.123235545153,1.294043231819));
#167 = CARTESIAN_POINT('',(36.2280856026,3.415075361634));
#168 = CARTESIAN_POINT('',(72.217507045447,5.260453871348));
#169 = CARTESIAN_POINT('',(107.75094787641,5.811179096786));
#170 = CARTESIAN_POINT('',(142.8487468412,5.124348441228));
#171 = CARTESIAN_POINT('',(177.52711307659,3.243114465254));
#172 = CARTESIAN_POINT('',(200.4711697544,1.207709356308));
#173 = CARTESIAN_POINT('',(211.86919072075,5.684341886081E-14));
#174 = ( GEOMETRIC_REPRESENTATION_CONTEXT(2) 
PARAMETRIC_REPRESENTATION_CONTEXT() REPRESENTATION_CONTEXT('2D SPACE',''
  ) );
#175 = ORIENTED_EDGE('',*,*,#176,.F.);
#176 = EDGE_CURVE('',#40,#137,#177,.T.);
#177 = SURFACE_CURVE('',#178,(#181,#188),.PCURVE_S1.);
#178 = B_SPLINE_CURVE_WITH_KNOTS('',1,(#179,#180),.UNSPECIFIED.,.F.,.F.,
  (2,2),(0.,1.),.PIECEWISE_BEZIER_KNOTS.);
#179 = CARTESIAN_POINT('',(2.227533937002E+03,-3.52E+03,719.30186192292)
  );
#180 = CARTESIAN_POINT('',(2.227533937002E+03,-3.68E+03,731.09680942757)
  );
#181 = PCURVE('',#56,#182);
#182 = DEFINITIONAL_REPRESENTATION('',(#183),#187);
#183 = LINE('',#184,#185);
#184 = CARTESIAN_POINT('',(0.,0.));
#185 = VECTOR('',#186,1.);
#186 = DIRECTION('',(0.,1.));
#187 = ( GEOMETRIC_REPRESENTATION_CONTEXT(2) 
PARAMETRIC_REPRESENTATION_CONTEXT() REPRESENTATION_CONTEXT('2D SPACE',''
  ) );
#188 = PCURVE('',#189,#194);
#189 = B_SPLINE_SURFACE_WITH_KNOTS('',1,1,(
    (#190,#191)
    ,(#192,#193)),.UNSPECIFIED.,.F.,.F.,.F.,(2,2),(2,2),(0.,4.),(0.,1.),
  .PIECEWISE_BEZIER_KNOTS.);
#190 = CARTESIAN_POINT('',(2.227533937002E+03,-3.52E+03,715.30186192292)
  );
#191 = CARTESIAN_POINT('',(2.227533937002E+03,-3.68E+03,727.09680942757)
  );
#192 = CARTESIAN_POINT('',(2.227533937002E+03,-3.52E+03,719.30186192292)
  );
#193 = CARTESIAN_POINT('',(2.227533937002E+03,-3.68E+03,731.09680942757)
  );
#194 = DEFINITIONAL_REPRESENTATION('',(#195),#199);
#195 = LINE('',#196,#197);
#196 = CARTESIAN_POINT('',(4.,0.));
#197 = VECTOR('',#198,1.);
#198 = DIRECTION('',(0.,1.));
#199 = ( GEOMETRIC_REPRESENTATION_CONTEXT(2) 
PARAMETRIC_REPRESENTATION_CONTEXT() REPRESENTATION_CONTEXT('2D SPACE',''
  ) );
#200 = ADVANCED_FACE('',(#201),#124,.F.);
#201 = FACE_BOUND('',#202,.F.);
#202 = EDGE_LOOP('',(#203,#226,#277,#298));
#203 = ORIENTED_EDGE('',*,*,#204,.T.);
#204 = EDGE_CURVE('',#42,#205,#207,.T.);
#205 = VERTEX_POINT('',#206);
#206 = CARTESIAN_POINT('',(2.427533937002E+03,-3.52E+03,780.48167678164)
  );
#207 = SURFACE_CURVE('',#208,(#212,#219),.PCURVE_S1.);
#208 = LINE('',#209,#210);
#209 = CARTESIAN_POINT('',(2.427533937002E+03,-3.52E+03,784.48167678164)
  );
#210 = VECTOR('',#211,1.);
#211 = DIRECTION('',(0.,0.,-1.));
#212 = PCURVE('',#124,#213);
#213 = DEFINITIONAL_REPRESENTATION('',(#214),#218);
#214 = LINE('',#215,#216);
#215 = CARTESIAN_POINT('',(0.,0.));
#216 = VECTOR('',#217,1.);
#217 = DIRECTION('',(1.,0.));
#218 = ( GEOMETRIC_REPRESENTATION_CONTEXT(2) 
PARAMETRIC_REPRESENTATION_CONTEXT() REPRESENTATION_CONTEXT('2D SPACE',''
  ) );
#219 = PCURVE('',#91,#220);
#220 = DEFINITIONAL_REPRESENTATION('',(#221),#225);
#221 = LINE('',#222,#223);
#222 = CARTESIAN_POINT('',(210.35305622932,7.524896058419E-15));
#223 = VECTOR('',#224,1.);
#224 = DIRECTION('',(-0.309859129347,-0.950782477731));
#225 = ( GEOMETRIC_REPRESENTATION_CONTEXT(2) 
PARAMETRIC_REPRESENTATION_CONTEXT() REPRESENTATION_CONTEXT('2D SPACE',''
  ) );
#226 = ORIENTED_EDGE('',*,*,#227,.T.);
#227 = EDGE_CURVE('',#205,#228,#230,.T.);
#228 = VERTEX_POINT('',#229);
#229 = CARTESIAN_POINT('',(2.427533937002E+03,-3.68E+03,797.01500431751)
  );
#230 = SURFACE_CURVE('',#231,(#234,#241),.PCURVE_S1.);
#231 = B_SPLINE_CURVE_WITH_KNOTS('',1,(#232,#233),.UNSPECIFIED.,.F.,.F.,
  (2,2),(0.,1.),.PIECEWISE_BEZIER_KNOTS.);
#232 = CARTESIAN_POINT('',(2.427533937002E+03,-3.52E+03,780.48167678164)
  );
#233 = CARTESIAN_POINT('',(2.427533937002E+03,-3.68E+03,797.01500431751)
  );
#234 = PCURVE('',#124,#235);
#235 = DEFINITIONAL_REPRESENTATION('',(#236),#240);
#236 = LINE('',#237,#238);
#237 = CARTESIAN_POINT('',(4.,0.));
#238 = VECTOR('',#239,1.);
#239 = DIRECTION('',(0.,1.));
#240 = ( GEOMETRIC_REPRESENTATION_CONTEXT(2) 
PARAMETRIC_REPRESENTATION_CONTEXT() REPRESENTATION_CONTEXT('2D SPACE',''
  ) );
#241 = PCURVE('',#242,#271);
#242 = B_SPLINE_SURFACE_WITH_KNOTS('',3,1,(
    (#243,#244)
    ,(#245,#246)
    ,(#247,#248)
    ,(#249,#250)
    ,(#251,#252)
    ,(#253,#254)
    ,(#255,#256)
    ,(#257,#258)
    ,(#259,#260)
    ,(#261,#262)
    ,(#263,#264)
    ,(#265,#266)
    ,(#267,#268)
    ,(#269,#270
    )),.UNSPECIFIED.,.F.,.F.,.F.,(4,1,1,1,1,1,1,1,1,1,1,4),(2,2),(0.,
    34.383805223191,34.50540241762,69.089082240297,69.294843149415,
    104.16746908132,104.41291626313,139.67608558125,139.90818853132,
    175.68003943971,175.83469551686,212.25392603539),(0.,1.),
  .UNSPECIFIED.);
#243 = CARTESIAN_POINT('',(2.427533937002E+03,-3.52E+03,780.48167678164)
  );
#244 = CARTESIAN_POINT('',(2.427533937002E+03,-3.68E+03,797.01500431751)
  );
#245 = CARTESIAN_POINT('',(2.416420757806E+03,-3.52E+03,778.04454075653)
  );
#246 = CARTESIAN_POINT('',(2.41637589631E+03,-3.68E+03,794.39363601883)
  );
#247 = CARTESIAN_POINT('',(2.405307614189E+03,-3.52E+03,775.41948644219)
  );
#248 = CARTESIAN_POINT('',(2.405223347787E+03,-3.68E+03,791.5716833181)
  );
#249 = CARTESIAN_POINT('',(2.383146491059E+03,-3.52E+03,769.80647674758)
  );
#250 = CARTESIAN_POINT('',(2.382996195395E+03,-3.68E+03,785.54073134809)
  );
#251 = CARTESIAN_POINT('',(2.371994323149E+03,-3.52E+03,766.78879128794)
  );
#252 = CARTESIAN_POINT('',(2.371817206354E+03,-3.68E+03,782.29981397061)
  );
#253 = CARTESIAN_POINT('',(2.349844611629E+03,-3.52E+03,760.40778997487)
  );
#254 = CARTESIAN_POINT('',(2.349628681252E+03,-3.68E+03,775.44973027112)
  );
#255 = CARTESIAN_POINT('',(2.338666023749E+03,-3.52E+03,756.98837190306)
  );
#256 = CARTESIAN_POINT('',(2.338437935759E+03,-3.68E+03,771.78036647538)
  );
#257 = CARTESIAN_POINT('',(2.316510698393E+03,-3.52E+03,749.81226649354)
  );
#258 = CARTESIAN_POINT('',(2.316275078779E+03,-3.68E+03,764.08262136691)
  );
#259 = CARTESIAN_POINT('',(2.305320264281E+03,-3.52E+03,745.981720344));
#260 = CARTESIAN_POINT('',(2.305089398851E+03,-3.68E+03,759.97504026942)
  );
#261 = CARTESIAN_POINT('',(2.283139333848E+03,-3.52E+03,737.97532079433)
  );
#262 = CARTESIAN_POINT('',(2.282937251662E+03,-3.68E+03,751.39152797254)
  );
#263 = CARTESIAN_POINT('',(2.271953858827E+03,-3.52E+03,733.72361698424)
  );
#264 = CARTESIAN_POINT('',(2.271776323544E+03,-3.68E+03,746.83430089517)
  );
#265 = CARTESIAN_POINT('',(2.249724322614E+03,-3.52E+03,724.84083850752)
  );
#266 = CARTESIAN_POINT('',(2.249617823465E+03,-3.68E+03,737.31546390075)
  );
#267 = CARTESIAN_POINT('',(2.238563684098E+03,-3.52E+03,720.15669810296)
  );
#268 = CARTESIAN_POINT('',(2.238504383813E+03,-3.68E+03,732.29702135781)
  );
#269 = CARTESIAN_POINT('',(2.227533937002E+03,-3.52E+03,715.30186192292)
  );
#270 = CARTESIAN_POINT('',(2.227533937002E+03,-3.68E+03,727.09680942757)
  );
#271 = DEFINITIONAL_REPRESENTATION('',(#272),#276);
#272 = LINE('',#273,#274);
#273 = CARTESIAN_POINT('',(0.,0.));
#274 = VECTOR('',#275,1.);
#275 = DIRECTION('',(0.,1.));
#276 = ( GEOMETRIC_REPRESENTATION_CONTEXT(2) 
PARAMETRIC_REPRESENTATION_CONTEXT() REPRESENTATION_CONTEXT('2D SPACE',''
  ) );
#277 = ORIENTED_EDGE('',*,*,#278,.F.);
#278 = EDGE_CURVE('',#110,#228,#279,.T.);
#279 = SURFACE_CURVE('',#280,(#284,#291),.PCURVE_S1.);
#280 = LINE('',#281,#282);
#281 = CARTESIAN_POINT('',(2.427533937002E+03,-3.68E+03,801.01500431751)
  );
#282 = VECTOR('',#283,1.);
#283 = DIRECTION('',(0.,0.,-1.));
#284 = PCURVE('',#124,#285);
#285 = DEFINITIONAL_REPRESENTATION('',(#286),#290);
#286 = LINE('',#287,#288);
#287 = CARTESIAN_POINT('',(0.,1.));
#288 = VECTOR('',#289,1.);
#289 = DIRECTION('',(1.,0.));
#290 = ( GEOMETRIC_REPRESENTATION_CONTEXT(2) 
PARAMETRIC_REPRESENTATION_CONTEXT() REPRESENTATION_CONTEXT('2D SPACE',''
  ) );
#291 = PCURVE('',#158,#292);
#292 = DEFINITIONAL_REPRESENTATION('',(#293),#297);
#293 = LINE('',#294,#295);
#294 = CARTESIAN_POINT('',(211.86919072075,6.656570141871E-16));
#295 = VECTOR('',#296,1.);
#296 = DIRECTION('',(-0.330006428269,-0.943978684771));
#297 = ( GEOMETRIC_REPRESENTATION_CONTEXT(2) 
PARAMETRIC_REPRESENTATION_CONTEXT() REPRESENTATION_CONTEXT('2D SPACE',''
  ) );
#298 = ORIENTED_EDGE('',*,*,#109,.F.);
#299 = ADVANCED_FACE('',(#300),#242,.F.);
#300 = FACE_BOUND('',#301,.F.);
#301 = EDGE_LOOP('',(#302,#336,#358,#391));
#302 = ORIENTED_EDGE('',*,*,#303,.T.);
#303 = EDGE_CURVE('',#205,#304,#306,.T.);
#304 = VERTEX_POINT('',#305);
#305 = CARTESIAN_POINT('',(2.227533937002E+03,-3.52E+03,715.30186192292)
  );
#306 = SURFACE_CURVE('',#307,(#317,#323),.PCURVE_S1.);
#307 = B_SPLINE_CURVE_WITH_KNOTS('',3,(#308,#309,#310,#311,#312,#313,
    #314,#315,#316),.UNSPECIFIED.,.F.,.F.,(4,1,1,1,1,1,4),(0.,
    34.251028925255,68.784002236985,103.6431852559,138.87678672078,
    174.53844384485,210.68919214879),.UNSPECIFIED.);
#308 = CARTESIAN_POINT('',(2.427533937002E+03,-3.52E+03,780.48167678164)
  );
#309 = CARTESIAN_POINT('',(2.416381456414E+03,-3.52E+03,778.03592190526)
  );
#310 = CARTESIAN_POINT('',(2.394063968426E+03,-3.52E+03,772.76293120957)
  );
#311 = CARTESIAN_POINT('',(2.360710565116E+03,-3.52E+03,763.7343357911)
  );
#312 = CARTESIAN_POINT('',(2.32735588315E+03,-3.52E+03,753.52729740026)
  );
#313 = CARTESIAN_POINT('',(2.293999387868E+03,-3.52E+03,742.10515368946)
  );
#314 = CARTESIAN_POINT('',(2.260640217373E+03,-3.52E+03,729.42225950984)
  );
#315 = CARTESIAN_POINT('',(2.238563684098E+03,-3.52E+03,720.15669810296)
  );
#316 = CARTESIAN_POINT('',(2.227533937002E+03,-3.52E+03,715.30186192292)
  );
#317 = PCURVE('',#242,#318);
#318 = DEFINITIONAL_REPRESENTATION('',(#319),#322);
#319 = B_SPLINE_CURVE_WITH_KNOTS('',1,(#320,#321),.UNSPECIFIED.,.F.,.F.,
  (2,2),(0.,210.68919214879),.PIECEWISE_BEZIER_KNOTS.);
#320 = CARTESIAN_POINT('',(0.,0.));
#321 = CARTESIAN_POINT('',(212.25392603539,0.));
#322 = ( GEOMETRIC_REPRESENTATION_CONTEXT(2) 
PARAMETRIC_REPRESENTATION_CONTEXT() REPRESENTATION_CONTEXT('2D SPACE',''
  ) );
#323 = PCURVE('',#91,#324);
#324 = DEFINITIONAL_REPRESENTATION('',(#325),#335);
#325 = B_SPLINE_CURVE_WITH_KNOTS('',3,(#326,#327,#328,#329,#330,#331,
    #332,#333,#334),.UNSPECIFIED.,.F.,.F.,(4,1,1,1,1,1,4),(0.,
    34.251028925255,68.784002236985,103.6431852559,138.87678672078,
    174.53844384485,210.68919214879),.UNSPECIFIED.);
#326 = CARTESIAN_POINT('',(209.11361971193,-3.803129910924));
#327 = CARTESIAN_POINT('',(197.75219710914,-2.672812867183));
#328 = CARTESIAN_POINT('',(174.89923627751,-0.771002628828));
#329 = CARTESIAN_POINT('',(140.38981212191,0.979623559222));
#330 = CARTESIAN_POINT('',(105.5140209288,1.610203021502));
#331 = CARTESIAN_POINT('',(70.259994191184,1.086043509127));
#332 = CARTESIAN_POINT('',(34.612768864927,-0.635986518492));
#333 = CARTESIAN_POINT('',(10.751769067481,-2.604904570873));
#334 = CARTESIAN_POINT('',(-1.239436517389,-3.803129910924));
#335 = ( GEOMETRIC_REPRESENTATION_CONTEXT(2) 
PARAMETRIC_REPRESENTATION_CONTEXT() REPRESENTATION_CONTEXT('2D SPACE',''
  ) );
#336 = ORIENTED_EDGE('',*,*,#337,.T.);
#337 = EDGE_CURVE('',#304,#338,#340,.T.);
#338 = VERTEX_POINT('',#339);
#339 = CARTESIAN_POINT('',(2.227533937002E+03,-3.68E+03,727.09680942757)
  );
#340 = SURFACE_CURVE('',#341,(#344,#351),.PCURVE_S1.);
#341 = B_SPLINE_CURVE_WITH_KNOTS('',1,(#342,#343),.UNSPECIFIED.,.F.,.F.,
  (2,2),(0.,1.),.PIECEWISE_BEZIER_KNOTS.);
#342 = CARTESIAN_POINT('',(2.227533937002E+03,-3.52E+03,715.30186192292)
  );
#343 = CARTESIAN_POINT('',(2.227533937002E+03,-3.68E+03,727.09680942757)
  );
#344 = PCURVE('',#242,#345);
#345 = DEFINITIONAL_REPRESENTATION('',(#346),#350);
#346 = LINE('',#347,#348);
#347 = CARTESIAN_POINT('',(212.25392603539,0.));
#348 = VECTOR('',#349,1.);
#349 = DIRECTION('',(0.,1.));
#350 = ( GEOMETRIC_REPRESENTATION_CONTEXT(2) 
PARAMETRIC_REPRESENTATION_CONTEXT() REPRESENTATION_CONTEXT('2D SPACE',''
  ) );
#351 = PCURVE('',#189,#352);
#352 = DEFINITIONAL_REPRESENTATION('',(#353),#357);
#353 = LINE('',#354,#355);
#354 = CARTESIAN_POINT('',(0.,0.));
#355 = VECTOR('',#356,1.);
#356 = DIRECTION('',(0.,1.));
#357 = ( GEOMETRIC_REPRESENTATION_CONTEXT(2) 
PARAMETRIC_REPRESENTATION_CONTEXT() REPRESENTATION_CONTEXT('2D SPACE',''
  ) );
#358 = ORIENTED_EDGE('',*,*,#359,.F.);
#359 = EDGE_CURVE('',#228,#338,#360,.T.);
#360 = SURFACE_CURVE('',#361,(#371,#378),.PCURVE_S1.);
#361 = B_SPLINE_CURVE_WITH_KNOTS('',3,(#362,#363,#364,#365,#366,#367,
    #368,#369,#370),.UNSPECIFIED.,.F.,.F.,(4,1,1,1,1,1,4),(0.,
    34.383805223191,69.089082240297,104.16746908132,139.67608558125,
    175.68003943971,212.25392603539),.UNSPECIFIED.);
#362 = CARTESIAN_POINT('',(2.427533937002E+03,-3.68E+03,797.01500431751)
  );
#363 = CARTESIAN_POINT('',(2.41637589631E+03,-3.68E+03,794.39363601883)
  );
#364 = CARTESIAN_POINT('',(2.394045499094E+03,-3.68E+03,788.74332886231)
  );
#365 = CARTESIAN_POINT('',(2.36068904124E+03,-3.68E+03,779.07508985716)
  );
#366 = CARTESIAN_POINT('',(2.327330808603E+03,-3.68E+03,768.14094407958)
  );
#367 = CARTESIAN_POINT('',(2.293969740727E+03,-3.68E+03,755.89480731288)
  );
#368 = CARTESIAN_POINT('',(2.260605480779E+03,-3.68E+03,742.27606890857)
  );
#369 = CARTESIAN_POINT('',(2.238550970362E+03,-3.68E+03,732.31910431689)
  );
#370 = CARTESIAN_POINT('',(2.227533937002E+03,-3.68E+03,727.09680942757)
  );
#371 = PCURVE('',#242,#372);
#372 = DEFINITIONAL_REPRESENTATION('',(#373),#377);
#373 = LINE('',#374,#375);
#374 = CARTESIAN_POINT('',(0.,1.));
#375 = VECTOR('',#376,1.);
#376 = DIRECTION('',(1.,0.));
#377 = ( GEOMETRIC_REPRESENTATION_CONTEXT(2) 
PARAMETRIC_REPRESENTATION_CONTEXT() REPRESENTATION_CONTEXT('2D SPACE',''
  ) );
#378 = PCURVE('',#158,#379);
#379 = DEFINITIONAL_REPRESENTATION('',(#380),#390);
#380 = B_SPLINE_CURVE_WITH_KNOTS('',3,(#381,#382,#383,#384,#385,#386,
    #387,#388,#389),.UNSPECIFIED.,.F.,.F.,(4,1,1,1,1,1,4),(0.,
    34.383805223191,69.089082240297,104.16746908132,139.67608558125,
    175.68003943971,212.25392603539),.UNSPECIFIED.);
#381 = CARTESIAN_POINT('',(210.54916500768,-3.775914739083));
#382 = CARTESIAN_POINT('',(199.15114404133,-2.568205382775));
#383 = CARTESIAN_POINT('',(176.20708736352,-0.532800273828));
#384 = CARTESIAN_POINT('',(141.52872112813,1.348433702146));
#385 = CARTESIAN_POINT('',(106.43092216333,2.035264357703));
#386 = CARTESIAN_POINT('',(70.897481332371,1.484539132266));
#387 = CARTESIAN_POINT('',(34.908059889526,-0.360839377448));
#388 = CARTESIAN_POINT('',(10.803209832077,-2.481871507264));
#389 = CARTESIAN_POINT('',(-1.320025713075,-3.775914739083));
#390 = ( GEOMETRIC_REPRESENTATION_CONTEXT(2) 
PARAMETRIC_REPRESENTATION_CONTEXT() REPRESENTATION_CONTEXT('2D SPACE',''
  ) );
#391 = ORIENTED_EDGE('',*,*,#227,.F.);
#392 = ADVANCED_FACE('',(#393),#189,.F.);
#393 = FACE_BOUND('',#394,.F.);
#394 = EDGE_LOOP('',(#395,#416,#417,#438));
#395 = ORIENTED_EDGE('',*,*,#396,.T.);
#396 = EDGE_CURVE('',#304,#40,#397,.T.);
#397 = SURFACE_CURVE('',#398,(#402,#409),.PCURVE_S1.);
#398 = LINE('',#399,#400);
#399 = CARTESIAN_POINT('',(2.227533937002E+03,-3.52E+03,715.30186192292)
  );
#400 = VECTOR('',#401,1.);
#401 = DIRECTION('',(0.,0.,1.));
#402 = PCURVE('',#189,#403);
#403 = DEFINITIONAL_REPRESENTATION('',(#404),#408);
#404 = LINE('',#405,#406);
#405 = CARTESIAN_POINT('',(0.,0.));
#406 = VECTOR('',#407,1.);
#407 = DIRECTION('',(1.,0.));
#408 = ( GEOMETRIC_REPRESENTATION_CONTEXT(2) 
PARAMETRIC_REPRESENTATION_CONTEXT() REPRESENTATION_CONTEXT('2D SPACE',''
  ) );
#409 = PCURVE('',#91,#410);
#410 = DEFINITIONAL_REPRESENTATION('',(#411),#415);
#411 = LINE('',#412,#413);
#412 = CARTESIAN_POINT('',(-1.239436517388,-3.803129910924));
#413 = VECTOR('',#414,1.);
#414 = DIRECTION('',(0.309859129347,0.950782477731));
#415 = ( GEOMETRIC_REPRESENTATION_CONTEXT(2) 
PARAMETRIC_REPRESENTATION_CONTEXT() REPRESENTATION_CONTEXT('2D SPACE',''
  ) );
#416 = ORIENTED_EDGE('',*,*,#176,.T.);
#417 = ORIENTED_EDGE('',*,*,#418,.F.);
#418 = EDGE_CURVE('',#338,#137,#419,.T.);
#419 = SURFACE_CURVE('',#420,(#424,#431),.PCURVE_S1.);
#420 = LINE('',#421,#422);
#421 = CARTESIAN_POINT('',(2.227533937002E+03,-3.68E+03,727.09680942757)
  );
#422 = VECTOR('',#423,1.);
#423 = DIRECTION('',(0.,0.,1.));
#424 = PCURVE('',#189,#425);
#425 = DEFINITIONAL_REPRESENTATION('',(#426),#430);
#426 = LINE('',#427,#428);
#427 = CARTESIAN_POINT('',(0.,1.));
#428 = VECTOR('',#429,1.);
#429 = DIRECTION('',(1.,0.));
#430 = ( GEOMETRIC_REPRESENTATION_CONTEXT(2) 
PARAMETRIC_REPRESENTATION_CONTEXT() REPRESENTATION_CONTEXT('2D SPACE',''
  ) );
#431 = PCURVE('',#158,#432);
#432 = DEFINITIONAL_REPRESENTATION('',(#433),#437);
#433 = LINE('',#434,#435);
#434 = CARTESIAN_POINT('',(-1.320025713075,-3.775914739083));
#435 = VECTOR('',#436,1.);
#436 = DIRECTION('',(0.330006428269,0.943978684771));
#437 = ( GEOMETRIC_REPRESENTATION_CONTEXT(2) 
PARAMETRIC_REPRESENTATION_CONTEXT() REPRESENTATION_CONTEXT('2D SPACE',''
  ) );
#438 = ORIENTED_EDGE('',*,*,#337,.F.);
#439 = ADVANCED_FACE('',(#440),#91,.F.);
#440 = FACE_BOUND('',#441,.T.);
#441 = EDGE_LOOP('',(#442,#443,#444,#445));
#442 = ORIENTED_EDGE('',*,*,#39,.T.);
#443 = ORIENTED_EDGE('',*,*,#204,.T.);
#444 = ORIENTED_EDGE('',*,*,#303,.T.);
#445 = ORIENTED_EDGE('',*,*,#396,.T.);
#446 = ADVANCED_FACE('',(#447),#158,.T.);
#447 = FACE_BOUND('',#448,.F.);
#448 = EDGE_LOOP('',(#449,#450,#451,#452));
#449 = ORIENTED_EDGE('',*,*,#136,.T.);
#450 = ORIENTED_EDGE('',*,*,#278,.T.);
#451 = ORIENTED_EDGE('',*,*,#359,.T.);
#452 = ORIENTED_EDGE('',*,*,#418,.T.);
#453 = MANIFOLD_SOLID_BREP('',#454);
#454 = CLOSED_SHELL('',(#455,#543,#547));
#455 = ADVANCED_FACE('',(#456),#469,.T.);
#456 = FACE_BOUND('',#457,.T.);
#457 = EDGE_LOOP('',(#458,#492,#515,#542));
#458 = ORIENTED_EDGE('',*,*,#459,.F.);
#459 = EDGE_CURVE('',#460,#460,#462,.T.);
#460 = VERTEX_POINT('',#461);
#461 = CARTESIAN_POINT('',(2.027695769806E+03,-3.6E+03,746.04447639678)
  );
#462 = SURFACE_CURVE('',#463,(#468,#480),.PCURVE_S1.);
#463 = CIRCLE('',#464,3.);
#464 = AXIS2_PLACEMENT_3D('',#465,#466,#467);
#465 = CARTESIAN_POINT('',(2.027533937002E+03,-3.6E+03,749.04010824057)
  );
#466 = DIRECTION('',(-0.998543947933,0.,-5.394426796341E-02));
#467 = DIRECTION('',(5.394426796341E-02,0.,-0.998543947933));
#468 = PCURVE('',#469,#474);
#469 = CYLINDRICAL_SURFACE('',#470,3.);
#470 = AXIS2_PLACEMENT_3D('',#471,#472,#473);
#471 = CARTESIAN_POINT('',(2.327533937002E+03,-3.6E+03,765.24698668846)
  );
#472 = DIRECTION('',(-0.998543947933,0.,-5.394426796341E-02));
#473 = DIRECTION('',(5.394426796341E-02,0.,-0.998543947933));
#474 = DEFINITIONAL_REPRESENTATION('',(#475),#479);
#475 = LINE('',#476,#477);
#476 = CARTESIAN_POINT('',(0.,300.43745257378));
#477 = VECTOR('',#478,1.);
#478 = DIRECTION('',(1.,0.));
#479 = ( GEOMETRIC_REPRESENTATION_CONTEXT(2) 
PARAMETRIC_REPRESENTATION_CONTEXT() REPRESENTATION_CONTEXT('2D SPACE',''
  ) );
#480 = PCURVE('',#481,#486);
#481 = PLANE('',#482);
#482 = AXIS2_PLACEMENT_3D('',#483,#484,#485);
#483 = CARTESIAN_POINT('',(2.027533937002E+03,-3.6E+03,749.04010824057)
  );
#484 = DIRECTION('',(-0.998543947933,0.,-5.394426796341E-02));
#485 = DIRECTION('',(5.394426796341E-02,0.,-0.998543947933));
#486 = DEFINITIONAL_REPRESENTATION('',(#487),#491);
#487 = CIRCLE('',#488,3.);
#488 = AXIS2_PLACEMENT_2D('',#489,#490);
#489 = CARTESIAN_POINT('',(0.,0.));
#490 = DIRECTION('',(1.,0.));
#491 = ( GEOMETRIC_REPRESENTATION_CONTEXT(2) 
PARAMETRIC_REPRESENTATION_CONTEXT() REPRESENTATION_CONTEXT('2D SPACE',''
  ) );
#492 = ORIENTED_EDGE('',*,*,#493,.F.);
#493 = EDGE_CURVE('',#494,#460,#496,.T.);
#494 = VERTEX_POINT('',#495);
#495 = CARTESIAN_POINT('',(2.327695769806E+03,-3.6E+03,762.25135484466)
  );
#496 = SEAM_CURVE('',#497,(#501,#508),.PCURVE_S1.);
#497 = LINE('',#498,#499);
#498 = CARTESIAN_POINT('',(2.327695769806E+03,-3.6E+03,762.25135484466)
  );
#499 = VECTOR('',#500,1.);
#500 = DIRECTION('',(-0.998543947933,9.408675638629E-34,
    -5.394426796341E-02));
#501 = PCURVE('',#469,#502);
#502 = DEFINITIONAL_REPRESENTATION('',(#503),#507);
#503 = LINE('',#504,#505);
#504 = CARTESIAN_POINT('',(6.28318530718,-0.));
#505 = VECTOR('',#506,1.);
#506 = DIRECTION('',(0.,1.));
#507 = ( GEOMETRIC_REPRESENTATION_CONTEXT(2) 
PARAMETRIC_REPRESENTATION_CONTEXT() REPRESENTATION_CONTEXT('2D SPACE',''
  ) );
#508 = PCURVE('',#469,#509);
#509 = DEFINITIONAL_REPRESENTATION('',(#510),#514);
#510 = LINE('',#511,#512);
#511 = CARTESIAN_POINT('',(0.,-0.));
#512 = VECTOR('',#513,1.);
#513 = DIRECTION('',(0.,1.));
#514 = ( GEOMETRIC_REPRESENTATION_CONTEXT(2) 
PARAMETRIC_REPRESENTATION_CONTEXT() REPRESENTATION_CONTEXT('2D SPACE',''
  ) );
#515 = ORIENTED_EDGE('',*,*,#516,.T.);
#516 = EDGE_CURVE('',#494,#494,#517,.T.);
#517 = SURFACE_CURVE('',#518,(#523,#530),.PCURVE_S1.);
#518 = CIRCLE('',#519,3.);
#519 = AXIS2_PLACEMENT_3D('',#520,#521,#522);
#520 = CARTESIAN_POINT('',(2.327533937002E+03,-3.6E+03,765.24698668846)
  );
#521 = DIRECTION('',(-0.998543947933,0.,-5.394426796341E-02));
#522 = DIRECTION('',(5.394426796341E-02,0.,-0.998543947933));
#523 = PCURVE('',#469,#524);
#524 = DEFINITIONAL_REPRESENTATION('',(#525),#529);
#525 = LINE('',#526,#527);
#526 = CARTESIAN_POINT('',(0.,0.));
#527 = VECTOR('',#528,1.);
#528 = DIRECTION('',(1.,0.));
#529 = ( GEOMETRIC_REPRESENTATION_CONTEXT(2) 
PARAMETRIC_REPRESENTATION_CONTEXT() REPRESENTATION_CONTEXT('2D SPACE',''
  ) );
#530 = PCURVE('',#531,#536);
#531 = PLANE('',#532);
#532 = AXIS2_PLACEMENT_3D('',#533,#534,#535);
#533 = CARTESIAN_POINT('',(2.327533937002E+03,-3.6E+03,765.24698668846)
  );
#534 = DIRECTION('',(-0.998543947933,0.,-5.394426796341E-02));
#535 = DIRECTION('',(5.394426796341E-02,0.,-0.998543947933));
#536 = DEFINITIONAL_REPRESENTATION('',(#537),#541);
#537 = CIRCLE('',#538,3.);
#538 = AXIS2_PLACEMENT_2D('',#539,#540);
#539 = CARTESIAN_POINT('',(0.,0.));
#540 = DIRECTION('',(1.,0.));
#541 = ( GEOMETRIC_REPRESENTATION_CONTEXT(2) 
PARAMETRIC_REPRESENTATION_CONTEXT() REPRESENTATION_CONTEXT('2D SPACE',''
  ) );
#542 = ORIENTED_EDGE('',*,*,#493,.T.);
#543 = ADVANCED_FACE('',(#544),#481,.T.);
#544 = FACE_BOUND('',#545,.T.);
#545 = EDGE_LOOP('',(#546));
#546 = ORIENTED_EDGE('',*,*,#459,.T.);
#547 = ADVANCED_FACE('',(#548),#531,.F.);
#548 = FACE_BOUND('',#549,.T.);
#549 = EDGE_LOOP('',(#550));
#550 = ORIENTED_EDGE('',*,*,#516,.F.);
#551 = ( GEOMETRIC_REPRESENTATION_CONTEXT(3) 
GLOBAL_UNCERTAINTY_ASSIGNED_CONTEXT((#555)) GLOBAL_UNIT_ASSIGNED_CONTEXT
((#552,#553,#554)) REPRESENTATION_CONTEXT('Context #1',
  '3D Context with UNIT and UNCERTAINTY') );
#552 = ( LENGTH_UNIT() NAMED_UNIT(*) SI_UNIT(.MILLI.,.METRE.) );
#553 = ( NAMED_UNIT(*) PLANE_ANGLE_UNIT() SI_UNIT($,.RADIAN.) );
#554 = ( NAMED_UNIT(*) SI_UNIT($,.STERADIAN.) SOLID_ANGLE_UNIT() );
#555 = UNCERTAINTY_MEASURE_WITH_UNIT(LENGTH_MEASURE(1.E-07),#552,
  'distance_accuracy_value','confusion accuracy');
#556 = CONTEXT_DEPENDENT_SHAPE_REPRESENTATION(#557,#559);
#557 = ( REPRESENTATION_RELATIONSHIP('','',#32,#10) 
REPRESENTATION_RELATIONSHIP_WITH_TRANSFORMATION(#558) 
SHAPE_REPRESENTATION_RELATIONSHIP() );
#558 = ITEM_DEFINED_TRANSFORMATION('','',#11,#15);
#559 = PRODUCT_DEFINITION_SHAPE('Placement','Placement of an item',#560
  );
#560 = NEXT_ASSEMBLY_USAGE_OCCURRENCE('1','uk-left-access-ws3600.body','',#5,#27,$);
#561 = PRODUCT_RELATED_PRODUCT_CATEGORY('part',$,(#29));
ENDSEC;
END-ISO-10303-21;
