ISO-10303-21;
HEADER;
FILE_DESCRIPTION(('Open CASCADE Model'),'2;1');
FILE_NAME('Open CASCADE Shape Model','2026-01-01T00:00:00',('Author'),(
    'Open CASCADE'),'Open CASCADE STEP processor 7.9','Open CASCADE 7.9'
  ,'Unknown');
FILE_SCHEMA((
'AP242_MANAGED_MODEL_BASED_3D_ENGINEERING_MIM_LF {1 0 10303 442 1 1 4 }'
    ));
ENDSEC;
DATA;
#1 = APPLICATION_PROTOCOL_DEFINITION('international standard',
  'ap242_managed_model_based_3d_engineering',2013,#2);
#2 = APPLICATION_CONTEXT('Managed model based 3d engineering');
#3 = SHAPE_DEFINITION_REPRESENTATION(#4,#10);
#4 = PRODUCT_DEFINITION_SHAPE('','',#5);
#5 = PRODUCT_DEFINITION('design','',#6,#9);
#6 = PRODUCT_DEFINITION_FORMATION('','',#7);
#7 = PRODUCT('uk-left-access-ws1500','uk-left-access-ws1500','',(#8));
#8 = PRODUCT_CONTEXT('',#2,'mechanical');
#9 = PRODUCT_DEFINITION_CONTEXT('part definition',#2,'design');
#10 = SHAPE_REPRESENTATION('',(#11,#15),#19);
#11 = AXIS2_PLACEMENT_3D('',#12,#13,#14);
#12 = CARTESIAN_POINT('',(0.,0.,0.));
#13 = DIRECTION('',(0.,0.,1.));
#14 = DIRECTION('',(1.,0.,-0.));
#15 = AXIS2_PLACEMENT_3D('',#16,#17,#18);
#16 = CARTESIAN_POINT('',(0.,0.,0.));
#17 = DIRECTION('',(0.,0.,1.));
#18 = DIRECTION('',(1.,0.,-0.));
#19 = ( GEOMETRIC_REPRESENTATION_CONTEXT(3) 
GLOBAL_UNCERTAINTY_ASSIGNED_CONTEXT((#23)) GLOBAL_UNIT_ASSIGNED_CONTEXT(
(#20,#21,#22)) REPRESENTATION_CONTEXT('Context #1',
  '3D Context with UNIT and UNCERTAINTY') );
#20 = ( LENGTH_UNIT() NAMED_UNIT(*) SI_UNIT(.MILLI.,.METRE.) );
#21 = ( NAMED_UNIT(*) PLANE_ANGLE_UNIT() SI_UNIT($,.RADIAN.) );
#22 = ( NAMED_UNIT(*) SI_UNIT($,.STERADIAN.) SOLID_ANGLE_UNIT() );
#23 = UNCERTAINTY_MEASURE_WITH_UNIT(LENGTH_MEASURE(1.E-07),#20,
  'distance_accuracy_value','confusion accuracy');
#24 = PRODUCT_RELATED_PRODUCT_CATEGORY('part',$,(#7));
#25 = SHAPE_DEFINITION_REPRESENTATION(#26,#32);
#26 = PRODUCT_DEFINITION_SHAPE('','',#27);
#27 = PRODUCT_DEFINITION('design','',#28,#31);
#28 = PRODUCT_DEFINITION_FORMATION('','',#29);
#29 = PRODUCT('uk-left-access-ws1500.body','uk-left-access-ws1500.body',
  '',(#30));
#30 = PRODUCT_CONTEXT('',#2,'mechanical');
#31 = PRODUCT_DEFINITION_CONTEXT('part definition',#2,'design');
#32 = SHAPE_REPRESENTATION('',(#11,#33,#453,#551),#649);
#33 = MANIFOLD_SOLID_BREP('',#34);
#34 = CLOSED_SHELL('',(#35,#200,#299,#392,#439,#446));
#35 = ADVANCED_FACE('',(#36),#56,.F.);
#36 = FACE_BOUND('',#37,.F.);
#37 = EDGE_LOOP('',(#38,#109,#136,#175));
#38 = ORIENTED_EDGE('',*,*,#39,.T.);
#39 = EDGE_CURVE('',#40,#42,#44,.T.);
#40 = VERTEX_POINT('',#41);
#41 = CARTESIAN_POINT('',(2.1E+03,-1.42E+03,403.41817353651));
#42 = VERTEX_POINT('',#43);
#43 = CARTESIAN_POINT('',(2.3E+03,-1.42E+03,491.93449799025));
#44 = SURFACE_CURVE('',#45,(#55,#91),.PCURVE_S1.);
#45 = B_SPLINE_CURVE_WITH_KNOTS('',3,(#46,#47,#48,#49,#50,#51,#52,#53,
    #54),.UNSPECIFIED.,.F.,.F.,(4,1,1,1,1,1,4),(0.,37.47437409754,
    74.503886562644,111.12660300041,147.37703381552,183.28663280292,
    218.88421718815),.UNSPECIFIED.);
#46 = CARTESIAN_POINT('',(2.1E+03,-1.42E+03,403.41817353651));
#47 = CARTESIAN_POINT('',(2.111041562305E+03,-1.42E+03,409.26017492589)
  );
#48 = CARTESIAN_POINT('',(2.133134288027E+03,-1.42E+03,420.60865147408)
  );
#49 = CARTESIAN_POINT('',(2.166482562784E+03,-1.42E+03,436.74172820718)
  );
#50 = CARTESIAN_POINT('',(2.199829710229E+03,-1.42E+03,451.91660934863)
  );
#51 = CARTESIAN_POINT('',(2.233175894772E+03,-1.42E+03,466.16854624648)
  );
#52 = CARTESIAN_POINT('',(2.266521213782E+03,-1.42E+03,479.52889129586)
  );
#53 = CARTESIAN_POINT('',(2.288842836551E+03,-1.42E+03,487.89448511809)
  );
#54 = CARTESIAN_POINT('',(2.3E+03,-1.42E+03,491.93449799025));
#55 = PCURVE('',#56,#85);
#56 = B_SPLINE_SURFACE_WITH_KNOTS('',3,1,(
    (#57,#58)
    ,(#59,#60)
    ,(#61,#62)
    ,(#63,#64)
    ,(#65,#66)
    ,(#67,#68)
    ,(#69,#70)
    ,(#71,#72)
    ,(#73,#74)
    ,(#75,#76)
    ,(#77,#78)
    ,(#79,#80)
    ,(#81,#82)
    ,(#83,#84
    )),.UNSPECIFIED.,.F.,.F.,.F.,(4,1,1,1,1,1,1,1,1,1,1,4),(2,2),(0.,
    37.47437409754,37.485055767388,74.503886562644,74.519422762348,
    111.12660300041,111.14245103813,147.37703381552,147.38976448254,
    183.28663280292,183.29379255979,218.88421718815),(0.,1.),
  .UNSPECIFIED.);
#57 = CARTESIAN_POINT('',(2.1E+03,-1.42E+03,403.41817353651));
#58 = CARTESIAN_POINT('',(2.1E+03,-1.58E+03,425.64557392882));
#59 = CARTESIAN_POINT('',(2.111041562305E+03,-1.42E+03,409.26017492589)
  );
#60 = CARTESIAN_POINT('',(2.11103744445E+03,-1.58E+03,431.45006157672));
#61 = CARTESIAN_POINT('',(2.122157050287E+03,-1.42E+03,414.96992103325)
  );
#62 = CARTESIAN_POINT('',(2.122149792819E+03,-1.58E+03,437.11959787547)
  );
#63 = CARTESIAN_POINT('',(2.144383277065E+03,-1.42E+03,426.05063624381)
  );
#64 = CARTESIAN_POINT('',(2.144371444942E+03,-1.58E+03,448.11500673015)
  );
#65 = CARTESIAN_POINT('',(2.155500241114E+03,-1.42E+03,431.42870374983)
  );
#66 = CARTESIAN_POINT('',(2.155486952407E+03,-1.58E+03,453.44801203237)
  );
#67 = CARTESIAN_POINT('',(2.177722934064E+03,-1.42E+03,441.85674736877)
  );
#68 = CARTESIAN_POINT('',(2.177708102367E+03,-1.58E+03,463.7811688833));
#69 = CARTESIAN_POINT('',(2.188839992458E+03,-1.42E+03,446.91558579311)
  );
#70 = CARTESIAN_POINT('',(2.188825058447E+03,-1.58E+03,468.790187159));
#71 = CARTESIAN_POINT('',(2.211060869347E+03,-1.42E+03,456.71673185867)
  );
#72 = CARTESIAN_POINT('',(2.211046797385E+03,-1.58E+03,478.48702838612)
  );
#73 = CARTESIAN_POINT('',(2.222176975865E+03,-1.42E+03,461.46761578496)
  );
#74 = CARTESIAN_POINT('',(2.222163857834E+03,-1.58E+03,483.18341792888)
  );
#75 = CARTESIAN_POINT('',(2.244397437649E+03,-1.42E+03,470.66464012935)
  );
#76 = CARTESIAN_POINT('',(2.244387015304E+03,-1.58E+03,492.26685777336)
  );
#77 = CARTESIAN_POINT('',(2.255511804422E+03,-1.42E+03,475.11774048075)
  );
#78 = CARTESIAN_POINT('',(2.255503117573E+03,-1.58E+03,496.66086052711)
  );
#79 = CARTESIAN_POINT('',(2.27773295926E+03,-1.42E+03,483.73077704907));
#80 = CARTESIAN_POINT('',(2.277728275823E+03,-1.58E+03,505.15114718422)
  );
#81 = CARTESIAN_POINT('',(2.288845080596E+03,-1.42E+03,487.89529768755)
  );
#82 = CARTESIAN_POINT('',(2.288842661387E+03,-1.58E+03,509.25202590849)
  );
#83 = CARTESIAN_POINT('',(2.3E+03,-1.42E+03,491.93449799025));
#84 = CARTESIAN_POINT('',(2.3E+03,-1.58E+03,513.22505570985));
#85 = DEFINITIONAL_REPRESENTATION('',(#86),#90);
#86 = LINE('',#87,#88);
#87 = CARTESIAN_POINT('',(0.,0.));
#88 = VECTOR('',#89,1.);
#89 = DIRECTION('',(1.,0.));
#90 = ( GEOMETRIC_REPRESENTATION_CONTEXT(2) 
PARAMETRIC_REPRESENTATION_CONTEXT() REPRESENTATION_CONTEXT('2D SPACE',''
  ) );
#91 = PCURVE('',#92,#97);
#92 = PLANE('',#93);
#93 = AXIS2_PLACEMENT_3D('',#94,#95,#96);
#94 = CARTESIAN_POINT('',(2.1E+03,-1.42E+03,403.41817353651));
#95 = DIRECTION('',(0.,-1.,0.));
#96 = DIRECTION('',(0.914442647533,0.,0.404715510417));
#97 = DEFINITIONAL_REPRESENTATION('',(#98),#108);
#98 = B_SPLINE_CURVE_WITH_KNOTS('',3,(#99,#100,#101,#102,#103,#104,#105,
    #106,#107),.UNSPECIFIED.,.F.,.F.,(4,1,1,1,1,1,4),(0.,37.47437409754,
    74.503886562644,111.12660300041,147.37703381552,183.28663280292,
    218.88421718815),.UNSPECIFIED.);
#99 = CARTESIAN_POINT('',(0.,0.));
#100 = CARTESIAN_POINT('',(12.461224040825,0.873483693517));
#101 = CARTESIAN_POINT('',(37.25665912053,2.309745866374));
#102 = CARTESIAN_POINT('',(74.2810501644,3.565955227334));
#103 = CARTESIAN_POINT('',(110.91661372822,3.946405915239));
#104 = CARTESIAN_POINT('',(147.17776692298,3.483266726773));
#105 = CARTESIAN_POINT('',(183.07728758756,2.205168222445));
#106 = CARTESIAN_POINT('',(206.87481698352,0.821117033078));
#107 = CARTESIAN_POINT('',(218.71245893821,-5.684341886081E-14));
#108 = ( GEOMETRIC_REPRESENTATION_CONTEXT(2) 
PARAMETRIC_REPRESENTATION_CONTEXT() REPRESENTATION_CONTEXT('2D SPACE',''
  ) );
#109 = ORIENTED_EDGE('',*,*,#110,.T.);
#110 = EDGE_CURVE('',#42,#111,#113,.T.);
#111 = VERTEX_POINT('',#112);
#112 = CARTESIAN_POINT('',(2.3E+03,-1.58E+03,513.22505570985));
#113 = SURFACE_CURVE('',#114,(#117,#124),.PCURVE_S1.);
#114 = B_SPLINE_CURVE_WITH_KNOTS('',1,(#115,#116),.UNSPECIFIED.,.F.,.F.,
  (2,2),(0.,1.),.PIECEWISE_BEZIER_KNOTS.);
#115 = CARTESIAN_POINT('',(2.3E+03,-1.42E+03,491.93449799025));
#116 = CARTESIAN_POINT('',(2.3E+03,-1.58E+03,513.22505570985));
#117 = PCURVE('',#56,#118);
#118 = DEFINITIONAL_REPRESENTATION('',(#119),#123);
#119 = LINE('',#120,#121);
#120 = CARTESIAN_POINT('',(218.88421718815,0.));
#121 = VECTOR('',#122,1.);
#122 = DIRECTION('',(0.,1.));
#123 = ( GEOMETRIC_REPRESENTATION_CONTEXT(2) 
PARAMETRIC_REPRESENTATION_CONTEXT() REPRESENTATION_CONTEXT('2D SPACE',''
  ) );
#124 = PCURVE('',#125,#130);
#125 = B_SPLINE_SURFACE_WITH_KNOTS('',1,1,(
    (#126,#127)
    ,(#128,#129)),.UNSPECIFIED.,.F.,.F.,.F.,(2,2),(2,2),(0.,4.),(0.,1.),
  .PIECEWISE_BEZIER_KNOTS.);
#126 = CARTESIAN_POINT('',(2.3E+03,-1.42E+03,491.93449799025));
#127 = CARTESIAN_POINT('',(2.3E+03,-1.58E+03,513.22505570985));
#128 = CARTESIAN_POINT('',(2.3E+03,-1.42E+03,487.93449799025));
#129 = CARTESIAN_POINT('',(2.3E+03,-1.58E+03,509.22505570985));
#130 = DEFINITIONAL_REPRESENTATION('',(#131),#135);
#131 = LINE('',#132,#133);
#132 = CARTESIAN_POINT('',(0.,0.));
#133 = VECTOR('',#134,1.);
#134 = DIRECTION('',(0.,1.));
#135 = ( GEOMETRIC_REPRESENTATION_CONTEXT(2) 
PARAMETRIC_REPRESENTATION_CONTEXT() REPRESENTATION_CONTEXT('2D SPACE',''
  ) );
#136 = ORIENTED_EDGE('',*,*,#137,.F.);
#137 = EDGE_CURVE('',#138,#111,#140,.T.);
#138 = VERTEX_POINT('',#139);
#139 = CARTESIAN_POINT('',(2.1E+03,-1.58E+03,425.64557392882));
#140 = SURFACE_CURVE('',#141,(#151,#157),.PCURVE_S1.);
#141 = B_SPLINE_CURVE_WITH_KNOTS('',3,(#142,#143,#144,#145,#146,#147,
    #148,#149,#150),.UNSPECIFIED.,.F.,.F.,(4,1,1,1,1,1,4),(0.,
    37.421561159431,74.393196952179,110.95419077784,147.14010618215,
    182.98331769824,218.51345696721),.UNSPECIFIED.);
#142 = CARTESIAN_POINT('',(2.1E+03,-1.58E+03,425.64557392882));
#143 = CARTESIAN_POINT('',(2.111040590556E+03,-1.58E+03,431.45171608389)
  );
#144 = CARTESIAN_POINT('',(2.133131722427E+03,-1.58E+03,442.7225455391)
  );
#145 = CARTESIAN_POINT('',(2.166480520297E+03,-1.58E+03,458.72244419657)
  );
#146 = CARTESIAN_POINT('',(2.199828135183E+03,-1.58E+03,473.74782591761)
  );
#147 = CARTESIAN_POINT('',(2.233174742631E+03,-1.58E+03,487.83490014164)
  );
#148 = CARTESIAN_POINT('',(2.266520446923E+03,-1.58E+03,501.01579063952)
  );
#149 = CARTESIAN_POINT('',(2.288842661387E+03,-1.58E+03,509.25202590849)
  );
#150 = CARTESIAN_POINT('',(2.3E+03,-1.58E+03,513.22505570985));
#151 = PCURVE('',#56,#152);
#152 = DEFINITIONAL_REPRESENTATION('',(#153),#156);
#153 = B_SPLINE_CURVE_WITH_KNOTS('',1,(#154,#155),.UNSPECIFIED.,.F.,.F.,
  (2,2),(0.,218.51345696721),.PIECEWISE_BEZIER_KNOTS.);
#154 = CARTESIAN_POINT('',(0.,1.));
#155 = CARTESIAN_POINT('',(218.88421718815,1.));
#156 = ( GEOMETRIC_REPRESENTATION_CONTEXT(2) 
PARAMETRIC_REPRESENTATION_CONTEXT() REPRESENTATION_CONTEXT('2D SPACE',''
  ) );
#157 = PCURVE('',#158,#163);
#158 = PLANE('',#159);
#159 = AXIS2_PLACEMENT_3D('',#160,#161,#162);
#160 = CARTESIAN_POINT('',(2.1E+03,-1.58E+03,425.64557392882));
#161 = DIRECTION('',(0.,-1.,0.));
#162 = DIRECTION('',(0.916023605179,0.,0.401124363204));
#163 = DEFINITIONAL_REPRESENTATION('',(#164),#174);
#164 = B_SPLINE_CURVE_WITH_KNOTS('',3,(#165,#166,#167,#168,#169,#170,
    #171,#172,#173),.UNSPECIFIED.,.F.,.F.,(4,1,1,1,1,1,4),(0.,
    37.421561159431,74.393196952179,110.95419077784,147.14010618215,
    182.98331769824,218.51345696721),.UNSPECIFIED.);
#165 = CARTESIAN_POINT('',(0.,0.));
#166 = CARTESIAN_POINT('',(12.442426639107,0.889913412866));
#167 = CARTESIAN_POINT('',(37.199429186107,2.352968039549));
#168 = CARTESIAN_POINT('',(74.165664399267,3.632237581225));
#169 = CARTESIAN_POINT('',(110.73991348604,4.019301128985));
#170 = CARTESIAN_POINT('',(146.93686173864,3.547256968483));
#171 = CARTESIAN_POINT('',(182.76949030892,2.245489402075));
#172 = CARTESIAN_POINT('',(206.52092030541,0.836091264017));
#173 = CARTESIAN_POINT('',(218.33498489484,5.684341886081E-14));
#174 = ( GEOMETRIC_REPRESENTATION_CONTEXT(2) 
PARAMETRIC_REPRESENTATION_CONTEXT() REPRESENTATION_CONTEXT('2D SPACE',''
  ) );
#175 = ORIENTED_EDGE('',*,*,#176,.F.);
#176 = EDGE_CURVE('',#40,#138,#177,.T.);
#177 = SURFACE_CURVE('',#178,(#181,#188),.PCURVE_S1.);
#178 = B_SPLINE_CURVE_WITH_KNOTS('',1,(#179,#180),.UNSPECIFIED.,.F.,.F.,
  (2,2),(0.,1.),.PIECEWISE_BEZIER_KNOTS.);
#179 = CARTESIAN_POINT('',(2.1E+03,-1.42E+03,403.41817353651));
#180 = CARTESIAN_POINT('',(2.1E+03,-1.58E+03,425.64557392882));
#181 = PCURVE('',#56,#182);
#182 = DEFINITIONAL_REPRESENTATION('',(#183),#187);
#183 = LINE('',#184,#185);
#184 = CARTESIAN_POINT('',(0.,0.));
#185 = VECTOR('',#186,1.);
#186 = DIRECTION('',(0.,1.));
#187 = ( GEOMETRIC_REPRESENTATION_CONTEXT(2) 
PARAMETRIC_REPRESENTATION_CONTEXT() REPRESENTATION_CONTEXT('2D SPACE',''
  ) );
#188 = PCURVE('',#189,#194);
#189 = B_SPLINE_SURFACE_WITH_KNOTS('',1,1,(
    (#190,#191)
    ,(#192,#193)),.UNSPECIFIED.,.F.,.F.,.F.,(2,2),(2,2),(0.,4.),(0.,1.),
  .PIECEWISE_BEZIER_KNOTS.);
#190 = CARTESIAN_POINT('',(2.1E+03,-1.42E+03,399.41817353651));
#191 = CARTESIAN_POINT('',(2.1E+03,-1.58E+03,421.64557392882));
#192 = CARTESIAN_POINT('',(2.1E+03,-1.42E+03,403.41817353651));
#193 = CARTESIAN_POINT('',(2.1E+03,-1.58E+03,425.64557392882));
#194 = DEFINITIONAL_REPRESENTATION('',(#195),#199);
#195 = LINE('',#196,#197);
#196 = CARTESIAN_POINT('',(4.,0.));
#197 = VECTOR('',#198,1.);
#198 = DIRECTION('',(0.,1.));
#199 = ( GEOMETRIC_REPRESENTATION_CONTEXT(2) 
PARAMETRIC_REPRESENTATION_CONTEXT() REPRESENTATION_CONTEXT('2D SPACE',''
  ) );
#200 = ADVANCED_FACE('',(#201),#125,.F.);
#201 = FACE_BOUND('',#202,.F.);
#202 = EDGE_LOOP('',(#203,#226,#277,#298));
#203 = ORIENTED_EDGE('',*,*,#204,.T.);
#204 = EDGE_CURVE('',#42,#205,#207,.T.);
#205 = VERTEX_POINT('',#206);
#206 = CARTESIAN_POINT('',(2.3E+03,-1.42E+03,487.93449799025));
#207 = SURFACE_CURVE('',#208,(#212,#219),.PCURVE_S1.);
#208 = LINE('',#209,#210);
#209 = CARTESIAN_POINT('',(2.3E+03,-1.42E+03,491.93449799025));
#210 = VECTOR('',#211,1.);
#211 = DIRECTION('',(0.,0.,-1.));
#212 = PCURVE('',#125,#213);
#213 = DEFINITIONAL_REPRESENTATION('',(#214),#218);
#214 = LINE('',#215,#216);
#215 = CARTESIAN_POINT('',(0.,0.));
#216 = VECTOR('',#217,1.);
#217 = DIRECTION('',(1.,0.));
#218 = ( GEOMETRIC_REPRESENTATION_CONTEXT(2) 
PARAMETRIC_REPRESENTATION_CONTEXT() REPRESENTATION_CONTEXT('2D SPACE',''
  ) );
#219 = PCURVE('',#92,#220);
#220 = DEFINITIONAL_REPRESENTATION('',(#221),#225);
#221 = LINE('',#222,#223);
#222 = CARTESIAN_POINT('',(218.71245893821,5.571249707781E-15));
#223 = VECTOR('',#224,1.);
#224 = DIRECTION('',(-0.404715510417,-0.914442647533));
#225 = ( GEOMETRIC_REPRESENTATION_CONTEXT(2) 
PARAMETRIC_REPRESENTATION_CONTEXT() REPRESENTATION_CONTEXT('2D SPACE',''
  ) );
#226 = ORIENTED_EDGE('',*,*,#227,.T.);
#227 = EDGE_CURVE('',#205,#228,#230,.T.);
#228 = VERTEX_POINT('',#229);
#229 = CARTESIAN_POINT('',(2.3E+03,-1.58E+03,509.22505570985));
#230 = SURFACE_CURVE('',#231,(#234,#241),.PCURVE_S1.);
#231 = B_SPLINE_CURVE_WITH_KNOTS('',1,(#232,#233),.UNSPECIFIED.,.F.,.F.,
  (2,2),(0.,1.),.PIECEWISE_BEZIER_KNOTS.);
#232 = CARTESIAN_POINT('',(2.3E+03,-1.42E+03,487.93449799025));
#233 = CARTESIAN_POINT('',(2.3E+03,-1.58E+03,509.22505570985));
#234 = PCURVE('',#125,#235);
#235 = DEFINITIONAL_REPRESENTATION('',(#236),#240);
#236 = LINE('',#237,#238);
#237 = CARTESIAN_POINT('',(4.,0.));
#238 = VECTOR('',#239,1.);
#239 = DIRECTION('',(0.,1.));
#240 = ( GEOMETRIC_REPRESENTATION_CONTEXT(2) 
PARAMETRIC_REPRESENTATION_CONTEXT() REPRESENTATION_CONTEXT('2D SPACE',''
  ) );
#241 = PCURVE('',#242,#271);
#242 = B_SPLINE_SURFACE_WITH_KNOTS('',3,1,(
    (#243,#244)
    ,(#245,#246)
    ,(#247,#248)
    ,(#249,#250)
    ,(#251,#252)
    ,(#253,#254)
    ,(#255,#256)
    ,(#257,#258)
    ,(#259,#260)
    ,(#261,#262)
    ,(#263,#264)
    ,(#265,#266)
    ,(#267,#268)
    ,(#269,#270
    )),.UNSPECIFIED.,.F.,.F.,.F.,(4,1,1,1,1,1,1,1,1,1,1,4),(2,2),(0.,
    35.590424628366,35.597584385232,71.494452705616,71.507183372628,
    107.74176615001,107.75761418773,144.3647944258,144.38033062551,
    181.39916142076,181.40984309061,218.88421718815),(0.,1.),
  .UNSPECIFIED.);
#243 = CARTESIAN_POINT('',(2.3E+03,-1.42E+03,487.93449799025));
#244 = CARTESIAN_POINT('',(2.3E+03,-1.58E+03,509.22505570985));
#245 = CARTESIAN_POINT('',(2.288845080596E+03,-1.42E+03,483.89529768755)
  );
#246 = CARTESIAN_POINT('',(2.288842661387E+03,-1.58E+03,505.25202590849)
  );
#247 = CARTESIAN_POINT('',(2.27773295926E+03,-1.42E+03,479.73077704907)
  );
#248 = CARTESIAN_POINT('',(2.277728275823E+03,-1.58E+03,501.15114718422)
  );
#249 = CARTESIAN_POINT('',(2.255511804422E+03,-1.42E+03,471.11774048075)
  );
#250 = CARTESIAN_POINT('',(2.255503117573E+03,-1.58E+03,492.66086052711)
  );
#251 = CARTESIAN_POINT('',(2.244397437649E+03,-1.42E+03,466.66464012935)
  );
#252 = CARTESIAN_POINT('',(2.244387015304E+03,-1.58E+03,488.26685777336)
  );
#253 = CARTESIAN_POINT('',(2.222176975865E+03,-1.42E+03,457.46761578496)
  );
#254 = CARTESIAN_POINT('',(2.222163857834E+03,-1.58E+03,479.18341792888)
  );
#255 = CARTESIAN_POINT('',(2.211060869347E+03,-1.42E+03,452.71673185867)
  );
#256 = CARTESIAN_POINT('',(2.211046797385E+03,-1.58E+03,474.48702838612)
  );
#257 = CARTESIAN_POINT('',(2.188839992458E+03,-1.42E+03,442.91558579311)
  );
#258 = CARTESIAN_POINT('',(2.188825058447E+03,-1.58E+03,464.790187159));
#259 = CARTESIAN_POINT('',(2.177722934064E+03,-1.42E+03,437.85674736877)
  );
#260 = CARTESIAN_POINT('',(2.177708102367E+03,-1.58E+03,459.7811688833)
  );
#261 = CARTESIAN_POINT('',(2.155500241114E+03,-1.42E+03,427.42870374983)
  );
#262 = CARTESIAN_POINT('',(2.155486952407E+03,-1.58E+03,449.44801203237)
  );
#263 = CARTESIAN_POINT('',(2.144383277065E+03,-1.42E+03,422.05063624381)
  );
#264 = CARTESIAN_POINT('',(2.144371444942E+03,-1.58E+03,444.11500673015)
  );
#265 = CARTESIAN_POINT('',(2.122157050287E+03,-1.42E+03,410.96992103325)
  );
#266 = CARTESIAN_POINT('',(2.122149792819E+03,-1.58E+03,433.11959787547)
  );
#267 = CARTESIAN_POINT('',(2.111041562305E+03,-1.42E+03,405.26017492589)
  );
#268 = CARTESIAN_POINT('',(2.111037444451E+03,-1.58E+03,427.45006157672)
  );
#269 = CARTESIAN_POINT('',(2.1E+03,-1.42E+03,399.41817353651));
#270 = CARTESIAN_POINT('',(2.1E+03,-1.58E+03,421.64557392882));
#271 = DEFINITIONAL_REPRESENTATION('',(#272),#276);
#272 = LINE('',#273,#274);
#273 = CARTESIAN_POINT('',(0.,0.));
#274 = VECTOR('',#275,1.);
#275 = DIRECTION('',(0.,1.));
#276 = ( GEOMETRIC_REPRESENTATION_CONTEXT(2) 
PARAMETRIC_REPRESENTATION_CONTEXT() REPRESENTATION_CONTEXT('2D SPACE',''
  ) );
#277 = ORIENTED_EDGE('',*,*,#278,.F.);
#278 = EDGE_CURVE('',#111,#228,#279,.T.);
#279 = SURFACE_CURVE('',#280,(#284,#291),.PCURVE_S1.);
#280 = LINE('',#281,#282);
#281 = CARTESIAN_POINT('',(2.3E+03,-1.58E+03,513.22505570985));
#282 = VECTOR('',#283,1.);
#283 = DIRECTION('',(0.,0.,-1.));
#284 = PCURVE('',#125,#285);
#285 = DEFINITIONAL_REPRESENTATION('',(#286),#290);
#286 = LINE('',#287,#288);
#287 = CARTESIAN_POINT('',(0.,1.));
#288 = VECTOR('',#289,1.);
#289 = DIRECTION('',(1.,0.));
#290 = ( GEOMETRIC_REPRESENTATION_CONTEXT(2) 
PARAMETRIC_REPRESENTATION_CONTEXT() REPRESENTATION_CONTEXT('2D SPACE',''
  ) );
#291 = PCURVE('',#158,#292);
#292 = DEFINITIONAL_REPRESENTATION('',(#293),#297);
#293 = LINE('',#294,#295);
#294 = CARTESIAN_POINT('',(218.33498489484,5.07818032319E-16));
#295 = VECTOR('',#296,1.);
#296 = DIRECTION('',(-0.401124363204,-0.916023605179));
#297 = ( GEOMETRIC_REPRESENTATION_CONTEXT(2) 
PARAMETRIC_REPRESENTATION_CONTEXT() REPRESENTATION_CONTEXT('2D SPACE',''
  ) );
#298 = ORIENTED_EDGE('',*,*,#110,.F.);
#299 = ADVANCED_FACE('',(#300),#242,.F.);
#300 = FACE_BOUND('',#301,.F.);
#301 = EDGE_LOOP('',(#302,#337,#359,#391));
#302 = ORIENTED_EDGE('',*,*,#303,.T.);
#303 = EDGE_CURVE('',#205,#304,#306,.T.);
#304 = VERTEX_POINT('',#305);
#305 = CARTESIAN_POINT('',(2.1E+03,-1.42E+03,399.41817353651));
#306 = SURFACE_CURVE('',#307,(#317,#324),.PCURVE_S1.);
#307 = B_SPLINE_CURVE_WITH_KNOTS('',3,(#308,#309,#310,#311,#312,#313,
    #314,#315,#316),.UNSPECIFIED.,.F.,.F.,(4,1,1,1,1,1,4),(0.,
    35.597584385232,71.507183372628,107.75761418773,144.38033062551,
    181.40984309061,218.88421718815),.UNSPECIFIED.);
#308 = CARTESIAN_POINT('',(2.3E+03,-1.42E+03,487.93449799025));
#309 = CARTESIAN_POINT('',(2.288842836551E+03,-1.42E+03,483.89448511809)
  );
#310 = CARTESIAN_POINT('',(2.266521213782E+03,-1.42E+03,475.52889129586)
  );
#311 = CARTESIAN_POINT('',(2.233175894772E+03,-1.42E+03,462.16854624648)
  );
#312 = CARTESIAN_POINT('',(2.199829710229E+03,-1.42E+03,447.91660934863)
  );
#313 = CARTESIAN_POINT('',(2.166482562784E+03,-1.42E+03,432.74172820718)
  );
#314 = CARTESIAN_POINT('',(2.133134288027E+03,-1.42E+03,416.60865147408)
  );
#315 = CARTESIAN_POINT('',(2.111041562305E+03,-1.42E+03,405.26017492589)
  );
#316 = CARTESIAN_POINT('',(2.1E+03,-1.42E+03,399.41817353651));
#317 = PCURVE('',#242,#318);
#318 = DEFINITIONAL_REPRESENTATION('',(#319),#323);
#319 = LINE('',#320,#321);
#320 = CARTESIAN_POINT('',(0.,0.));
#321 = VECTOR('',#322,1.);
#322 = DIRECTION('',(1.,0.));
#323 = ( GEOMETRIC_REPRESENTATION_CONTEXT(2) 
PARAMETRIC_REPRESENTATION_CONTEXT() REPRESENTATION_CONTEXT('2D SPACE',''
  ) );
#324 = PCURVE('',#92,#325);
#325 = DEFINITIONAL_REPRESENTATION('',(#326),#336);
#326 = B_SPLINE_CURVE_WITH_KNOTS('',3,(#327,#328,#329,#330,#331,#332,
    #333,#334,#335),.UNSPECIFIED.,.F.,.F.,(4,1,1,1,1,1,4),(0.,
    35.597584385232,71.507183372628,107.75761418773,144.38033062551,
    181.40984309061,218.88421718815),.UNSPECIFIED.);
#327 = CARTESIAN_POINT('',(217.09359689654,-3.657770590134));
#328 = CARTESIAN_POINT('',(205.25595494186,-2.836653557056));
#329 = CARTESIAN_POINT('',(181.45842554589,-1.452602367688));
#330 = CARTESIAN_POINT('',(145.55890488131,-0.174503863361));
#331 = CARTESIAN_POINT('',(109.29775168656,0.288635325106));
#332 = CARTESIAN_POINT('',(72.662188122732,-9.181536280005E-02));
#333 = CARTESIAN_POINT('',(35.637797078862,-1.348024723759));
#334 = CARTESIAN_POINT('',(10.842361999157,-2.784286896616));
#335 = CARTESIAN_POINT('',(-1.618862041668,-3.657770590134));
#336 = ( GEOMETRIC_REPRESENTATION_CONTEXT(2) 
PARAMETRIC_REPRESENTATION_CONTEXT() REPRESENTATION_CONTEXT('2D SPACE',''
  ) );
#337 = ORIENTED_EDGE('',*,*,#338,.T.);
#338 = EDGE_CURVE('',#304,#339,#341,.T.);
#339 = VERTEX_POINT('',#340);
#340 = CARTESIAN_POINT('',(2.1E+03,-1.58E+03,421.64557392882));
#341 = SURFACE_CURVE('',#342,(#345,#352),.PCURVE_S1.);
#342 = B_SPLINE_CURVE_WITH_KNOTS('',1,(#343,#344),.UNSPECIFIED.,.F.,.F.,
  (2,2),(0.,1.),.PIECEWISE_BEZIER_KNOTS.);
#343 = CARTESIAN_POINT('',(2.1E+03,-1.42E+03,399.41817353651));
#344 = CARTESIAN_POINT('',(2.1E+03,-1.58E+03,421.64557392882));
#345 = PCURVE('',#242,#346);
#346 = DEFINITIONAL_REPRESENTATION('',(#347),#351);
#347 = LINE('',#348,#349);
#348 = CARTESIAN_POINT('',(218.88421718815,0.));
#349 = VECTOR('',#350,1.);
#350 = DIRECTION('',(0.,1.));
#351 = ( GEOMETRIC_REPRESENTATION_CONTEXT(2) 
PARAMETRIC_REPRESENTATION_CONTEXT() REPRESENTATION_CONTEXT('2D SPACE',''
  ) );
#352 = PCURVE('',#189,#353);
#353 = DEFINITIONAL_REPRESENTATION('',(#354),#358);
#354 = LINE('',#355,#356);
#355 = CARTESIAN_POINT('',(0.,0.));
#356 = VECTOR('',#357,1.);
#357 = DIRECTION('',(0.,1.));
#358 = ( GEOMETRIC_REPRESENTATION_CONTEXT(2) 
PARAMETRIC_REPRESENTATION_CONTEXT() REPRESENTATION_CONTEXT('2D SPACE',''
  ) );
#359 = ORIENTED_EDGE('',*,*,#360,.F.);
#360 = EDGE_CURVE('',#228,#339,#361,.T.);
#361 = SURFACE_CURVE('',#362,(#372,#378),.PCURVE_S1.);
#362 = B_SPLINE_CURVE_WITH_KNOTS('',3,(#363,#364,#365,#366,#367,#368,
    #369,#370,#371),.UNSPECIFIED.,.F.,.F.,(4,1,1,1,1,1,4),(0.,
    35.530139268973,71.373350785058,107.55926618937,144.12026001503,
    181.09189580778,218.51345696721),.UNSPECIFIED.);
#363 = CARTESIAN_POINT('',(2.3E+03,-1.58E+03,509.22505570985));
#364 = CARTESIAN_POINT('',(2.288842661387E+03,-1.58E+03,505.25202590849)
  );
#365 = CARTESIAN_POINT('',(2.266520446923E+03,-1.58E+03,497.01579063952)
  );
#366 = CARTESIAN_POINT('',(2.233174742631E+03,-1.58E+03,483.83490014164)
  );
#367 = CARTESIAN_POINT('',(2.199828135183E+03,-1.58E+03,469.74782591761)
  );
#368 = CARTESIAN_POINT('',(2.166480520297E+03,-1.58E+03,454.72244419657)
  );
#369 = CARTESIAN_POINT('',(2.133131722427E+03,-1.58E+03,438.7225455391)
  );
#370 = CARTESIAN_POINT('',(2.111040590556E+03,-1.58E+03,427.45171608389)
  );
#371 = CARTESIAN_POINT('',(2.1E+03,-1.58E+03,421.64557392882));
#372 = PCURVE('',#242,#373);
#373 = DEFINITIONAL_REPRESENTATION('',(#374),#377);
#374 = B_SPLINE_CURVE_WITH_KNOTS('',1,(#375,#376),.UNSPECIFIED.,.F.,.F.,
  (2,2),(0.,218.51345696721),.PIECEWISE_BEZIER_KNOTS.);
#375 = CARTESIAN_POINT('',(0.,1.));
#376 = CARTESIAN_POINT('',(218.88421718815,1.));
#377 = ( GEOMETRIC_REPRESENTATION_CONTEXT(2) 
PARAMETRIC_REPRESENTATION_CONTEXT() REPRESENTATION_CONTEXT('2D SPACE',''
  ) );
#378 = PCURVE('',#158,#379);
#379 = DEFINITIONAL_REPRESENTATION('',(#380),#390);
#380 = B_SPLINE_CURVE_WITH_KNOTS('',3,(#381,#382,#383,#384,#385,#386,
    #387,#388,#389),.UNSPECIFIED.,.F.,.F.,(4,1,1,1,1,1,4),(0.,
    35.530139268973,71.373350785058,107.55926618937,144.12026001503,
    181.09189580778,218.51345696721),.UNSPECIFIED.);
#381 = CARTESIAN_POINT('',(216.73048744203,-3.664094420714));
#382 = CARTESIAN_POINT('',(204.9164228526,-2.828003156698));
#383 = CARTESIAN_POINT('',(181.1649928561,-1.41860501864));
#384 = CARTESIAN_POINT('',(145.33236428582,-0.116837452231));
#385 = CARTESIAN_POINT('',(109.13541603323,0.355206708271));
#386 = CARTESIAN_POINT('',(72.561166946453,-3.185683948959E-02));
#387 = CARTESIAN_POINT('',(35.594931733292,-1.311126381166));
#388 = CARTESIAN_POINT('',(10.837929186293,-2.774181007849));
#389 = CARTESIAN_POINT('',(-1.604497452815,-3.664094420715));
#390 = ( GEOMETRIC_REPRESENTATION_CONTEXT(2) 
PARAMETRIC_REPRESENTATION_CONTEXT() REPRESENTATION_CONTEXT('2D SPACE',''
  ) );
#391 = ORIENTED_EDGE('',*,*,#227,.F.);
#392 = ADVANCED_FACE('',(#393),#189,.F.);
#393 = FACE_BOUND('',#394,.F.);
#394 = EDGE_LOOP('',(#395,#416,#417,#438));
#395 = ORIENTED_EDGE('',*,*,#396,.T.);
#396 = EDGE_CURVE('',#304,#40,#397,.T.);
#397 = SURFACE_CURVE('',#398,(#402,#409),.PCURVE_S1.);
#398 = LINE('',#399,#400);
#399 = CARTESIAN_POINT('',(2.1E+03,-1.42E+03,399.41817353651));
#400 = VECTOR('',#401,1.);
#401 = DIRECTION('',(0.,0.,1.));
#402 = PCURVE('',#189,#403);
#403 = DEFINITIONAL_REPRESENTATION('',(#404),#408);
#404 = LINE('',#405,#406);
#405 = CARTESIAN_POINT('',(0.,0.));
#406 = VECTOR('',#407,1.);
#407 = DIRECTION('',(1.,0.));
#408 = ( GEOMETRIC_REPRESENTATION_CONTEXT(2) 
PARAMETRIC_REPRESENTATION_CONTEXT() REPRESENTATION_CONTEXT('2D SPACE',''
  ) );
#409 = PCURVE('',#92,#410);
#410 = DEFINITIONAL_REPRESENTATION('',(#411),#415);
#411 = LINE('',#412,#413);
#412 = CARTESIAN_POINT('',(-1.618862041668,-3.657770590134));
#413 = VECTOR('',#414,1.);
#414 = DIRECTION('',(0.404715510417,0.914442647533));
#415 = ( GEOMETRIC_REPRESENTATION_CONTEXT(2) 
PARAMETRIC_REPRESENTATION_CONTEXT() REPRESENTATION_CONTEXT('2D SPACE',''
  ) );
#416 = ORIENTED_EDGE('',*,*,#176,.T.);
#417 = ORIENTED_EDGE('',*,*,#418,.F.);
#418 = EDGE_CURVE('',#339,#138,#419,.T.);
#419 = SURFACE_CURVE('',#420,(#424,#431),.PCURVE_S1.);
#420 = LINE('',#421,#422);
#421 = CARTESIAN_POINT('',(2.1E+03,-1.58E+03,421.64557392882));
#422 = VECTOR('',#423,1.);
#423 = DIRECTION('',(0.,0.,1.));
#424 = PCURVE('',#189,#425);
#425 = DEFINITIONAL_REPRESENTATION('',(#426),#430);
#426 = LINE('',#427,#428);
#427 = CARTESIAN_POINT('',(0.,1.));
#428 = VECTOR('',#429,1.);
#429 = DIRECTION('',(1.,0.));
#430 = ( GEOMETRIC_REPRESENTATION_CONTEXT(2) 
PARAMETRIC_REPRESENTATION_CONTEXT() REPRESENTATION_CONTEXT('2D SPACE',''
  ) );
#431 = PCURVE('',#158,#432);
#432 = DEFINITIONAL_REPRESENTATION('',(#433),#437);
#433 = LINE('',#434,#435);
#434 = CARTESIAN_POINT('',(-1.604497452815,-3.664094420715));
#435 = VECTOR('',#436,1.);
#436 = DIRECTION('',(0.401124363204,0.916023605179));
#437 = ( GEOMETRIC_REPRESENTATION_CONTEXT(2) 
PARAMETRIC_REPRESENTATION_CONTEXT() REPRESENTATION_CONTEXT('2D SPACE',''
  ) );
#438 = ORIENTED_EDGE('',*,*,#338,.F.);
#439 = ADVANCED_FACE('',(#440),#92,.F.);
#440 = FACE_BOUND('',#441,.T.);
#441 = EDGE_LOOP('',(#442,#443,#444,#445));
#442 = ORIENTED_EDGE('',*,*,#39,.T.);
#443 = ORIENTED_EDGE('',*,*,#204,.T.);
#444 = ORIENTED_EDGE('',*,*,#303,.T.);
#445 = ORIENTED_EDGE('',*,*,#396,.T.);
#446 = ADVANCED_FACE('',(#447),#158,.T.);
#447 = FACE_BOUND('',#448,.F.);
#448 = EDGE_LOOP('',(#449,#450,#451,#452));
#449 = ORIENTED_EDGE('',*,*,#137,.T.);
#450 = ORIENTED_EDGE('',*,*,#278,.T.);
#451 = ORIENTED_EDGE('',*,*,#360,.T.);
#452 = ORIENTED_EDGE('',*,*,#418,.T.);
#453 = MANIFOLD_SOLID_BREP('',#454);
#454 = CLOSED_SHELL('',(#455,#543,#547));
#455 = ADVANCED_FACE('',(#456),#469,.T.);
#456 = FACE_BOUND('',#457,.T.);
#457 = EDGE_LOOP('',(#458,#492,#515,#542));
#458 = ORIENTED_EDGE('',*,*,#459,.F.);
#459 = EDGE_CURVE('',#460,#460,#462,.T.);
#460 = VERTEX_POINT('',#461);
#461 = CARTESIAN_POINT('',(1.961925205301E+03,-1.5E+03,260.13188864393)
  );
#462 = SURFACE_CURVE('',#463,(#468,#480),.PCURVE_S1.);
#463 = CIRCLE('',#464,3.);
#464 = AXIS2_PLACEMENT_3D('',#465,#466,#467);
#465 = CARTESIAN_POINT('',(1.96E+03,-1.5E+03,262.43266776191));
#466 = DIRECTION('',(-0.766926372659,0.,-0.641735100272));
#467 = DIRECTION('',(0.641735100272,0.,-0.766926372659));
#468 = PCURVE('',#469,#474);
#469 = CYLINDRICAL_SURFACE('',#470,3.);
#470 = AXIS2_PLACEMENT_3D('',#471,#472,#473);
#471 = CARTESIAN_POINT('',(2.2E+03,-1.5E+03,463.25562750875));
#472 = DIRECTION('',(-0.766926372659,0.,-0.641735100272));
#473 = DIRECTION('',(0.641735100272,0.,-0.766926372659));
#474 = DEFINITIONAL_REPRESENTATION('',(#475),#479);
#475 = LINE('',#476,#477);
#476 = CARTESIAN_POINT('',(0.,312.93747164806));
#477 = VECTOR('',#478,1.);
#478 = DIRECTION('',(1.,0.));
#479 = ( GEOMETRIC_REPRESENTATION_CONTEXT(2) 
PARAMETRIC_REPRESENTATION_CONTEXT() REPRESENTATION_CONTEXT('2D SPACE',''
  ) );
#480 = PCURVE('',#481,#486);
#481 = PLANE('',#482);
#482 = AXIS2_PLACEMENT_3D('',#483,#484,#485);
#483 = CARTESIAN_POINT('',(1.96E+03,-1.5E+03,262.43266776191));
#484 = DIRECTION('',(-0.766926372659,0.,-0.641735100272));
#485 = DIRECTION('',(0.641735100272,0.,-0.766926372659));
#486 = DEFINITIONAL_REPRESENTATION('',(#487),#491);
#487 = CIRCLE('',#488,3.);
#488 = AXIS2_PLACEMENT_2D('',#489,#490);
#489 = CARTESIAN_POINT('',(0.,0.));
#490 = DIRECTION('',(1.,0.));
#491 = ( GEOMETRIC_REPRESENTATION_CONTEXT(2) 
PARAMETRIC_REPRESENTATION_CONTEXT() REPRESENTATION_CONTEXT('2D SPACE',''
  ) );
#492 = ORIENTED_EDGE('',*,*,#493,.F.);
#493 = EDGE_CURVE('',#494,#460,#496,.T.);
#494 = VERTEX_POINT('',#495);
#495 = CARTESIAN_POINT('',(2.201925205301E+03,-1.5E+03,460.95484839077)
  );
#496 = SEAM_CURVE('',#497,(#501,#508),.PCURVE_S1.);
#497 = LINE('',#498,#499);
#498 = CARTESIAN_POINT('',(2.201925205301E+03,-1.5E+03,460.95484839077)
  );
#499 = VECTOR('',#500,1.);
#500 = DIRECTION('',(-0.766926372659,1.413026567079E-32,-0.641735100272)
  );
#501 = PCURVE('',#469,#502);
#502 = DEFINITIONAL_REPRESENTATION('',(#503),#507);
#503 = LINE('',#504,#505);
#504 = CARTESIAN_POINT('',(6.28318530718,-0.));
#505 = VECTOR('',#506,1.);
#506 = DIRECTION('',(0.,1.));
#507 = ( GEOMETRIC_REPRESENTATION_CONTEXT(2) 
PARAMETRIC_REPRESENTATION_CONTEXT() REPRESENTATION_CONTEXT('2D SPACE',''
  ) );
#508 = PCURVE('',#469,#509);
#509 = DEFINITIONAL_REPRESENTATION('',(#510),#514);
#510 = LINE('',#511,#512);
#511 = CARTESIAN_POINT('',(0.,-0.));
#512 = VECTOR('',#513,1.);
#513 = DIRECTION('',(0.,1.));
#514 = ( GEOMETRIC_REPRESENTATION_CONTEXT(2) 
PARAMETRIC_REPRESENTATION_CONTEXT() REPRESENTATION_CONTEXT('2D SPACE',''
  ) );
#515 = ORIENTED_EDGE('',*,*,#516,.T.);
#516 = EDGE_CURVE('',#494,#494,#517,.T.);
#517 = SURFACE_CURVE('',#518,(#523,#530),.PCURVE_S1.);
#518 = CIRCLE('',#519,3.);
#519 = AXIS2_PLACEMENT_3D('',#520,#521,#522);
#520 = CARTESIAN_POINT('',(2.2E+03,-1.5E+03,463.25562750875));
#521 = DIRECTION('',(-0.766926372659,0.,-0.641735100272));
#522 = DIRECTION('',(0.641735100272,0.,-0.766926372659));
#523 = PCURVE('',#469,#524);
#524 = DEFINITIONAL_REPRESENTATION('',(#525),#529);
#525 = LINE('',#526,#527);
#526 = CARTESIAN_POINT('',(0.,0.));
#527 = VECTOR('',#528,1.);
#528 = DIRECTION('',(1.,0.));
#529 = ( GEOMETRIC_REPRESENTATION_CONTEXT(2) 
PARAMETRIC_REPRESENTATION_CONTEXT() REPRESENTATION_CONTEXT('2D SPACE',''
  ) );
#530 = PCURVE('',#531,#536);
#531 = PLANE('',#532);
#532 = AXIS2_PLACEMENT_3D('',#533,#534,#535);
#533 = CARTESIAN_POINT('',(2.2E+03,-1.5E+03,463.25562750875));
#534 = DIRECTION('',(-0.766926372659,0.,-0.641735100272));
#535 = DIRECTION('',(0.641735100272,0.,-0.766926372659));
#536 = DEFINITIONAL_REPRESENTATION('',(#537),#541);
#537 = CIRCLE('',#538,3.);
#538 = AXIS2_PLACEMENT_2D('',#539,#540);
#539 = CARTESIAN_POINT('',(0.,0.));
#540 = DIRECTION('',(1.,0.));
#541 = ( GEOMETRIC_REPRESENTATION_CONTEXT(2) 
PARAMETRIC_REPRESENTATION_CONTEXT() REPRESENTATION_CONTEXT('2D SPACE',''
  ) );
#542 = ORIENTED_EDGE('',*,*,#493,.T.);
#543 = ADVANCED_FACE('',(#544),#481,.T.);
#544 = FACE_BOUND('',#545,.T.);
#545 = EDGE_LOOP('',(#546));
#546 = ORIENTED_EDGE('',*,*,#459,.T.);
#547 = ADVANCED_FACE('',(#548),#531,.F.);
#548 = FACE_BOUND('',#549,.T.);
#549 = EDGE_LOOP('',(#550));
#550 = ORIENTED_EDGE('',*,*,#516,.F.);
#551 = MANIFOLD_SOLID_BREP('',#552);
#552 = CLOSED_SHELL('',(#553,#641,#645));
#553 = ADVANCED_FACE('',(#554),#567,.T.);
#554 = FACE_BOUND('',#555,.T.);
#555 = EDGE_LOOP('',(#556,#590,#613,#640));
#556 = ORIENTED_EDGE('',*,*,#557,.F.);
#557 = EDGE_CURVE('',#558,#558,#560,.T.);
#558 = VERTEX_POINT('',#559);
#559 = CARTESIAN_POINT('',(1.899051316702E+03,-1.5E+03,279.58661786776)
  );
#560 = SURFACE_CURVE('',#561,(#566,#578),.PCURVE_S1.);
#561 = CIRCLE('',#562,3.);
#562 = AXIS2_PLACEMENT_3D('',#563,#564,#565);
#563 = CARTESIAN_POINT('',(1.9E+03,-1.5E+03,282.43266776191));
#564 = DIRECTION('',(-0.948683298051,0.,0.316227766017));
#565 = DIRECTION('',(-0.316227766017,0.,-0.948683298051));
#566 = PCURVE('',#567,#572);
#567 = CYLINDRICAL_SURFACE('',#568,3.);
#568 = AXIS2_PLACEMENT_3D('',#569,#570,#571);
#569 = CARTESIAN_POINT('',(1.96E+03,-1.5E+03,262.43266776191));
#570 = DIRECTION('',(-0.948683298051,0.,0.316227766017));
#571 = DIRECTION('',(-0.316227766017,0.,-0.948683298051));
#572 = DEFINITIONAL_REPRESENTATION('',(#573),#577);
#573 = LINE('',#574,#575);
#574 = CARTESIAN_POINT('',(0.,63.245553203368));
#575 = VECTOR('',#576,1.);
#576 = DIRECTION('',(1.,0.));
#577 = ( GEOMETRIC_REPRESENTATION_CONTEXT(2) 
PARAMETRIC_REPRESENTATION_CONTEXT() REPRESENTATION_CONTEXT('2D SPACE',''
  ) );
#578 = PCURVE('',#579,#584);
#579 = PLANE('',#580);
#580 = AXIS2_PLACEMENT_3D('',#581,#582,#583);
#581 = CARTESIAN_POINT('',(1.9E+03,-1.5E+03,282.43266776191));
#582 = DIRECTION('',(-0.948683298051,0.,0.316227766017));
#583 = DIRECTION('',(-0.316227766017,0.,-0.948683298051));
#584 = DEFINITIONAL_REPRESENTATION('',(#585),#589);
#585 = CIRCLE('',#586,3.);
#586 = AXIS2_PLACEMENT_2D('',#587,#588);
#587 = CARTESIAN_POINT('',(0.,0.));
#588 = DIRECTION('',(1.,0.));
#589 = ( GEOMETRIC_REPRESENTATION_CONTEXT(2) 
PARAMETRIC_REPRESENTATION_CONTEXT() REPRESENTATION_CONTEXT('2D SPACE',''
  ) );
#590 = ORIENTED_EDGE('',*,*,#591,.F.);
#591 = EDGE_CURVE('',#592,#558,#594,.T.);
#592 = VERTEX_POINT('',#593);
#593 = CARTESIAN_POINT('',(1.959051316702E+03,-1.5E+03,259.58661786776)
  );
#594 = SEAM_CURVE('',#595,(#599,#606),.PCURVE_S1.);
#595 = LINE('',#596,#597);
#596 = CARTESIAN_POINT('',(1.959051316702E+03,-1.5E+03,259.58661786776)
  );
#597 = VECTOR('',#598,1.);
#598 = DIRECTION('',(-0.948683298051,-4.441312885856E-33,0.316227766017)
  );
#599 = PCURVE('',#567,#600);
#600 = DEFINITIONAL_REPRESENTATION('',(#601),#605);
#601 = LINE('',#602,#603);
#602 = CARTESIAN_POINT('',(6.28318530718,-0.));
#603 = VECTOR('',#604,1.);
#604 = DIRECTION('',(0.,1.));
#605 = ( GEOMETRIC_REPRESENTATION_CONTEXT(2) 
PARAMETRIC_REPRESENTATION_CONTEXT() REPRESENTATION_CONTEXT('2D SPACE',''
  ) );
#606 = PCURVE('',#567,#607);
#607 = DEFINITIONAL_REPRESENTATION('',(#608),#612);
#608 = LINE('',#609,#610);
#609 = CARTESIAN_POINT('',(0.,-0.));
#610 = VECTOR('',#611,1.);
#611 = DIRECTION('',(0.,1.));
#612 = ( GEOMETRIC_REPRESENTATION_CONTEXT(2) 
PARAMETRIC_REPRESENTATION_CONTEXT() REPRESENTATION_CONTEXT('2D SPACE',''
  ) );
#613 = ORIENTED_EDGE('',*,*,#614,.T.);
#614 = EDGE_CURVE('',#592,#592,#615,.T.);
#615 = SURFACE_CURVE('',#616,(#621,#628),.PCURVE_S1.);
#616 = CIRCLE('',#617,3.);
#617 = AXIS2_PLACEMENT_3D('',#618,#619,#620);
#618 = CARTESIAN_POINT('',(1.96E+03,-1.5E+03,262.43266776191));
#619 = DIRECTION('',(-0.948683298051,0.,0.316227766017));
#620 = DIRECTION('',(-0.316227766017,0.,-0.948683298051));
#621 = PCURVE('',#567,#622);
#622 = DEFINITIONAL_REPRESENTATION('',(#623),#627);
#623 = LINE('',#624,#625);
#624 = CARTESIAN_POINT('',(0.,0.));
#625 = VECTOR('',#626,1.);
#626 = DIRECTION('',(1.,0.));
#627 = ( GEOMETRIC_REPRESENTATION_CONTEXT(2) 
PARAMETRIC_REPRESENTATION_CONTEXT() REPRESENTATION_CONTEXT('2D SPACE',''
  ) );
#628 = PCURVE('',#629,#634);
#629 = PLANE('',#630);
#630 = AXIS2_PLACEMENT_3D('',#631,#632,#633);
#631 = CARTESIAN_POINT('',(1.96E+03,-1.5E+03,262.43266776191));
#632 = DIRECTION('',(-0.948683298051,0.,0.316227766017));
#633 = DIRECTION('',(-0.316227766017,0.,-0.948683298051));
#634 = DEFINITIONAL_REPRESENTATION('',(#635),#639);
#635 = CIRCLE('',#636,3.);
#636 = AXIS2_PLACEMENT_2D('',#637,#638);
#637 = CARTESIAN_POINT('',(0.,0.));
#638 = DIRECTION('',(1.,0.));
#639 = ( GEOMETRIC_REPRESENTATION_CONTEXT(2) 
PARAMETRIC_REPRESENTATION_CONTEXT() REPRESENTATION_CONTEXT('2D SPACE',''
  ) );
#640 = ORIENTED_EDGE('',*,*,#591,.T.);
#641 = ADVANCED_FACE('',(#642),#579,.T.);
#642 = FACE_BOUND('',#643,.T.);
#643 = EDGE_LOOP('',(#644));
#644 = ORIENTED_EDGE('',*,*,#557,.T.);
#645 = ADVANCED_FACE('',(#646),#629,.F.);
#646 = FACE_BOUND('',#647,.T.);
#647 = EDGE_LOOP('',(#648));
#648 = ORIENTED_EDGE('',*,*,#614,.F.);
#649 = ( GEOMETRIC_REPRESENTATION_CONTEXT(3) 
GLOBAL_UNCERTAINTY_ASSIGNED_CONTEXT((#653)) GLOBAL_UNIT_ASSIGNED_CONTEXT
((#650,#651,#652)) REPRESENTATION_CONTEXT('Context #1',
  '3D Context with UNIT and UNCERTAINTY') );
#650 = ( LENGTH_UNIT() NAMED_UNIT(*) SI_UNIT(.MILLI.,.METRE.) );
#651 = ( NAMED_UNIT(*) PLANE_ANGLE_UNIT() SI_UNIT($,.RADIAN.) );
#652 = ( NAMED_UNIT(*) SI_UNIT($,.STERADIAN.) SOLID_ANGLE_UNIT() );
#653 = UNCERTAINTY_MEASURE_WITH_UNIT(LENGTH_MEASURE(1.E-07),#650,
  'distance_accuracy_value','confusion accuracy');
#654 = CONTEXT_DEPENDENT_SHAPE_REPRESENTATION(#655,#657);
#655 = ( REPRESENTATION_RELATIONSHIP('','',#32,#10) 
REPRESENTATION_RELATIONSHIP_WITH_TRANSFORMATION(#656) 
SHAPE_REPRESENTATION_RELATIONSHIP() );
#656 = ITEM_DEFINED_TRANSFORMATION('','',#11,#15);
#657 = PRODUCT_DEFINITION_SHAPE('Placement','Placement of an item',#658
  );
#658 = NEXT_ASSEMBLY_USAGE_OCCURRENCE('1','uk-left-access-ws1500.body','',#5,#27,$);
#659 = PRODUCT_RELATED_PRODUCT_CATEGORY('part',$,(#29));
ENDSEC;
END-ISO-10303-21;
