ISO-10303-21;
HEADER;
FILE_DESCRIPTION(('Open CASCADE Model'),'2;1');
FILE_NAME('Open CASCADE Shape Model','2026-01-01T00:00:00',('Author'),(
    'Open CASCADE'),'Open CASCADE STEP processor 7.9','Open CASCADE 7.9'
  ,'Unknown');
FILE_SCHEMA((
'AP242_MANAGED_MODEL_BASED_3D_ENGINEERING_MIM_LF {1 0 10303 442 1 1 4 }'
    ));
ENDSEC;
DATA;
#1 = APPLICATION_PROTOCOL_DEFINITION('international standard',
  'ap242_managed_model_based_3d_engineering',2013,#2);
#2 = APPLICATION_CONTEXT('Managed model based 3d engineering');
#3 = SHAPE_DEFINITION_REPRESENTATION(#4,#10);
#4 = PRODUCT_DEFINITION_SHAPE('','',#5);
#5 = PRODUCT_DEFINITION('design','',#6,#9);
#6 = PRODUCT_DEFINITION_FORMATION('','',#7);
#7 = PRODUCT('uk-sail-segment-c','uk-sail-segment-c','',(#8));
#8 = PRODUCT_CONTEXT('',#2,'mechanical');
#9 = PRODUCT_DEFINITION_CONTEXT('part definition',#2,'design');
#10 = SHAPE_REPRESENTATION('',(#11,#15),#19);
#11 = AXIS2_PLACEMENT_3D('',#12,#13,#14);
#12 = CARTESIAN_POINT('',(0.,0.,0.));
#13 = DIRECTION('',(0.,0.,1.));
#14 = DIRECTION('',(1.,0.,-0.));
#15 = AXIS2_PLACEMENT_3D('',#16,#17,#18);
#16 = CARTESIAN_POINT('',(0.,0.,0.));
#17 = DIRECTION('',(0.,0.,1.));
#18 = DIRECTION('',(1.,0.,-0.));
#19 = ( GEOMETRIC_REPRESENTATION_CONTEXT(3) 
GLOBAL_UNCERTAINTY_ASSIGNED_CONTEXT((#23)) GLOBAL_UNIT_ASSIGNED_CONTEXT(
(#20,#21,#22)) REPRESENTATION_CONTEXT('Context #1',
  '3D Context with UNIT and UNCERTAINTY') );
#20 = ( LENGTH_UNIT() NAMED_UNIT(*) SI_UNIT(.MILLI.,.METRE.) );
#21 = ( NAMED_UNIT(*) PLANE_ANGLE_UNIT() SI_UNIT($,.RADIAN.) );
#22 = ( NAMED_UNIT(*) SI_UNIT($,.STERADIAN.) SOLID_ANGLE_UNIT() );
#23 = UNCERTAINTY_MEASURE_WITH_UNIT(LENGTH_MEASURE(2.E-05),#20,
  'distance_accuracy_value','confusion accuracy');
#24 = PRODUCT_RELATED_PRODUCT_CATEGORY('part',$,(#7));
#25 = SHAPE_DEFINITION_REPRESENTATION(#26,#32);
#26 = PRODUCT_DEFINITION_SHAPE('','',#27);
#27 = PRODUCT_DEFINITION('design','',#28,#31);
#28 = PRODUCT_DEFINITION_FORMATION('','',#29);
#29 = PRODUCT('uk-sail-segment-c.body','uk-sail-segment-c.body','',(#30)
  );
#30 = PRODUCT_CONTEXT('',#2,'mechanical');
#31 = PRODUCT_DEFINITION_CONTEXT('part definition',#2,'design');
#32 = ADVANCED_BREP_SHAPE_REPRESENTATION('',(#11,#33),#425);
#33 = MANIFOLD_SOLID_BREP('',#34);
#34 = CLOSED_SHELL('',(#35,#203,#295,#368,#411,#418));
#35 = ADVANCED_FACE('',(#36),#56,.T.);
#36 = FACE_BOUND('',#37,.T.);
#37 = EDGE_LOOP('',(#38,#105,#131,#179));
#38 = ORIENTED_EDGE('',*,*,#39,.F.);
#39 = EDGE_CURVE('',#40,#42,#44,.T.);
#40 = VERTEX_POINT('',#41);
#41 = CARTESIAN_POINT('',(-120.,0.970659720487,2.548047220503E+03));
#42 = VERTEX_POINT('',#43);
#43 = CARTESIAN_POINT('',(0.970658197221,119.99999985826,
    2.736047236122E+03));
#44 = SURFACE_CURVE('',#45,(#55,#81),.PCURVE_S1.);
#45 = B_SPLINE_CURVE_WITH_KNOTS('',8,(#46,#47,#48,#49,#50,#51,#52,#53,
    #54),.UNSPECIFIED.,.F.,.F.,(9,9),(0.,188.00656212244),
  .PIECEWISE_BEZIER_KNOTS.);
#46 = CARTESIAN_POINT('',(-120.,0.970659720487,2.548047220503E+03));
#47 = CARTESIAN_POINT('',(-119.8094108696,24.532616215195,
    2.571547281699E+03));
#48 = CARTESIAN_POINT('',(-114.3315354115,48.0516926331,
    2.595047045049E+03));
#49 = CARTESIAN_POINT('',(-103.577640263,70.144122532594,
    2.618547438976E+03));
#50 = CARTESIAN_POINT('',(-87.99333879643,89.428470775259,
    2.642047228343E+03));
#51 = CARTESIAN_POINT('',(-68.45941013049,104.69878226333,
    2.665547017602E+03));
#52 = CARTESIAN_POINT('',(-46.19591084445,115.09388603513,
    2.689047411597E+03));
#53 = CARTESIAN_POINT('',(-22.59129829762,120.19058868954,
    2.712547174923E+03));
#54 = CARTESIAN_POINT('',(0.970658197221,119.99999985826,
    2.736047236122E+03));
#55 = PCURVE('',#56,#75);
#56 = B_SPLINE_SURFACE_WITH_KNOTS('',1,8,(
    (#57,#58,#59,#60,#61,#62,#63,#64,#65)
    ,(#66,#67,#68,#69,#70,#71,#72,#73,#74
    )),.UNSPECIFIED.,.F.,.F.,.F.,(2,2),(9,9),(0.,2.2144E+03),(0.,
    188.00656212244),.PIECEWISE_BEZIER_KNOTS.);
#57 = CARTESIAN_POINT('',(-120.,0.970659720487,2.548047220503E+03));
#58 = CARTESIAN_POINT('',(-119.8094108696,24.532616215195,
    2.571547281699E+03));
#59 = CARTESIAN_POINT('',(-114.3315354115,48.0516926331,
    2.595047045049E+03));
#60 = CARTESIAN_POINT('',(-103.577640263,70.144122532594,
    2.618547438976E+03));
#61 = CARTESIAN_POINT('',(-87.99333879643,89.428470775259,
    2.642047228343E+03));
#62 = CARTESIAN_POINT('',(-68.45941013049,104.69878226333,
    2.665547017602E+03));
#63 = CARTESIAN_POINT('',(-46.19591084445,115.09388603513,
    2.689047411597E+03));
#64 = CARTESIAN_POINT('',(-22.59129829762,120.19058868954,
    2.712547174923E+03));
#65 = CARTESIAN_POINT('',(0.970658197221,119.99999985826,
    2.736047236122E+03));
#66 = CARTESIAN_POINT('',(-2.3344E+03,0.970659720347,2.548047220503E+03)
  );
#67 = CARTESIAN_POINT('',(-2.33420941087E+03,459.32901625875,
    2.571547159306E+03));
#68 = CARTESIAN_POINT('',(-2.231163456607E+03,917.6447245694,
    2.595047395977E+03));
#69 = CARTESIAN_POINT('',(-2.025273661905E+03,1.348989289166E+03,
    2.618547001985E+03));
#70 = CARTESIAN_POINT('',(-1.72500821818E+03,1.726443352411E+03,
    2.642047212724E+03));
#71 = CARTESIAN_POINT('',(-1.347304574119E+03,2.026394805664E+03,
    2.665547423359E+03));
#72 = CARTESIAN_POINT('',(-915.7889398697,2.231925808428E+03,
    2.689047029429E+03));
#73 = CARTESIAN_POINT('',(-457.3876952941,2.334590589288E+03,
    2.712547266081E+03));
#74 = CARTESIAN_POINT('',(0.970661243612,2.334399999858E+03,
    2.736047204885E+03));
#75 = DEFINITIONAL_REPRESENTATION('',(#76),#80);
#76 = LINE('',#77,#78);
#77 = CARTESIAN_POINT('',(0.,0.));
#78 = VECTOR('',#79,1.);
#79 = DIRECTION('',(0.,1.));
#80 = ( GEOMETRIC_REPRESENTATION_CONTEXT(2) 
PARAMETRIC_REPRESENTATION_CONTEXT() REPRESENTATION_CONTEXT('2D SPACE',''
  ) );
#81 = PCURVE('',#82,#99);
#82 = B_SPLINE_SURFACE_WITH_KNOTS('',1,7,(
    (#83,#84,#85,#86,#87,#88,#89,#90)
    ,(#91,#92,#93,#94,#95,#96,#97,#98
  )),.UNSPECIFIED.,.F.,.F.,.F.,(2,2),(8,8),(0.,20.),(0.,188.00656212244)
  ,.PIECEWISE_BEZIER_KNOTS.);
#83 = CARTESIAN_POINT('',(-120.,-0.970659720347,2.567952779497E+03));
#84 = CARTESIAN_POINT('',(-120.2178161489,25.957290590823,
    2.594809992294E+03));
#85 = CARTESIAN_POINT('',(-113.3859103088,52.94211572908,
    2.621666807933E+03));
#86 = CARTESIAN_POINT('',(-99.48685043153,77.770125169198,
    2.648524712031E+03));
#87 = CARTESIAN_POINT('',(-79.36930868582,98.215772364022,
    2.675380862599E+03));
#88 = CARTESIAN_POINT('',(-54.76938834062,112.51465204807,
    2.702238766655E+03));
#89 = CARTESIAN_POINT('',(-27.89861155554,119.78218365094,
    2.72909558232E+03));
#90 = CARTESIAN_POINT('',(-0.970661243613,120.00000014173,
    2.755952795115E+03));
#91 = CARTESIAN_POINT('',(-120.,0.970659720487,2.548047220503E+03));
#92 = CARTESIAN_POINT('',(-119.782183851,27.898610000152,
    2.574904433298E+03));
#93 = CARTESIAN_POINT('',(-112.5146525983,54.769386844084,
    2.601761248966E+03));
#94 = CARTESIAN_POINT('',(-98.21577324412,79.369307337349,
    2.628619153018E+03));
#95 = CARTESIAN_POINT('',(-77.77012633205,99.486849317967,
    2.655475303587E+03));
#96 = CARTESIAN_POINT('',(-52.9421170984,113.3859094917,
    2.682333207687E+03));
#97 = CARTESIAN_POINT('',(-25.9572920826,120.21781566543,
    2.709190023324E+03));
#98 = CARTESIAN_POINT('',(0.970658197221,119.99999985826,
    2.736047236122E+03));
#99 = DEFINITIONAL_REPRESENTATION('',(#100),#104);
#100 = LINE('',#101,#102);
#101 = CARTESIAN_POINT('',(20.,0.));
#102 = VECTOR('',#103,1.);
#103 = DIRECTION('',(0.,1.));
#104 = ( GEOMETRIC_REPRESENTATION_CONTEXT(2) 
PARAMETRIC_REPRESENTATION_CONTEXT() REPRESENTATION_CONTEXT('2D SPACE',''
  ) );
#105 = ORIENTED_EDGE('',*,*,#106,.T.);
#106 = EDGE_CURVE('',#40,#107,#109,.T.);
#107 = VERTEX_POINT('',#108);
#108 = CARTESIAN_POINT('',(-2.3344E+03,0.970659720347,2.548047220503E+03
    ));
#109 = SURFACE_CURVE('',#110,(#113,#120),.PCURVE_S1.);
#110 = B_SPLINE_CURVE_WITH_KNOTS('',1,(#111,#112),.UNSPECIFIED.,.F.,.F.,
  (2,2),(0.,2.2144E+03),.PIECEWISE_BEZIER_KNOTS.);
#111 = CARTESIAN_POINT('',(-120.,0.970659720487,2.548047220503E+03));
#112 = CARTESIAN_POINT('',(-2.3344E+03,0.970659720347,2.548047220503E+03
    ));
#113 = PCURVE('',#56,#114);
#114 = DEFINITIONAL_REPRESENTATION('',(#115),#119);
#115 = LINE('',#116,#117);
#116 = CARTESIAN_POINT('',(0.,0.));
#117 = VECTOR('',#118,1.);
#118 = DIRECTION('',(1.,0.));
#119 = ( GEOMETRIC_REPRESENTATION_CONTEXT(2) 
PARAMETRIC_REPRESENTATION_CONTEXT() REPRESENTATION_CONTEXT('2D SPACE',''
  ) );
#120 = PCURVE('',#121,#126);
#121 = PLANE('',#122);
#122 = AXIS2_PLACEMENT_3D('',#123,#124,#125);
#123 = CARTESIAN_POINT('',(-1.2272E+03,-2.391064971614E-13,2.558E+03));
#124 = DIRECTION('',(-6.35820100845E-14,0.995277949656,
    9.706597204171E-02));
#125 = DIRECTION('',(-1.18871531967E-17,9.706597204171E-02,
    -0.995277949656));
#126 = DEFINITIONAL_REPRESENTATION('',(#127),#130);
#127 = B_SPLINE_CURVE_WITH_KNOTS('',1,(#128,#129),.UNSPECIFIED.,.F.,.F.,
  (2,2),(0.,2.2144E+03),.PIECEWISE_BEZIER_KNOTS.);
#128 = CARTESIAN_POINT('',(10.000000000001,-1.1072E+03));
#129 = CARTESIAN_POINT('',(10.000000000001,1.1072E+03));
#130 = ( GEOMETRIC_REPRESENTATION_CONTEXT(2) 
PARAMETRIC_REPRESENTATION_CONTEXT() REPRESENTATION_CONTEXT('2D SPACE',''
  ) );
#131 = ORIENTED_EDGE('',*,*,#132,.T.);
#132 = EDGE_CURVE('',#107,#133,#135,.T.);
#133 = VERTEX_POINT('',#134);
#134 = CARTESIAN_POINT('',(0.970661243612,2.334399999858E+03,
    2.736047204885E+03));
#135 = SURFACE_CURVE('',#136,(#146,#153),.PCURVE_S1.);
#136 = B_SPLINE_CURVE_WITH_KNOTS('',8,(#137,#138,#139,#140,#141,#142,
    #143,#144,#145),.UNSPECIFIED.,.F.,.F.,(9,9),(0.,188.00656212244),
  .PIECEWISE_BEZIER_KNOTS.);
#137 = CARTESIAN_POINT('',(-2.3344E+03,0.970659720347,2.548047220503E+03
    ));
#138 = CARTESIAN_POINT('',(-2.33420941087E+03,459.32901625875,
    2.571547159306E+03));
#139 = CARTESIAN_POINT('',(-2.231163456607E+03,917.6447245694,
    2.595047395977E+03));
#140 = CARTESIAN_POINT('',(-2.025273661905E+03,1.348989289166E+03,
    2.618547001985E+03));
#141 = CARTESIAN_POINT('',(-1.72500821818E+03,1.726443352411E+03,
    2.642047212724E+03));
#142 = CARTESIAN_POINT('',(-1.347304574119E+03,2.026394805664E+03,
    2.665547423359E+03));
#143 = CARTESIAN_POINT('',(-915.7889398697,2.231925808428E+03,
    2.689047029429E+03));
#144 = CARTESIAN_POINT('',(-457.3876952941,2.334590589288E+03,
    2.712547266081E+03));
#145 = CARTESIAN_POINT('',(0.970661243612,2.334399999858E+03,
    2.736047204885E+03));
#146 = PCURVE('',#56,#147);
#147 = DEFINITIONAL_REPRESENTATION('',(#148),#152);
#148 = LINE('',#149,#150);
#149 = CARTESIAN_POINT('',(2.2144E+03,0.));
#150 = VECTOR('',#151,1.);
#151 = DIRECTION('',(0.,1.));
#152 = ( GEOMETRIC_REPRESENTATION_CONTEXT(2) 
PARAMETRIC_REPRESENTATION_CONTEXT() REPRESENTATION_CONTEXT('2D SPACE',''
  ) );
#153 = PCURVE('',#154,#173);
#154 = B_SPLINE_SURFACE_WITH_KNOTS('',1,8,(
    (#155,#156,#157,#158,#159,#160,#161,#162,#163)
    ,(#164,#165,#166,#167,#168,#169,#170,#171,#172
  )),.UNSPECIFIED.,.F.,.F.,.F.,(2,2),(9,9),(0.,20.),(0.,188.00656212244)
  ,.PIECEWISE_BEZIER_KNOTS.);
#155 = CARTESIAN_POINT('',(-2.3344E+03,0.970659720347,2.548047220503E+03
    ));
#156 = CARTESIAN_POINT('',(-2.33420941087E+03,459.32901625875,
    2.571547159306E+03));
#157 = CARTESIAN_POINT('',(-2.231163456607E+03,917.6447245694,
    2.595047395977E+03));
#158 = CARTESIAN_POINT('',(-2.025273661905E+03,1.348989289166E+03,
    2.618547001985E+03));
#159 = CARTESIAN_POINT('',(-1.72500821818E+03,1.726443352411E+03,
    2.642047212724E+03));
#160 = CARTESIAN_POINT('',(-1.347304574119E+03,2.026394805664E+03,
    2.665547423359E+03));
#161 = CARTESIAN_POINT('',(-915.7889398697,2.231925808428E+03,
    2.689047029429E+03));
#162 = CARTESIAN_POINT('',(-457.3876952941,2.334590589288E+03,
    2.712547266081E+03));
#163 = CARTESIAN_POINT('',(0.970661243612,2.334399999858E+03,
    2.736047204885E+03));
#164 = CARTESIAN_POINT('',(-2.3344E+03,-0.970659720487,
    2.567952779497E+03));
#165 = CARTESIAN_POINT('',(-2.33459058913E+03,457.38769684549,
    2.591452718301E+03));
#166 = CARTESIAN_POINT('',(-2.231925807965E+03,915.78894138082,
    2.614952954951E+03));
#167 = CARTESIAN_POINT('',(-2.026394804908E+03,1.347304575524E+03,
    2.638452561024E+03));
#168 = CARTESIAN_POINT('',(-1.72644335139E+03,1.725008219411E+03,
    2.661952771657E+03));
#169 = CARTESIAN_POINT('',(-1.348989287926E+03,2.025273662907E+03,
    2.685452982398E+03));
#170 = CARTESIAN_POINT('',(-917.6447231696,2.231163457341E+03,
    2.708952588404E+03));
#171 = CARTESIAN_POINT('',(-459.329014763,2.33420941131E+03,
    2.732452825077E+03));
#172 = CARTESIAN_POINT('',(-0.970658197221,2.334400000142E+03,
    2.755952763878E+03));
#173 = DEFINITIONAL_REPRESENTATION('',(#174),#178);
#174 = LINE('',#175,#176);
#175 = CARTESIAN_POINT('',(0.,0.));
#176 = VECTOR('',#177,1.);
#177 = DIRECTION('',(0.,1.));
#178 = ( GEOMETRIC_REPRESENTATION_CONTEXT(2) 
PARAMETRIC_REPRESENTATION_CONTEXT() REPRESENTATION_CONTEXT('2D SPACE',''
  ) );
#179 = ORIENTED_EDGE('',*,*,#180,.F.);
#180 = EDGE_CURVE('',#42,#133,#181,.T.);
#181 = SURFACE_CURVE('',#182,(#185,#192),.PCURVE_S1.);
#182 = B_SPLINE_CURVE_WITH_KNOTS('',1,(#183,#184),.UNSPECIFIED.,.F.,.F.,
  (2,2),(0.,2.2144E+03),.PIECEWISE_BEZIER_KNOTS.);
#183 = CARTESIAN_POINT('',(0.970658197221,119.99999985826,
    2.736047236122E+03));
#184 = CARTESIAN_POINT('',(0.970661243612,2.334399999858E+03,
    2.736047204885E+03));
#185 = PCURVE('',#56,#186);
#186 = DEFINITIONAL_REPRESENTATION('',(#187),#191);
#187 = LINE('',#188,#189);
#188 = CARTESIAN_POINT('',(0.,188.00656212244));
#189 = VECTOR('',#190,1.);
#190 = DIRECTION('',(1.,0.));
#191 = ( GEOMETRIC_REPRESENTATION_CONTEXT(2) 
PARAMETRIC_REPRESENTATION_CONTEXT() REPRESENTATION_CONTEXT('2D SPACE',''
  ) );
#192 = PCURVE('',#193,#198);
#193 = PLANE('',#194);
#194 = AXIS2_PLACEMENT_3D('',#195,#196,#197);
#195 = CARTESIAN_POINT('',(-1.931393684225E-13,1.2272E+03,2.746E+03));
#196 = DIRECTION('',(0.995277949656,1.927213544461E-14,9.70659720417E-02
    ));
#197 = DIRECTION('',(9.70659720417E-02,1.18871531967E-17,-0.995277949656
    ));
#198 = DEFINITIONAL_REPRESENTATION('',(#199),#202);
#199 = B_SPLINE_CURVE_WITH_KNOTS('',1,(#200,#201),.UNSPECIFIED.,.F.,.F.,
  (2,2),(0.,2.2144E+03),.PIECEWISE_BEZIER_KNOTS.);
#200 = CARTESIAN_POINT('',(9.999984307406,-1.107200000142E+03));
#201 = CARTESIAN_POINT('',(10.000015692595,1.107199999858E+03));
#202 = ( GEOMETRIC_REPRESENTATION_CONTEXT(2) 
PARAMETRIC_REPRESENTATION_CONTEXT() REPRESENTATION_CONTEXT('2D SPACE',''
  ) );
#203 = ADVANCED_FACE('',(#204),#154,.T.);
#204 = FACE_BOUND('',#205,.T.);
#205 = EDGE_LOOP('',(#206,#207,#228,#276));
#206 = ORIENTED_EDGE('',*,*,#132,.F.);
#207 = ORIENTED_EDGE('',*,*,#208,.T.);
#208 = EDGE_CURVE('',#107,#209,#211,.T.);
#209 = VERTEX_POINT('',#210);
#210 = CARTESIAN_POINT('',(-2.3344E+03,-0.970659720487,
    2.567952779497E+03));
#211 = SURFACE_CURVE('',#212,(#215,#222),.PCURVE_S1.);
#212 = B_SPLINE_CURVE_WITH_KNOTS('',1,(#213,#214),.UNSPECIFIED.,.F.,.F.,
  (2,2),(0.,20.),.PIECEWISE_BEZIER_KNOTS.);
#213 = CARTESIAN_POINT('',(-2.3344E+03,0.970659720347,2.548047220503E+03
    ));
#214 = CARTESIAN_POINT('',(-2.3344E+03,-0.970659720487,
    2.567952779497E+03));
#215 = PCURVE('',#154,#216);
#216 = DEFINITIONAL_REPRESENTATION('',(#217),#221);
#217 = LINE('',#218,#219);
#218 = CARTESIAN_POINT('',(0.,0.));
#219 = VECTOR('',#220,1.);
#220 = DIRECTION('',(1.,0.));
#221 = ( GEOMETRIC_REPRESENTATION_CONTEXT(2) 
PARAMETRIC_REPRESENTATION_CONTEXT() REPRESENTATION_CONTEXT('2D SPACE',''
  ) );
#222 = PCURVE('',#121,#223);
#223 = DEFINITIONAL_REPRESENTATION('',(#224),#227);
#224 = B_SPLINE_CURVE_WITH_KNOTS('',1,(#225,#226),.UNSPECIFIED.,.F.,.F.,
  (2,2),(0.,20.),.PIECEWISE_BEZIER_KNOTS.);
#225 = CARTESIAN_POINT('',(10.000000000001,1.1072E+03));
#226 = CARTESIAN_POINT('',(-10.,1.1072E+03));
#227 = ( GEOMETRIC_REPRESENTATION_CONTEXT(2) 
PARAMETRIC_REPRESENTATION_CONTEXT() REPRESENTATION_CONTEXT('2D SPACE',''
  ) );
#228 = ORIENTED_EDGE('',*,*,#229,.T.);
#229 = EDGE_CURVE('',#209,#230,#232,.T.);
#230 = VERTEX_POINT('',#231);
#231 = CARTESIAN_POINT('',(-0.970658197221,2.334400000142E+03,
    2.755952763878E+03));
#232 = SURFACE_CURVE('',#233,(#243,#250),.PCURVE_S1.);
#233 = B_SPLINE_CURVE_WITH_KNOTS('',8,(#234,#235,#236,#237,#238,#239,
    #240,#241,#242),.UNSPECIFIED.,.F.,.F.,(9,9),(0.,188.00656212244),
  .PIECEWISE_BEZIER_KNOTS.);
#234 = CARTESIAN_POINT('',(-2.3344E+03,-0.970659720487,
    2.567952779497E+03));
#235 = CARTESIAN_POINT('',(-2.33459058913E+03,457.38769684549,
    2.591452718301E+03));
#236 = CARTESIAN_POINT('',(-2.231925807965E+03,915.78894138082,
    2.614952954951E+03));
#237 = CARTESIAN_POINT('',(-2.026394804908E+03,1.347304575524E+03,
    2.638452561024E+03));
#238 = CARTESIAN_POINT('',(-1.72644335139E+03,1.725008219411E+03,
    2.661952771657E+03));
#239 = CARTESIAN_POINT('',(-1.348989287926E+03,2.025273662907E+03,
    2.685452982398E+03));
#240 = CARTESIAN_POINT('',(-917.6447231696,2.231163457341E+03,
    2.708952588404E+03));
#241 = CARTESIAN_POINT('',(-459.329014763,2.33420941131E+03,
    2.732452825077E+03));
#242 = CARTESIAN_POINT('',(-0.970658197221,2.334400000142E+03,
    2.755952763878E+03));
#243 = PCURVE('',#154,#244);
#244 = DEFINITIONAL_REPRESENTATION('',(#245),#249);
#245 = LINE('',#246,#247);
#246 = CARTESIAN_POINT('',(20.,0.));
#247 = VECTOR('',#248,1.);
#248 = DIRECTION('',(0.,1.));
#249 = ( GEOMETRIC_REPRESENTATION_CONTEXT(2) 
PARAMETRIC_REPRESENTATION_CONTEXT() REPRESENTATION_CONTEXT('2D SPACE',''
  ) );
#250 = PCURVE('',#251,#270);
#251 = B_SPLINE_SURFACE_WITH_KNOTS('',1,8,(
    (#252,#253,#254,#255,#256,#257,#258,#259,#260)
    ,(#261,#262,#263,#264,#265,#266,#267,#268,#269
  )),.UNSPECIFIED.,.F.,.F.,.F.,(2,2),(9,9),(0.,2.2144E+03),(0.,
    188.00656212244),.PIECEWISE_BEZIER_KNOTS.);
#252 = CARTESIAN_POINT('',(-2.3344E+03,-0.970659720487,
    2.567952779497E+03));
#253 = CARTESIAN_POINT('',(-2.33459058913E+03,457.38769684549,
    2.591452718301E+03));
#254 = CARTESIAN_POINT('',(-2.231925807965E+03,915.78894138082,
    2.614952954951E+03));
#255 = CARTESIAN_POINT('',(-2.026394804908E+03,1.347304575524E+03,
    2.638452561024E+03));
#256 = CARTESIAN_POINT('',(-1.72644335139E+03,1.725008219411E+03,
    2.661952771657E+03));
#257 = CARTESIAN_POINT('',(-1.348989287926E+03,2.025273662907E+03,
    2.685452982398E+03));
#258 = CARTESIAN_POINT('',(-917.6447231696,2.231163457341E+03,
    2.708952588404E+03));
#259 = CARTESIAN_POINT('',(-459.329014763,2.33420941131E+03,
    2.732452825077E+03));
#260 = CARTESIAN_POINT('',(-0.970658197221,2.334400000142E+03,
    2.755952763878E+03));
#261 = CARTESIAN_POINT('',(-120.,-0.970659720347,2.567952779497E+03));
#262 = CARTESIAN_POINT('',(-120.1905891303,22.591296801927,
    2.591452840694E+03));
#263 = CARTESIAN_POINT('',(-115.0938867688,46.195909444516,
    2.614952604023E+03));
#264 = CARTESIAN_POINT('',(-104.6987832659,68.459408890017,
    2.638452998015E+03));
#265 = CARTESIAN_POINT('',(-89.42847200593,87.993337775316,
    2.661952787276E+03));
#266 = CARTESIAN_POINT('',(-70.14412393678,103.5776395064,
    2.685452576641E+03));
#267 = CARTESIAN_POINT('',(-48.05169414435,114.33153494879,
    2.708952970571E+03));
#268 = CARTESIAN_POINT('',(-24.53261776655,119.80941071228,
    2.732452733919E+03));
#269 = CARTESIAN_POINT('',(-0.970661243613,120.00000014173,
    2.755952795115E+03));
#270 = DEFINITIONAL_REPRESENTATION('',(#271),#275);
#271 = LINE('',#272,#273);
#272 = CARTESIAN_POINT('',(0.,0.));
#273 = VECTOR('',#274,1.);
#274 = DIRECTION('',(0.,1.));
#275 = ( GEOMETRIC_REPRESENTATION_CONTEXT(2) 
PARAMETRIC_REPRESENTATION_CONTEXT() REPRESENTATION_CONTEXT('2D SPACE',''
  ) );
#276 = ORIENTED_EDGE('',*,*,#277,.F.);
#277 = EDGE_CURVE('',#133,#230,#278,.T.);
#278 = SURFACE_CURVE('',#279,(#282,#289),.PCURVE_S1.);
#279 = B_SPLINE_CURVE_WITH_KNOTS('',1,(#280,#281),.UNSPECIFIED.,.F.,.F.,
  (2,2),(0.,20.),.PIECEWISE_BEZIER_KNOTS.);
#280 = CARTESIAN_POINT('',(0.970661243612,2.334399999858E+03,
    2.736047204885E+03));
#281 = CARTESIAN_POINT('',(-0.970658197221,2.334400000142E+03,
    2.755952763878E+03));
#282 = PCURVE('',#154,#283);
#283 = DEFINITIONAL_REPRESENTATION('',(#284),#288);
#284 = LINE('',#285,#286);
#285 = CARTESIAN_POINT('',(0.,188.00656212244));
#286 = VECTOR('',#287,1.);
#287 = DIRECTION('',(1.,0.));
#288 = ( GEOMETRIC_REPRESENTATION_CONTEXT(2) 
PARAMETRIC_REPRESENTATION_CONTEXT() REPRESENTATION_CONTEXT('2D SPACE',''
  ) );
#289 = PCURVE('',#193,#290);
#290 = DEFINITIONAL_REPRESENTATION('',(#291),#294);
#291 = B_SPLINE_CURVE_WITH_KNOTS('',1,(#292,#293),.UNSPECIFIED.,.F.,.F.,
  (2,2),(0.,20.),.PIECEWISE_BEZIER_KNOTS.);
#292 = CARTESIAN_POINT('',(10.000015692595,1.107199999858E+03));
#293 = CARTESIAN_POINT('',(-9.999984307405,1.107200000142E+03));
#294 = ( GEOMETRIC_REPRESENTATION_CONTEXT(2) 
PARAMETRIC_REPRESENTATION_CONTEXT() REPRESENTATION_CONTEXT('2D SPACE',''
  ) );
#295 = ADVANCED_FACE('',(#296),#251,.T.);
#296 = FACE_BOUND('',#297,.T.);
#297 = EDGE_LOOP('',(#298,#299,#320,#349));
#298 = ORIENTED_EDGE('',*,*,#229,.F.);
#299 = ORIENTED_EDGE('',*,*,#300,.T.);
#300 = EDGE_CURVE('',#209,#301,#303,.T.);
#301 = VERTEX_POINT('',#302);
#302 = CARTESIAN_POINT('',(-120.,-0.970659720347,2.567952779497E+03));
#303 = SURFACE_CURVE('',#304,(#307,#314),.PCURVE_S1.);
#304 = B_SPLINE_CURVE_WITH_KNOTS('',1,(#305,#306),.UNSPECIFIED.,.F.,.F.,
  (2,2),(0.,2.2144E+03),.PIECEWISE_BEZIER_KNOTS.);
#305 = CARTESIAN_POINT('',(-2.3344E+03,-0.970659720487,
    2.567952779497E+03));
#306 = CARTESIAN_POINT('',(-120.,-0.970659720347,2.567952779497E+03));
#307 = PCURVE('',#251,#308);
#308 = DEFINITIONAL_REPRESENTATION('',(#309),#313);
#309 = LINE('',#310,#311);
#310 = CARTESIAN_POINT('',(0.,0.));
#311 = VECTOR('',#312,1.);
#312 = DIRECTION('',(1.,0.));
#313 = ( GEOMETRIC_REPRESENTATION_CONTEXT(2) 
PARAMETRIC_REPRESENTATION_CONTEXT() REPRESENTATION_CONTEXT('2D SPACE',''
  ) );
#314 = PCURVE('',#121,#315);
#315 = DEFINITIONAL_REPRESENTATION('',(#316),#319);
#316 = B_SPLINE_CURVE_WITH_KNOTS('',1,(#317,#318),.UNSPECIFIED.,.F.,.F.,
  (2,2),(0.,2.2144E+03),.PIECEWISE_BEZIER_KNOTS.);
#317 = CARTESIAN_POINT('',(-10.,1.1072E+03));
#318 = CARTESIAN_POINT('',(-9.999999999999,-1.1072E+03));
#319 = ( GEOMETRIC_REPRESENTATION_CONTEXT(2) 
PARAMETRIC_REPRESENTATION_CONTEXT() REPRESENTATION_CONTEXT('2D SPACE',''
  ) );
#320 = ORIENTED_EDGE('',*,*,#321,.T.);
#321 = EDGE_CURVE('',#301,#322,#324,.T.);
#322 = VERTEX_POINT('',#323);
#323 = CARTESIAN_POINT('',(-0.970661243613,120.00000014173,
    2.755952795115E+03));
#324 = SURFACE_CURVE('',#325,(#335,#342),.PCURVE_S1.);
#325 = B_SPLINE_CURVE_WITH_KNOTS('',8,(#326,#327,#328,#329,#330,#331,
    #332,#333,#334),.UNSPECIFIED.,.F.,.F.,(9,9),(0.,188.00656212244),
  .PIECEWISE_BEZIER_KNOTS.);
#326 = CARTESIAN_POINT('',(-120.,-0.970659720347,2.567952779497E+03));
#327 = CARTESIAN_POINT('',(-120.1905891303,22.591296801927,
    2.591452840694E+03));
#328 = CARTESIAN_POINT('',(-115.0938867688,46.195909444516,
    2.614952604023E+03));
#329 = CARTESIAN_POINT('',(-104.6987832659,68.459408890017,
    2.638452998015E+03));
#330 = CARTESIAN_POINT('',(-89.42847200593,87.993337775316,
    2.661952787276E+03));
#331 = CARTESIAN_POINT('',(-70.14412393678,103.5776395064,
    2.685452576641E+03));
#332 = CARTESIAN_POINT('',(-48.05169414435,114.33153494879,
    2.708952970571E+03));
#333 = CARTESIAN_POINT('',(-24.53261776655,119.80941071228,
    2.732452733919E+03));
#334 = CARTESIAN_POINT('',(-0.970661243613,120.00000014173,
    2.755952795115E+03));
#335 = PCURVE('',#251,#336);
#336 = DEFINITIONAL_REPRESENTATION('',(#337),#341);
#337 = LINE('',#338,#339);
#338 = CARTESIAN_POINT('',(2.2144E+03,0.));
#339 = VECTOR('',#340,1.);
#340 = DIRECTION('',(0.,1.));
#341 = ( GEOMETRIC_REPRESENTATION_CONTEXT(2) 
PARAMETRIC_REPRESENTATION_CONTEXT() REPRESENTATION_CONTEXT('2D SPACE',''
  ) );
#342 = PCURVE('',#82,#343);
#343 = DEFINITIONAL_REPRESENTATION('',(#344),#348);
#344 = LINE('',#345,#346);
#345 = CARTESIAN_POINT('',(0.,0.));
#346 = VECTOR('',#347,1.);
#347 = DIRECTION('',(0.,1.));
#348 = ( GEOMETRIC_REPRESENTATION_CONTEXT(2) 
PARAMETRIC_REPRESENTATION_CONTEXT() REPRESENTATION_CONTEXT('2D SPACE',''
  ) );
#349 = ORIENTED_EDGE('',*,*,#350,.F.);
#350 = EDGE_CURVE('',#230,#322,#351,.T.);
#351 = SURFACE_CURVE('',#352,(#355,#362),.PCURVE_S1.);
#352 = B_SPLINE_CURVE_WITH_KNOTS('',1,(#353,#354),.UNSPECIFIED.,.F.,.F.,
  (2,2),(0.,2.2144E+03),.PIECEWISE_BEZIER_KNOTS.);
#353 = CARTESIAN_POINT('',(-0.970658197221,2.334400000142E+03,
    2.755952763878E+03));
#354 = CARTESIAN_POINT('',(-0.970661243613,120.00000014173,
    2.755952795115E+03));
#355 = PCURVE('',#251,#356);
#356 = DEFINITIONAL_REPRESENTATION('',(#357),#361);
#357 = LINE('',#358,#359);
#358 = CARTESIAN_POINT('',(0.,188.00656212244));
#359 = VECTOR('',#360,1.);
#360 = DIRECTION('',(1.,0.));
#361 = ( GEOMETRIC_REPRESENTATION_CONTEXT(2) 
PARAMETRIC_REPRESENTATION_CONTEXT() REPRESENTATION_CONTEXT('2D SPACE',''
  ) );
#362 = PCURVE('',#193,#363);
#363 = DEFINITIONAL_REPRESENTATION('',(#364),#367);
#364 = B_SPLINE_CURVE_WITH_KNOTS('',1,(#365,#366),.UNSPECIFIED.,.F.,.F.,
  (2,2),(0.,2.2144E+03),.PIECEWISE_BEZIER_KNOTS.);
#365 = CARTESIAN_POINT('',(-9.999984307405,1.107200000142E+03));
#366 = CARTESIAN_POINT('',(-10.00001569259,-1.107199999858E+03));
#367 = ( GEOMETRIC_REPRESENTATION_CONTEXT(2) 
PARAMETRIC_REPRESENTATION_CONTEXT() REPRESENTATION_CONTEXT('2D SPACE',''
  ) );
#368 = ADVANCED_FACE('',(#369),#82,.T.);
#369 = FACE_BOUND('',#370,.T.);
#370 = EDGE_LOOP('',(#371,#372,#391,#392));
#371 = ORIENTED_EDGE('',*,*,#321,.F.);
#372 = ORIENTED_EDGE('',*,*,#373,.T.);
#373 = EDGE_CURVE('',#301,#40,#374,.T.);
#374 = SURFACE_CURVE('',#375,(#378,#385),.PCURVE_S1.);
#375 = B_SPLINE_CURVE_WITH_KNOTS('',1,(#376,#377),.UNSPECIFIED.,.F.,.F.,
  (2,2),(0.,20.),.PIECEWISE_BEZIER_KNOTS.);
#376 = CARTESIAN_POINT('',(-120.,-0.970659720347,2.567952779497E+03));
#377 = CARTESIAN_POINT('',(-120.,0.970659720487,2.548047220503E+03));
#378 = PCURVE('',#82,#379);
#379 = DEFINITIONAL_REPRESENTATION('',(#380),#384);
#380 = LINE('',#381,#382);
#381 = CARTESIAN_POINT('',(0.,0.));
#382 = VECTOR('',#383,1.);
#383 = DIRECTION('',(1.,0.));
#384 = ( GEOMETRIC_REPRESENTATION_CONTEXT(2) 
PARAMETRIC_REPRESENTATION_CONTEXT() REPRESENTATION_CONTEXT('2D SPACE',''
  ) );
#385 = PCURVE('',#121,#386);
#386 = DEFINITIONAL_REPRESENTATION('',(#387),#390);
#387 = B_SPLINE_CURVE_WITH_KNOTS('',1,(#388,#389),.UNSPECIFIED.,.F.,.F.,
  (2,2),(0.,20.),.PIECEWISE_BEZIER_KNOTS.);
#388 = CARTESIAN_POINT('',(-9.999999999999,-1.1072E+03));
#389 = CARTESIAN_POINT('',(10.,-1.1072E+03));
#390 = ( GEOMETRIC_REPRESENTATION_CONTEXT(2) 
PARAMETRIC_REPRESENTATION_CONTEXT() REPRESENTATION_CONTEXT('2D SPACE',''
  ) );
#391 = ORIENTED_EDGE('',*,*,#39,.T.);
#392 = ORIENTED_EDGE('',*,*,#393,.F.);
#393 = EDGE_CURVE('',#322,#42,#394,.T.);
#394 = SURFACE_CURVE('',#395,(#398,#405),.PCURVE_S1.);
#395 = B_SPLINE_CURVE_WITH_KNOTS('',1,(#396,#397),.UNSPECIFIED.,.F.,.F.,
  (2,2),(0.,20.),.PIECEWISE_BEZIER_KNOTS.);
#396 = CARTESIAN_POINT('',(-0.970661243613,120.00000014173,
    2.755952795115E+03));
#397 = CARTESIAN_POINT('',(0.970658197221,119.99999985826,
    2.736047236122E+03));
#398 = PCURVE('',#82,#399);
#399 = DEFINITIONAL_REPRESENTATION('',(#400),#404);
#400 = LINE('',#401,#402);
#401 = CARTESIAN_POINT('',(0.,188.00656212244));
#402 = VECTOR('',#403,1.);
#403 = DIRECTION('',(1.,0.));
#404 = ( GEOMETRIC_REPRESENTATION_CONTEXT(2) 
PARAMETRIC_REPRESENTATION_CONTEXT() REPRESENTATION_CONTEXT('2D SPACE',''
  ) );
#405 = PCURVE('',#193,#406);
#406 = DEFINITIONAL_REPRESENTATION('',(#407),#410);
#407 = B_SPLINE_CURVE_WITH_KNOTS('',1,(#408,#409),.UNSPECIFIED.,.F.,.F.,
  (2,2),(0.,20.),.PIECEWISE_BEZIER_KNOTS.);
#408 = CARTESIAN_POINT('',(-10.00001569259,-1.107199999858E+03));
#409 = CARTESIAN_POINT('',(9.999984307405,-1.107200000142E+03));
#410 = ( GEOMETRIC_REPRESENTATION_CONTEXT(2) 
PARAMETRIC_REPRESENTATION_CONTEXT() REPRESENTATION_CONTEXT('2D SPACE',''
  ) );
#411 = ADVANCED_FACE('',(#412),#121,.F.);
#412 = FACE_BOUND('',#413,.F.);
#413 = EDGE_LOOP('',(#414,#415,#416,#417));
#414 = ORIENTED_EDGE('',*,*,#106,.T.);
#415 = ORIENTED_EDGE('',*,*,#208,.T.);
#416 = ORIENTED_EDGE('',*,*,#300,.T.);
#417 = ORIENTED_EDGE('',*,*,#373,.T.);
#418 = ADVANCED_FACE('',(#419),#193,.T.);
#419 = FACE_BOUND('',#420,.T.);
#420 = EDGE_LOOP('',(#421,#422,#423,#424));
#421 = ORIENTED_EDGE('',*,*,#180,.T.);
#422 = ORIENTED_EDGE('',*,*,#277,.T.);
#423 = ORIENTED_EDGE('',*,*,#350,.T.);
#424 = ORIENTED_EDGE('',*,*,#393,.T.);
#425 = ( GEOMETRIC_REPRESENTATION_CONTEXT(3) 
GLOBAL_UNCERTAINTY_ASSIGNED_CONTEXT((#429)) GLOBAL_UNIT_ASSIGNED_CONTEXT
((#426,#427,#428)) REPRESENTATION_CONTEXT('Context #1',
  '3D Context with UNIT and UNCERTAINTY') );
#426 = ( LENGTH_UNIT() NAMED_UNIT(*) SI_UNIT(.MILLI.,.METRE.) );
#427 = ( NAMED_UNIT(*) PLANE_ANGLE_UNIT() SI_UNIT($,.RADIAN.) );
#428 = ( NAMED_UNIT(*) SI_UNIT($,.STERADIAN.) SOLID_ANGLE_UNIT() );
#429 = UNCERTAINTY_MEASURE_WITH_UNIT(LENGTH_MEASURE(2.E-05),#426,
  'distance_accuracy_value','confusion accuracy');
#430 = CONTEXT_DEPENDENT_SHAPE_REPRESENTATION(#431,#433);
#431 = ( REPRESENTATION_RELATIONSHIP('','',#32,#10) 
REPRESENTATION_RELATIONSHIP_WITH_TRANSFORMATION(#432) 
SHAPE_REPRESENTATION_RELATIONSHIP() );
#432 = ITEM_DEFINED_TRANSFORMATION('','',#11,#15);
#433 = PRODUCT_DEFINITION_SHAPE('Placement','Placement of an item',#434
  );
#434 = NEXT_ASSEMBLY_USAGE_OCCURRENCE('1','uk-sail-segment-c.body','',#5,#27,$);
#435 = PRODUCT_RELATED_PRODUCT_CATEGORY('part',$,(#29));
ENDSEC;
END-ISO-10303-21;
